<svg fill="none" height="88" viewBox="0 0 157 88" width="157" xmlns="http://www.w3.org/2000/svg" xmlns:xlink="http://www.w3.org/1999/xlink"><clipPath id="a"><path d="m0 0h157v88h-157z"/></clipPath><g clip-path="url(#a)" fill="#fff"><path d="m36.1501 24.1711c-12.6707 0-16.5535 7.978-16.5535 12.3908h8.7418c.2978-2.332 2.474-5.0122 8.1081-5.0122 5.736 0 7.9807 3.5968 7.9807 8.1459h-4.2628c-14.2419 0-22.2752 3.9377-22.2752 12.6786 0 6.2416 6.1605 11.7992 14.1664 11.7992 5.041 0 10.4768-2.3942 12.3468-3.9171l.1282 2.9098h8.4701v-21.488c0-10.8201-4.3294-17.507-16.8506-17.507zm5.2963 22.3354h2.8278v2.1504c0 4.4864-4.1417 7.8095-10.4398 7.8095-3.8452 0-6.802-1.1383-6.802-3.8364 0-3.7129 2.6698-6.1235 14.414-6.1235z"/><path d="m57.9688 63.1629v-38.1754h13.671l7.0727 27.7324 7.0798-27.7324h13.6589v38.1754h-8.9149v-27.4972l-7.7793 27.4972h-8.2115l-7.7116-27.4385v27.4385z"/><path d="m131.302 48.842h8.701c-1.29 7.2177-7.772 15.3486-17.968 15.3486-12.845 0-18.489-11.2134-18.489-19.9166 0-11.7956 7.388-20.0765 18.421-20.0765 9.692 0 16.497 7.0946 17.923 15.3029h-8.542c-.997-3.1584-4.059-7.423-9.381-7.423-5.995 0-10.082 6.0199-10.082 12.0139 0 7.1989 4.865 12.1738 10.06 12.1738 4.748 0 8.222-3.7117 9.357-7.4231z"/><path d="m0 0v.663007 87.336993h157v-88zm1.3286 1.32601h154.3424v85.34799h-154.3424z"/></g></svg>