<svg fill="none" height="35" viewBox="0 0 130 35" width="130" xmlns="http://www.w3.org/2000/svg"><path d="m0 0v32.5104l32.5104-32.5104z" fill="#92cfae"/><path d="m2.32227 34.8326h32.51033v-32.51033z" fill="#2a8288"/><g fill="#fff"><path clip-rule="evenodd" d="m53.2853 0h-11.818v34.8325h7.7031v-12.6661h4.3539c7.7996 0 12.8234-3.5079 12.8234-10.8643v-.1943c0-7.35684-4.7371-11.1078-13.0624-11.1078zm5.5983 11.3514c0 3.4587-2.0095 5.3098-5.7895 5.3098h-3.9237v-10.66889h3.9237c3.6841 0 5.7895 1.46141 5.7895 5.16369z" fill-rule="evenodd"/><path clip-rule="evenodd" d="m69.665 34.8325h12.2996c8.3091 0 12.5808-3.9463 12.5808-10.7662v-.1955c0-6.966-4.6003-10.4253-12.3463-10.4253h-5.0231l.0473-7.30701h14.318v-6.13849h-21.8763zm17.6045-10.8155c0 3.1669-1.878 4.8232-5.5867 4.8232h-4.5068v-9.8407h4.3191c3.8964 0 5.7744 1.7049 5.7744 4.8232z" fill-rule="evenodd"/><path d="m100.144.0486457h8.088v14.9839543l12.481-15.0326h8.588l-14.129 16.492 14.828 18.3405h-9.436l-12.332-15.6163v15.6163h-8.088z"/></g></svg>