<svg fill="none" height="44" viewBox="0 0 160 44" width="160" xmlns="http://www.w3.org/2000/svg"><path d="m160 35.5807c0 4.3165-3.499 7.8157-7.816 7.8157-4.316 0-7.815-3.4992-7.815-7.8157 0-4.3166 3.499-7.8158 7.815-7.8158 4.317 0 7.816 3.4992 7.816 7.8158z" fill="#f72d17"/><path clip-rule="evenodd" d="m57.683.00000582-12.5039 20.18009418v-20.18009418h-13.4249l-9.1007 12.02619418-9.22-11.9750193v-.0511807h-.0427-13.3908v42.6545h13.4335v-22.7388l9.2201 11.9664 9.1006-11.8129v22.5853h13.7576l5.5866-9.0239h14.1841v9.0239h13.4335v-30.5345h7.1389v30.5345h13.4335v-30.5345h6.7636v17.664 3.8978h20.572v8.9727h13.434v-42.6545h-13.434v21.5618h-7.138v-21.5618zm87.859-.00000582v26.0908l13.434-8.0942v-17.9966zm-80.2595 21.5191v-10.7809l-6.6784 10.7809z" fill="#f72d17" fill-rule="evenodd"/><g fill="#fff"><path d="m148.707 32.1211v.9382h1.168v5.9278h1.041v-5.9278h1.168v-.9382z"/><path clip-rule="evenodd" d="m152.604 32.1211v6.8234h2.969l.281-.2815v-2.6441l-.554-.5544.554-.5544v-2.5161l-.273-.2729zm1.041.9382h1.16v1.6206l-.307.3156h-.853zm.853 2.8744h-.853v2.0726h1.16v-1.7656z" fill-rule="evenodd"/></g></svg>