<svg fill="none" height="100" viewBox="0 0 110 100" width="110" xmlns="http://www.w3.org/2000/svg"><path d="m73.7588 70.8377c-19.5613 0-35.419-15.8575-35.419-35.4188 0-19.5612 15.8577-35.41865586 35.419-35.41865586 19.561 0 35.4182 15.85765586 35.4182 35.41865586 0 19.5613-15.8572 35.4188-35.4182 35.4188z" fill="#d3d2d5"/><path d="m73.7595 70.8377c19.5612 0 35.4185-15.8575 35.4185-35.4188 0-19.5612-15.8573-35.41865586-35.4185-35.41865586s-35.4187 15.85745586-35.4187 35.41865586c0 19.5613 15.8575 35.4188 35.4187 35.4188z" fill="#d3d2d5"/><path d="m26.8012 6.73073c5.5149-.76719 10.8563-4.20782 16.3053-5.891461-2.4753-.547959-5.0471-.839269-7.6874-.839269-6.5304 0-12.6469 1.76933-17.8996 4.8521 2.5236 1.88713 5.9247 2.346 9.2817 1.87863z" fill="#2a3b8e"/><path d="m68.6054 23.0225c-3.706 2.7659-9.3196 3.8595-13.1245 3.6503-7.995-.44-22.4346-14.9829-31.7299-16.72374-5.8009-1.08635-11.3294.29854-15.16401 2.55454-.23539.1387-.44355.3201-.61643.5316-2.92287 3.5797-5.15829 7.7418-6.50767 12.2856 6.98993-9.6351 16.44281-5.7545 25.85311 1.0942 14.9172 10.8574 29.6891 20.9934 42.0746 15.5666.5814-.2548.9847-.8006 1.0762-1.4289.2436-1.6762.3706-3.3901.3706-5.1339 0-4.3613-.7902-8.5379-2.232-12.3963z" fill="#c40006"/><path d="m2.45117 47.7579c-.11439.0551-.16904.1908-.12375.3094 1.35087 3.5321 3.2499 6.7928 5.59462 9.677.05422.0666.13991.0989.22476.0859 8.4958-1.2754 16.9712 6.4088 25.37 12.9131.0398.0308.0876.0485.1376.0508.5845.0287 1.1727.0434 1.7642.0434 7.064 0 13.6433-2.0696 19.1684-5.6331-.6345-.4096-1.255-.8391-1.861-1.2873-25.713-.8729-31.4641-25.2129-50.27483-16.1592z" fill="#6fa9de"/><path d="m19.5815 57.5424c-3.4312-.2981-8.8981-1.3987-14.1816-3.322 6.2642 9.9807 17.3658 16.6172 30.0191 16.6172 1.0072 0 2.0038-.0442 2.9896-.1267 7.8951-6.1349 15.8549-13.2157 23.8378-12.8297.3398.0163.6683-.1319.8803-.3979 2.3615-2.962 4.257-6.312 5.5778-9.9379.0934-.256.0136-.5447-.1949-.7199-9.0763-7.6168-32.7398 12.1337-48.9281 10.7169z" fill="#2a3b8e"/><path d="m44.5137 26.5503c8.7252-6.3522 17.4894-10.1454 24.2914-2.9783-2.6586-7.4918-7.7661-13.82255-14.3612-18.03079-.5992-.38253-1.2989-.58326-2.0098-.5688-2.2998.04678-4.8631.32002-7.7377.84905-13.4568 2.47528-26.2812 13.87144-36.89336 7.42154-4.88059 6.0701-7.80304 13.7811-7.80304 22.1759 0 1.8276.140551 3.6222.40762 5.3752.029769.1949.147355.3672.318951.4646 12.724229 7.2244 28.173629-3.3437 43.787129-14.7084z" fill="#6fa9de"/><g fill="#4f5da1"><path d="m15.6666 83.8971c.5932.6315.842 1.3968.842 2.3537 0 2.3921-1.6075 3.9037-4.1717 3.9037h-5.70262v-13.625h5.47302c2.5643 0 4.2099 1.4545 4.2099 3.7507 0 1.3013-.555 2.2582-1.6838 2.8897.5356.2871.7461.4404 1.0332.7272zm-3.7698-1.8561c1.0908 0 1.7606-.5932 1.7606-1.5692s-.6698-1.5693-1.7606-1.5693h-2.60268v3.1385zm.1722 5.7409c1.0906 0 1.7797-.6508 1.7797-1.684 0-1.0334-.6889-1.665-1.7797-1.665h-2.77488v3.349z"/><path d="m27.3724 90.1547v-7.9416l-2.6024 5.1668h-1.7989l-2.6218-5.1668v7.9416h-2.6598v-13.6249h2.6217l3.5593 7.3673 3.5402-7.3673h2.6217v13.6249z"/><path d="m31.2744 90.1547v-13.6249h8.9749v2.3728h-6.315v3.1956h5.3773v2.373h-5.3773v3.3106h6.315v2.3727h-8.9749z"/><path d="m46.236 90.2696c-1.4927 0-2.7173-.5358-3.6741-1.4927-1.3777-1.3779-1.3396-3.0809-1.3396-5.4349 0-2.3537-.0383-4.0569 1.3396-5.4348.9568-.9568 2.1816-1.4926 3.6741-1.4926 2.5452 0 4.5353 1.4544 5.0137 4.3056h-2.6981c-.268-1.0908-.9569-1.9329-2.2963-1.9329-.7272 0-1.3204.268-1.7032.7081-.5167.5741-.6698 1.2248-.6698 3.8464 0 2.6217.1531 3.2724.6698 3.8465.3828.44.976.7081 1.7032.7081 1.3396 0 2.0286-.8421 2.2963-1.9329h2.6981c-.4782 2.8517-2.4876 4.3061-5.0137 4.3061z"/><path d="m57.6188 78.9026v11.2521h-2.6601v-11.2521h-3.5593v-2.3728h9.7789v2.3728z"/><path d="m61.9878 90.1547v-13.6249h8.9746v2.3728h-6.3148v3.1956h5.3773v2.373h-5.3773v3.3106h6.3148v2.3727h-8.9746z"/><path d="m71.3076 84.4663v-2.3679h5.8942v2.3679z"/><path d="m83.7655 76.5298c2.6218 0 4.497 1.7604 4.497 4.2482s-1.8561 4.2482-4.497 4.2482h-2.6218v5.1285h-2.6598v-13.6249zm-.1337 6.1045c1.1862 0 1.9711-.7272 1.9711-1.8563s-.7846-1.8752-1.9711-1.8752h-2.4879v3.7317h2.4879z"/><path d="m94.4112 90.2504v-1.6266c-3.9806-.2103-5.607-2.258-5.607-5.7983 0-3.5213 1.8561-5.3582 5.607-5.5876v-1.359h2.6407v1.359c3.7701.2294 5.6071 2.0665 5.6071 5.5876 0 3.5401-1.608 5.5878-5.6071 5.7983v1.6266zm.0382-10.7354c-2.2007.0956-2.9851 1.1864-2.9851 3.4253 0 2.1625.8226 3.3296 2.9851 3.4636zm2.5831 6.8889c2.1625-.134 2.9855-1.3011 2.9855-3.4636 0-2.2389-.7847-3.3297-2.9855-3.4253z"/><path d="m8.02957 96.5349v2.75h-.48289v-2.75h-.87627v-.4336h2.23564v.4336z"/><path d="m10.4492 99.2846v-3.1835h2.039v.4335h-1.5561v.9301h1.3234v.4293h-1.3234v.9571h1.5561v.4335z"/><path d="m15.9893 99.2846v-2.75h-.9167v1.006c0 1.3368-.3219 1.7438-.9613 1.7438h-.2011v-.4336h.0848c.3532 0 .6081-.2239.6081-1.3772v-1.3728h1.8689v3.1836h-.4827z"/><path d="m18.2397 99.2846v-3.1835h2.0388v.4335h-1.5559v.9301h1.3235v.4293h-1.3235v.9571h1.5559v.4335z"/><path d="m21.8813 99.2846v-3.1835h.4829v1.5112l1.1893-1.5112h.5945l-1.225 1.5022 1.3369 1.6811h-.6126l-1.2833-1.6632v1.6632h-.4827z"/><path d="m27.757 99.2846-.2234-.6396h-1.2565l-.2235.6396h-.5097l1.167-3.1835h.3889l1.1625 3.1835zm-.8405-2.4635-.5008 1.4129h.9882z"/><path d="m31.5318 99.2846v-1.3906h-1.2877v1.3906h-.4829v-3.1835h.4829v1.3636h1.2877v-1.3636h.4874v3.1835z"/><path d="m35.7268 99.2846-.2235-.6396h-1.2565l-.2234.6396h-.5097l1.1669-3.1835h.3891l1.1625 3.1835zm-.8406-2.4635-.5007 1.4129h.9881z"/><path d="m39.6363 99.2846v-2.75h-.9167v1.006c0 1.3368-.3219 1.7438-.9613 1.7438h-.2012v-.4336h.0851c.3532 0 .6079-.2239.6079-1.3772v-1.3728h1.8691v3.1836h-.4829z"/><path d="m45.0426 99.3113c-.3309 0-.6171-.1205-.8361-.3398-.313-.313-.3085-.6664-.3085-1.2787 0-.6126-.0045-.9658.3085-1.279.219-.2191.5052-.3398.8361-.3398.5856 0 1.0238.3442 1.1356.9789h-.4918c-.0759-.3219-.2907-.5452-.6438-.5452-.1878 0-.3577.0717-.4695.1923-.1565.1699-.1923.3529-.1923.9925 0 .6394.0358.8225.1923.9926.1118.1206.2817.192.4695.192.3531 0 .5722-.2235.6483-.5452h.4873c-.1073.6352-.559.9794-1.1356.9794z"/><path d="m49.9973 97.7377c0 .5233-.0045.9211-.3085 1.2341-.219.2235-.5052.3398-.8406.3398-.3308 0-.617-.1163-.8361-.3398-.304-.3087-.3085-.7423-.3085-1.2162v-.2101c0-.5231.0402-.8631.3085-1.1312.2191-.2191.5097-.3398.8361-.3398.3309 0 .6216.1205.8406.3398.2458.2504.3085.6036.3085 1.0553zm-.6749-1.0326c-.1252-.1297-.2907-.1969-.474-.1969-.1788 0-.3487.067-.4739.1969-.1789.1876-.1833.5006-.1833.9076v.2728c0 .3262.0134.6258.1833.7957.1297.1297.2906.1966.4739.1966.1878 0 .3532-.0667.474-.1966.1878-.1969.1878-.4785.1878-1.0196-.0003-.4829-.0092-.7691-.1878-.9565z"/><path d="m52.9552 99.2846h-1.2877v-3.1835h1.2386c.5811 0 .9613.34.9613.8584 0 .3221-.1476.5543-.4293.6932.313.1473.4784.3757.4784.7378 0 .5499-.3666.8941-.9613.8941zm-.0893-2.7497h-.7153v.9122h.7153c.3219 0 .5186-.1697.5186-.4559s-.1967-.4563-.5186-.4563zm.0402 1.3459h-.7557v.9703h.7557c.3219 0 .5231-.1882.5231-.4876 0-.2949-.2012-.4827-.5231-.4827z"/><path d="m55.5664 99.2846v-3.1835h2.039v.4335h-1.5559v.9301h1.3234v.4293h-1.3234v.9571h1.5559v.4335z"/><path d="m60.4226 96.5349v2.75h-.4829v-2.75h-.8762v-.4336h2.2356v.4336z"/><path d="m64.4204 99.2846-.2233-.6396h-1.2564l-.2237.6396h-.5095l1.167-3.1835h.3889l1.1624 3.1835zm-.8405-2.4635-.5006 1.4129h.9881z"/><path d="m69.5635 99.3069v-.3979c-.9345-.0399-1.3145-.505-1.3145-1.3368 0-.8227.4159-1.252 1.3145-1.2964v-.3088h.4829v.3088c.8988.0444 1.3147.4737 1.3147 1.2964 0 .8318-.3802 1.2969-1.3147 1.3368v.3979zm0-2.6156c-.6349.0223-.8316.3311-.8316.9033 0 .5632.2099.8809.8316.9075zm.4829 1.8108c.6218-.0266.8316-.3441.8316-.9075 0-.5722-.1967-.881-.8316-.9033z"/><path d="m72.9526 99.2846v-3.1835h2.039v.4335h-1.5561v.9301h1.3237v.4293h-1.3237v.9571h1.5561v.4335z"/><path d="m78.9321 96.1013v2.75h.3756v1.1487h-.474v-.7151h-1.9316v.7151h-.4695v-1.1487h.2775c.2771-.4293.3887-1.0553.3887-1.811v-.939zm-1.3683 1.1446c0 .6082-.0761 1.1582-.313 1.6054h1.1982v-2.3164h-.8852z"/><path d="m80.8618 99.2846v-3.1835h2.039v.4335h-1.5559v.9301h1.3235v.4293h-1.3235v.9571h1.5559v.4335z"/><path d="m85.704 98.0329h-.724v1.252h-.4829v-3.1836h1.2071c.6037 0 1.0194.3936 1.0194.9658s-.4159.9658-1.0196.9658zm-.0313-1.498h-.693v1.0644h.693c.3487 0 .5678-.206.5678-.5322 0-.3309-.2191-.5322-.5678-.5322z"/><path d="m89.9494 99.2846-.2235-.6396h-1.2562l-.2237.6396h-.5097l1.1672-3.1835h.3887l1.1627 3.1835zm-.8405-2.4635-.5008 1.4129h.9881z"/><path d="m94.1131 100v-.7151h-2.1595v-3.1836h.4829v2.75h1.2877v-2.75h.4829v2.75h.3757v1.1487z"/><path d="m98.0008 99.2846v-2.3115l-1.4261 2.3115h-.4385v-3.1835h.4829v2.3073l1.4221-2.3073h.4425v3.1835z"/><path d="m102.114 99.2846v-2.3115l-1.426 2.3115h-.438v-3.1835h.482v2.3073l1.422-2.3073h.443v3.1835z"/></g></svg>