<svg fill="none" height="80" viewBox="0 0 154 80" width="154" xmlns="http://www.w3.org/2000/svg"><g fill="#fff"><path d="m99.6658 29.8067c0-7.3351 0-14.68 0-22.02492 0-5.22282 2.3352-7.577443 7.4612-7.596823l38.255-.1065879c4.845 0 7.345 2.2868009 7.394 7.1995409.122 15.09029.187 30.17729.194 45.26119 0 4.4282-2.636 6.9379-7.161 6.967-12.985.0775-25.975.1324-38.973.1647-4.69 0-7.2187-2.4225-7.2574-7.1123-.0582-7.5775 0-15.1646 0-22.7518zm18.5362 9.1182h14.942c1.492 0 1.425-.969 1.425-1.938 0-3.3817 0-6.7829 0-10.1452v-6.1531h-16.367zm30.165 11.6278v-42.05387c-2.907 3.27517-5.504 6.03677-7.907 8.94367-.733.9001-1.16 2.0097-1.221 3.1686-.077 6.0465 0 12.0929.087 18.1394-.063.7855.119 1.5713.523 2.248 2.665 3.1686 5.485 6.2306 8.479 9.5735zm-3.178 3.8759c-3.111-3.469-5.766-6.5019-8.527-9.4282-.584-.5144-1.335-.7971-2.113-.7946-5.562-.0387-11.124-.0387-16.686 0-.698-.0362-1.386.1805-1.938.6105-2.819 3.0426-5.542 6.1821-8.536 9.5638zm-41.085-3.7887c3.149-3.5465 5.901-6.5794 8.566-9.6899.401-.5651.608-1.245.591-1.9379 0-6.2015 0-12.403 0-18.6045 0-.5523.067-1.2693-.243-1.6182-2.81-3.2267-5.697-6.3856-8.934-9.99019zm3.372-45.5422c3.052 3.41082 5.814 6.5309 8.633 9.5542.559.4123 1.245.6147 1.938.5717h16.192c.611 0 1.444 0 1.783-.407 2.907-3.0911 5.649-6.26932 8.721-9.68983z"/><path d="m25.364 41.9383c3.6337 3.3818 4.4089 10.9592 1.7539 14.8545-.5807.883-1.3761 1.604-2.3116 2.0955-.9356.4915-1.9806.7374-3.0372.7146-5.6492.0581-11.2983.0969-16.94749 0-2.78098 0-4.651115-1.8217-4.699564-4.845-.1485777-8.1976-.1614974-16.4113-.0387597-24.6412.0581387-3.4302 1.8410637-4.9321 5.2325037-5.0096 4.92241-.0775 9.85451-.1163 14.76731 0 5.1647.1356 7.6356 2.6356 7.9553 7.7518.2035 3.2946.3101 6.5504-2.6744 9.0794zm-18.25559 3.3624c0 2.2577.04845 4.2635 0 6.2499 0 1.376.5717 1.8701 1.87013 1.8508 3.06196 0 6.13366.0678 9.18596 0 2.5581-.0969 3.3139-1.1337 3.2945-4.0213-.0193-2.8876-.8139-3.9631-3.3042-4.0213-3.5658-.1163-7.1026-.0581-11.04639-.0581zm.13566-6.2887h10.94953c2.2577 0 2.6937-1.4341 2.7228-3.1686s.3101-4.1666-2.248-4.3604c-3.7403-.281-7.529-.0678-11.42433-.0678z"/><path d="m30.9258 41.7833c.2422-2.0833.3973-4.6705.8721-7.1899.9689-5.1162 4.0212-8.5948 9.2247-9.2441 4.226-.528 8.4995-.5572 12.7324-.0872 5.4263.6008 8.8662 4.1763 9.4476 9.5154.5426 5.0306.5426 10.105 0 15.1355-.5717 5.3101-3.9438 8.9341-9.3991 9.5639-4.1505.5188-8.3494.5188-12.4999 0-5.8914-.814-9.186-4.9031-9.8933-11.153-.2326-2.0155-.3004-4.031-.4845-6.5406zm25.959.3585c-.2519-2.0155-.3585-4.2054-.8333-6.3081-.6977-3.0329-2.7132-4.5542-6.2403-4.6414-3.8759-.1066-8.1103-1.0756-10.4359 3.498-.141.2905-.2482.5961-.3198.9109-1.1842 4.4671-1.1608 9.1687.0679 13.6239.8624 3.0716 2.8003 4.3313 6.6956 4.3894 3.7209.0582 7.8004.7752 9.8643-3.6918.2452-.5088.4149-1.0507.5039-1.6085.2519-1.9864.4554-3.9922.6976-6.1724z"/><path d="m126.148 80c-7.016 0-14.031 0-21.037 0-4.147 0-5.5521-1.3954-5.5715-5.4651 0-2.5775-.0581-5.1647 0-7.7518.0872-2.907 1.6865-4.5058 4.5545-4.5155h44.505c.59-.0481 1.183.0309 1.739.2315.557.2006 1.064.5183 1.487.9316.424.4132.754.9125.968 1.464.214.5516.307 1.1426.273 1.7333.116 2.8198.087 5.6395 0 8.4592-.068 3.3236-1.618 4.8449-4.951 4.8449-7.297.0873-14.632.0582-21.967.0679zm15.252-8.7209c-.098 1.039-.078 2.0856.058 3.1202.079.4086.239.7973.47 1.1434s.529.6425.877.872c4.554 1.938 8.304-.6104 8.246-5.5716 0-3.8759-1.599-5.2228-6.076-5.1938-3.304 0-3.595.407-3.595 4.9031zm-15.95-.1841c0-4.0503-1.415-5.5038-5.281-5.4844s-5.135 1.4728-5.135 5.6104c0 4.1375 1.414 5.5038 5.271 5.4941 3.856-.0097 5.164-1.5213 5.145-5.6201zm-17.626 2.1705c-1.87.4264-2.907.2132-2.984-1.812-.078-2.0251.63-2.8488 2.655-2.6162.713.1434 1.449.1202 2.151-.0678.514-.2035 1.192-.969 1.163-1.3663-.049-.6008-.611-1.5504-1.115-1.6667-5.813-1.3953-9.04 1.5989-8.042 7.3643.533 3.0523 3.343 4.3507 7.558 3.5174 1.773-.3488 2.568-2.2771 1.87-4.9902-.119-.291-.309-.5474-.552-.7456-.244-.1981-.534-.3316-.843-.3881-.692.1179-1.308.5046-1.715 1.0755-.281.3586-.117 1.095-.146 1.6957zm24.942.1938c0-2.2092.116-4.2053-.078-6.1821 0-.5814-.969-1.0852-1.492-1.6182-.513.533-1.337.969-1.482 1.6085-.157 1.114-.183 2.2424-.078 3.3624.068 6.4631-1.105 6.0949 6.647 5.9593.591 0 1.163-1.0369 1.745-1.5795-.621-.5232-1.173-1.2984-1.88-1.4825-1.13-.1603-2.276-.1831-3.411-.0679z"/><path d="m78.1834 36.5702c2.0252-3.0523 4.0697-5.8139 5.8139-8.8274 1.1918-2.0736 2.6065-3.1007 5.0193-2.6744 1.376.2423 2.7907.3585 4.186.5233-.5723 1.2647-1.2195 2.4943-1.938 3.6821-2.9069 4.2635-5.9011 8.4689-8.9824 12.8487 3.372 4.8449 6.7829 9.6026 10.0968 14.4282.4687.7939.8674 1.6272 1.1918 2.4902-.8817.2035-1.7635.4167-2.655.6008-3.5852.7461-5.8139-.7655-7.4805-3.9631-1.6008-2.7537-3.3441-5.4221-5.2228-7.9941-2.0349 3.0716-4.0892 5.8139-5.7558 8.7983-1.3953 2.4806-3.1201 3.7306-5.9883 3.1686-1.1919-.2326-2.4031-.4264-3.6046-.6395.4734-1.0699 1.0139-2.1087 1.6182-3.1105 3.1685-4.5736 6.3953-9.1084 9.6898-13.7595-3.4108-4.8449-6.7829-9.6898-10.1453-14.5348-.3354-.6159-.605-1.2655-.8042-1.9379.702-.2563 1.4168-.4762 2.1414-.6589 3.876-.7752 6.4728.7461 8.2267 4.3507 1.1434 2.5194 2.9457 4.6705 4.593 7.2092z"/><path d="m13.6008 15.7758c1.6376-4.5154 3.0039-8.61421 4.6608-12.59673.542-1.28837 1.5485-2.325955 2.8198-2.906947 2.8197-.968983 4.9224.736427 4.9418 3.740277.0484 5.31971-.0582 10.6588.0581 15.9688 0 2.0155-.969 2.1802-2.5484 2.1802s-2.8197-.1066-2.7325-2.2771c.1353-3.404.035-6.8132-.3004-10.20336-1.124 3.12986-2.2771 6.24996-3.3624 9.38946-.6104 1.7732-1.3953 3.3333-3.5852 3.3333s-2.907-1.6085-3.5465-3.3624c-1.05754-3.2008-2.32647-6.3278-3.79841-9.36036 0 3.43986-.0969 6.88946 0 10.31966.07752 2.093-1.08526 2.093-2.59687 2.1221-1.51161.029-2.58718-.1744-2.53873-2.1802.10658-5.3197 0-10.65884 0-15.95917 0-1.98642.62014-3.498031 2.80036-3.875934 2.18021-.377903 4.01158.261625 4.84491 2.548424 1.24998 3.40113 2.46124 6.78288 3.70154 10.21308.3682.8624.6976 1.657 1.1821 2.9069z"/><path d="m55.9935 22.1325c-1.4535 0-2.907 0-4.3508 0-1.6472.0581-2.9069.0969-2.9069-2.3062s1.2694-2.4903 3.0329-2.3934c2.3353.0678 4.6802.0872 7.0058 0 .7588-.1957 1.4771-.5238 2.122-.969-.5717-.6492-1.0271-1.5891-1.7538-1.9379-2.064-.8721-4.2442-1.4729-6.3662-2.219-3.4787-1.2112-4.7384-3.7209-4.031-7.93597.4845-2.90695 2.2286-4.089108 5.8139-4.098798 2.8197 0 5.6492.096899 8.4592 0 1.938-.087208 2.2384.843018 2.2674 2.480598 0 1.78293-.5426 2.48059-2.3643 2.38369-2.3352-.11627-4.6802-.09689-7.0057 0-.7681.16948-1.5019.46761-2.1706.88178.6105.62984 1.1047 1.53099 1.8411 1.83137 2.0736.87209 4.2635 1.45348 6.3759 2.22863.9635.3735 1.8289.9622 2.5302 1.7212.7013.7589 1.2199 1.6681 1.5163 2.6581.2963.9899.3625 2.0345.1936 3.054-.169 1.0194-.5686 1.9868-1.1684 2.8283-.9415.9395-2.1686 1.5394-3.4884 1.7054-1.8463.1633-3.7024.1859-5.5522.0678z"/><path d="m28.804 8.65387c0-2.18021.0679-4.36042 0-6.53094-.0872-2.005791 1.1919-1.937963 2.5485-1.937963 1.3565 0 2.5484-.135657 2.5484 1.908893-.0969 3.87593-.0678 7.75186 0 11.62784 0 2.9747 1.3275 4.0987 4.2151 3.934 2.2286-.1259 3.4108-1.1821 3.3914-3.498 0-3.8759.0678-7.75187 0-11.6278-.0484-1.831372.6589-2.393382 2.4225-2.325553 1.5697.058139 2.9069 0 2.8197 2.209283-.1066 4.03096.0775 8.06197-.0872 12.09287-.2229 5.5717-3.217 8.0329-9.3022 7.9166-5.717-.1066-8.4302-2.7131-8.5174-8.2073-.0678-1.8507-.0388-3.7112-.0388-5.56193z"/><path d="m86.6617 22.1324c-8.7209 0-11.3662-2.6938-11.1724-11.434.0279-1.30198.1706-2.59898.4263-3.87591.8043-4.06973 3.3818-6.375909 7.4903-6.589085 2.4127-.125968 4.8449 0 7.248-.058139 1.812-.067829 1.9379.968984 1.8798 2.325554-.0581 1.35658 0 2.62595-1.938 2.51936-1.9379-.10659-3.8759 0-5.8139 0-1.9379 0-3.4689.96898-3.6918 3.06198-.2227 2.07284-.2519 4.16194-.0872 6.24024.0183.4088.1185.8098.2949 1.179.1763.3693.4251.6994.7315.9705.3065.2712.6643.478 1.0523.6081.388.1302.7982.1809 1.2062.1494 2.1705.0775 4.3507.1841 6.5212.1065 1.8605-.0581 2.0639.9206 2.0833 2.4322s-.3004 2.5097-2.1124 2.3837c-1.3662-.1066-2.7422-.0194-4.1181-.0194z"/><path d="m68.1641 11.2119c0-2.98448.0775-5.96894 0-8.95341-.0969-1.889515.9109-2.083311 2.4031-2.044552s2.7616-.1356578 2.7325 2.005792c-.0678 5.96893-.0775 11.93787 0 17.90677 0 2.1512-1.2596 2.0058-2.6937 2.0252s-2.5582 0-2.4806-1.9864c.1259-2.9748.0387-5.9689.0387-8.9534z"/><path d="m144.849 69.0504c2.151-.562 2.907.1841 2.907 2.2675 0 2.0833-1.095 2.403-2.907 1.9379z"/><path d="m117.166 71.124c1.463-1.1821 2.16-2.1802 3.023-2.3546 1.812-.3682 1.938 1.0853 1.938 2.4418 0 1.3566-.184 2.6647-1.851 2.3256-.872-.1841-1.609-1.2112-3.11-2.4128z"/></g></svg>