<svg fill="none" height="100" viewBox="0 0 114 100" width="114" xmlns="http://www.w3.org/2000/svg"><g fill="#fff"><path d="m56.5201.00011306c-19.7828 0-35.8204 16.03758694-35.8204 35.83088694 0 19.7828 16.0376 35.8204 35.8204 35.8204s35.8204-16.0376 35.8204-35.8204c0-19.7933-16.0376-35.83088694-35.8204-35.83088694z"/><path d="m24.8465 86.1374h-.0523v7.9195c0 .9729-.3453 1.8621-.973 2.5003-.5963.6277-1.4018.9729-2.2597.9729-.8578 0-1.6633-.3452-2.2597-.9729-.6277-.6382-.9624-1.5274-.9624-2.5003v-7.9195h-2.584v7.9195c0 1.7261.5649 3.2221 1.6529 4.3101 1.0566 1.0566 2.5317 1.632 4.1532 1.632 1.6216 0 3.0967-.5754 4.1533-1.632 1.088-1.088 1.6634-2.584 1.6634-4.3101v-7.9195h-.0523"/><path d="m46.7565 96.2548c-.7846.8264-1.8935 1.2763-3.1175 1.2763-1.2345 0-2.3434-.4499-3.128-1.2763-.7951-.8265-1.224-2.0087-1.224-3.3164s.4289-2.5003 1.224-3.3267c.7846-.8265 1.8935-1.2763 3.128-1.2763 1.224 0 2.3329.4498 3.1175 1.2763.7951.8264 1.224 2.019 1.224 3.3267s-.4289 2.4899-1.224 3.3164zm1.8099-8.4321c-1.3077-1.2658-3.0757-1.9667-4.9274-1.9667-1.8726 0-3.6302.7009-4.9379 1.9667-1.3704 1.3182-2.1132 3.128-2.1132 5.1157 0 1.9773.7428 3.7871 2.1132 5.1053 1.3077 1.2658 3.0653 1.9563 4.9379 1.9563 1.8517 0 3.6197-.6905 4.9274-1.9563 1.3704-1.3182 2.1132-3.128 2.1132-5.1053 0-1.9877-.7428-3.7975-2.1132-5.1157z"/><path d="m58.4568 85.856c-1.6216 0-3.0967.5754-4.1533 1.6425-1.0775 1.088-1.6634 2.584-1.6634 4.3101v7.9194h2.584v-7.9194c0-.9729.3453-1.8621.9625-2.5108.6068-.6276 1.4123-.9624 2.2702-.9624.8578 0 1.6634.3348 2.2597.9624.6277.6487.9729 1.5379.9729 2.5108v7.9194h2.584v-7.9194c0-1.7261-.5754-3.2221-1.6634-4.3101-1.0566-1.0671-2.5317-1.6425-4.1532-1.6425z"/><path d="m97.1861 86.1374h-.0523v8.6518c0 1.6634-.9311 2.7409-2.3643 2.7409-1.7157 0-2.584-1.0566-2.584-3.1385v-8.2542h-2.584v8.2542c0 2.0819-.8684 3.1385-2.5841 3.1385-1.4332 0-2.3538-1.0775-2.3538-2.7409v-8.6518h-2.584v9.2062c0 2.6154 2.1446 4.6554 4.8855 4.6554 1.653 0 3.0757-.68 3.9336-1.8621.8578 1.1821 2.2806 1.8621 3.9335 1.8621 2.7305 0 4.8856-2.04 4.8856-4.6554v-9.2062h-.0523"/><path d="m107.604 91.4999c-1.653-.4603-3.076-.8578-3.076-1.768.052-.7637.304-1.1299 1.548-1.1299h6.288v-2.4689h-5.869c-3.003 0-4.666 1.3182-4.666 3.7139 0 1.2135.575 2.1655 1.758 2.8978 1.014.6277 2.353 1.0148 3.536 1.36 1.726.4917 3.222.9207 3.222 1.9145 0 .8578-.481 1.2345-1.548 1.2345h-6.968v2.4794h6.968c1.234 0 2.28-.3244 3.023-.9416.795-.6591 1.224-1.6634 1.224-2.8769 0-2.8979-3.013-3.7348-5.44-4.4148z"/><path d="m29.6265 91.2876v8.3274h2.4061v-8.3274c0-1.5379.4708-3.2954 4.1533-3.2954h.0627v-2.4062h-.0627c-5.7016 0-6.5594 3.5779-6.5594 5.7016z"/><path d="m11.2361 94.9763-.0523-.0209-.0209.0523c-.3766.7009-.9311 1.3181-1.63202 1.7575-2.176 1.3809-5.07386.7219-6.44432-1.4541-.66954-1.0462-.88923-2.3016-.60677-3.5151.272-1.224 1.00431-2.2597 2.05047-2.9293 1.55877-.9729 3.536-.952 5.06339.0523l-4.12185 3.3896-.05231.0314.04184.0418 1.41232 1.7576.03138.0523.04185-.0419 6.05722-4.9692.0314-.0314-.0209-.0419-.0419-.0523c-1.0043-1.5797-2.563-2.6781-4.40428-3.0861-1.83078-.4185-3.71386-.0942-5.29355.9101-1.5797.9939-2.688625 2.5527-3.096626 4.3834-.418463 1.8413-.0941541 3.7243.910156 5.3145 2.07139 3.2745 6.4234 4.2581 9.6979 2.1865 1.0357-.6591 1.8831-1.5693 2.4584-2.6573l.0314-.0523-.0523-.0314"/><path d="m77.3931 94.9763-.0523-.0209-.0314.0523c-.3661.7009-.9311 1.3181-1.6215 1.7575-2.176 1.3809-5.0739.7219-6.4548-1.4541-.6591-1.0462-.8788-2.3016-.6068-3.5256.2825-1.2135 1.0148-2.2492 2.0609-2.9188 1.5483-.9729 3.5256-.952 5.0634.0523l-4.1323 3.3896-.0418.0314.0418.0418 1.4123 1.7576.0314.0523.0523-.0419 6.0363-4.9692.0523-.0314-.0418-.0419-.0314-.0523c-2.0714-3.2744-6.4234-4.2474-9.6979-2.176-1.5901.9939-2.6886 2.5527-3.0966 4.3834-.4184 1.8413-.0941 3.7243.8997 5.3145 2.0819 3.2745 6.4339 4.2581 9.7084 2.1865 1.0356-.6591 1.883-1.5693 2.4584-2.6573l.0314-.0523-.0523-.0314"/></g></svg>