<svg fill="none" height="41" viewBox="0 0 143 41" width="143" xmlns="http://www.w3.org/2000/svg"><path d="m77.4798 26.4979c0 4.4553-5.5113 4.1909-5.5113 4.1909h-5.5112v-8.0505h5.5112c5.6718-.0383 5.5113 3.8596 5.5113 3.8596zm-11.0225-16.1372h4.1996c4.3609.2318 4.1963 3.498 4.1963 3.498 0 4.0589-4.8221 4.1251-4.8221 4.1251h-3.5738zm10.0031 9.2062s3.7723-1.6171 3.7387-5.9062c0 0 .5737-7.02922-8.6842-7.88658h-10.2729v29.46818h11.7752s9.8387.0295 9.8387-8.3146c-.0001 0 .2325-5.6783-6.3955-7.3608zm-26.5859-19.5669h43.2508v41h-43.2508zm-22.2696 26.4979c0 4.4553-5.5114 4.1909-5.5114 4.1909h-5.5116v-8.0505h5.5116c5.6722-.0383 5.5114 3.8596 5.5114 3.8596zm-11.023-16.1372h4.2004c4.3611.2318 4.1961 3.498 4.1961 3.498 0 4.0589-4.8218 4.1251-4.8218 4.1251h-3.5747zm10.0039 9.2062s3.773-1.6171 3.7391-5.9062c0 0 .5733-7.02922-8.6847-7.88658h-10.2733v29.46818h11.7759s9.8386.0295 9.8386-8.3146c0 0 .2318-5.6783-6.3956-7.3608zm-26.5858-19.5669h43.2508v41h-43.2508zm134.177 7.88674v5.44426s-5.283-3.2657-11.12-3.33149c0 0-10.891-.21505-11.382 10.50199 0 0-.394 9.8558 11.251 10.4174 0 0 4.885.592 11.513-3.6597v5.6383s-8.891 5.3138-19.19 1.221c0 0-8.658-3.1804-8.988-13.617 0 0-.36-10.73416 11.187-14.2974 0 0 3.084-1.18751 8.625-.65972 0-.00014 3.312.32943 8.104 2.34236zm-34.4278 33.11326h43.2508v-41h-43.2508z" fill="#fff"/></svg>