<svg width="160" height="44" viewBox="0 0 160 44" fill="none" xmlns="http://www.w3.org/2000/svg">
<path d="M160 35.5807C160 39.8972 156.501 43.3964 152.184 43.3964C147.868 43.3964 144.369 39.8972 144.369 35.5807C144.369 31.2641 147.868 27.7649 152.184 27.7649C156.501 27.7649 160 31.2641 160 35.5807Z" fill="#F72D17"/>
<path fill-rule="evenodd" clip-rule="evenodd" d="M57.683 5.8226e-06L45.1791 20.1801V5.8226e-06H31.7542L22.6535 12.0262L13.4335 0.0511807V0H13.3908H0V42.6545H13.4335V19.9157L22.6536 31.8821L31.7542 20.0692V42.6545H45.5118L51.0984 33.6306H65.2825V42.6545H78.716V12.12H85.8549V42.6545H99.2884V12.12H106.052V29.784V33.6818H126.624V42.6545H140.058V0H126.624V21.5618H119.486V0L57.683 5.8226e-06ZM145.542 0V26.0908L158.976 17.9966V0H145.542ZM65.2825 21.5191V10.7382L58.6041 21.5191H65.2825Z" fill="#F72D17"/>
<path d="M148.707 32.1211V33.0593H149.875V38.9871H150.916V33.0593H152.084V32.1211H148.707Z" fill="white"/>
<path fill-rule="evenodd" clip-rule="evenodd" d="M152.604 32.1211V38.9445H155.573L155.854 38.663V36.0189L155.3 35.4645L155.854 34.9101V32.394L155.581 32.1211H152.604ZM153.645 33.0593H154.805V34.6799L154.498 34.9955H153.645V33.0593ZM154.498 35.9337H153.645V38.0063H154.805V36.2407L154.498 35.9337Z" fill="white"/>
</svg>
