<svg width="131" height="100" viewBox="0 0 131 100" fill="none" xmlns="http://www.w3.org/2000/svg">
<path d="M41.6577 53.1251V87.8394L47.512 83.4267V59.0393L41.6577 53.1251Z" fill="white"/>
<path d="M54.2349 61.2312L61.8582 59.4901L64.937 56.9663V52.3899L54.2349 61.2312Z" fill="white"/>
<path d="M53.2779 6.02558L42.5078 1.06184L52.2436 11.9717L55.9295 8.33374L53.2779 6.02558Z" fill="white"/>
<path d="M0 90.3948H3.38237L4.48453 95.9136H4.5045L5.60667 90.3948H8.98904V99.7792H6.74078V93.7572H6.71682L5.37905 99.7792H3.60999L2.26822 93.7572H2.24826V99.7792H0V90.3948Z" fill="white"/>
<path d="M16.8575 96.1482C16.8575 98.7519 15.6994 99.9978 13.3473 99.9978C10.9952 99.9978 9.8252 98.7519 9.8252 96.1482V90.3938H12.2012V95.5093C12.2012 96.4677 12.2012 97.6617 13.3553 97.6617C14.4854 97.6617 14.4854 96.4677 14.4854 95.5093V90.3938H16.8575V96.1482Z" fill="white"/>
<path d="M19.9224 96.6215C19.9224 96.8571 19.9544 97.0688 20.0103 97.2405C20.182 97.8035 20.7011 97.9233 21.1444 97.9233C21.5318 97.9233 22.1268 97.7676 22.1268 97.0688C22.1268 96.5856 21.7953 96.4538 20.4615 95.9945C19.2436 95.5713 17.8459 95.1639 17.8459 93.2711C17.8459 91.1067 19.3753 90.1722 20.9607 90.1722C22.6339 90.1722 24.1155 90.9469 24.1793 93.2351H21.9351C21.975 92.8797 21.8472 92.6441 21.6516 92.4804C21.4559 92.3167 21.1843 92.2488 20.9487 92.2488C20.6253 92.2488 20.0941 92.3526 20.0941 92.8797C20.1381 93.5466 21.2402 93.6904 22.3304 94.0618C23.4246 94.4292 24.5028 95.0481 24.5028 96.7653C24.5028 99.2132 22.6579 99.9999 20.9407 99.9999C20.0622 99.9999 17.5664 99.6165 17.5464 96.6215H19.9224Z" fill="white"/>
<path d="M25.2661 90.3964H27.6422V99.7807H25.2661V90.3964Z" fill="white"/>
<path d="M33.6482 93.89C33.6042 93.5466 33.3886 92.5083 32.4022 92.5083C31.2921 92.5083 30.9367 93.8262 30.9367 95.0881C30.9367 96.346 31.2921 97.6638 32.4022 97.6638C33.2049 97.6638 33.5204 96.9769 33.6601 96.0984H35.9923C35.9923 97.9912 34.7304 99.9999 32.4701 99.9999C29.9743 99.9999 28.5566 97.8594 28.5566 95.0881C28.5566 92.133 30.0941 90.1722 32.4701 90.1722C34.5906 90.1842 35.7527 91.538 35.9603 93.89H33.6482Z" fill="white"/>
<path d="M42.1545 92.7983H39.9941V90.3943H46.691V92.7983H44.5306V99.7787H42.1545V92.7983Z" fill="white"/>
<path d="M47.3818 90.3948H53.7632V92.7988H49.7579V93.9728H53.3958V96.2011H49.7579V97.3752H53.887V99.7792H47.3818V90.3948Z" fill="white"/>
<path d="M54.6138 90.3948H56.9858V97.3752H60.4041V99.7792H54.6138V90.3948Z" fill="white"/>
<path d="M60.9937 90.3948H67.375V92.7988H63.3697V93.9728H67.0116V96.2011H63.3697V97.3752H67.4948V99.7792H60.9937V90.3948Z" fill="white"/>
<path d="M73.0847 99.778H70.4292L68.125 90.3936H70.525L71.7909 96.0841H71.8069L73.0568 90.3936H75.4927L73.0847 99.778Z" fill="white"/>
<path d="M76.3853 90.3964H78.7653V99.7807H76.3853V90.3964Z" fill="white"/>
<path d="M82.0675 96.6215C82.0675 96.8571 82.0994 97.0688 82.1553 97.2405C82.327 97.8035 82.8462 97.9233 83.2894 97.9233C83.6768 97.9233 84.2718 97.7676 84.2718 97.0688C84.2718 96.5856 83.9323 96.4538 82.6066 95.9945C81.3886 95.5713 79.9909 95.1639 79.9909 93.2711C79.9909 91.1067 81.5164 90.1722 83.1057 90.1722C84.7789 90.1722 86.2565 90.9469 86.3204 93.2351H84.0761C84.12 92.8797 83.9883 92.6441 83.7926 92.4804C83.6009 92.3167 83.3294 92.2488 83.0937 92.2488C82.7703 92.2488 82.2392 92.3526 82.2392 92.8797C82.2831 93.5466 83.3853 93.6904 84.4754 94.0618C85.5696 94.4292 86.6478 95.0481 86.6478 96.7653C86.6478 99.2132 84.7989 99.9999 83.0858 99.9999C82.2072 99.9999 79.7114 99.6165 79.6914 96.6215H82.0675Z" fill="white"/>
<path d="M87.4106 90.3964H89.7867V99.7807H87.4106V90.3964Z" fill="white"/>
<path d="M94.5047 90.1719C96.8528 90.1719 98.4182 92.2245 98.4182 95.0877C98.4182 97.9509 96.8528 99.9995 94.5047 99.9995C92.1646 99.9995 90.5952 97.9509 90.5952 95.0877C90.5952 92.2245 92.1646 90.1719 94.5047 90.1719ZM94.5047 97.6634C95.1117 97.6634 96.0421 97.1762 96.0421 95.0877C96.0421 92.9992 95.1117 92.508 94.5047 92.508C93.9017 92.508 92.9713 92.9992 92.9713 95.0877C92.9713 97.1762 93.9017 97.6634 94.5047 97.6634Z" fill="white"/>
<path d="M99.3013 90.3948H101.733L103.977 95.4144H104.001V90.3948H106.246V99.7792H103.938L101.569 94.6557H101.55V99.7792H99.3013V90.3948Z" fill="white"/>
<path d="M127.715 11.6285C126.732 10.9577 124.971 10.6222 123.23 10.774C121.573 10.9137 120.471 11.7244 119.564 12.4751C119.576 12.4671 117.204 14.8152 117.204 14.8152L116.569 15.8295C116.561 15.8415 114.453 18.4771 114.453 18.4771C114.453 18.4771 114.433 18.5011 114.429 18.5051V3.88942L107.959 -0.000106321L107.963 26.5477L107.88 26.6755L106.33 28.4965V-0.000106321H66.3407L52.1164 14.1523L39.4814 -0.000106321H0.0390625V87.7418H40.1523V49.0902L51.9606 61.2699L66.4605 48.9105V87.7418H106.338L106.334 50.7155C106.646 50.1843 106.901 49.7611 106.901 49.7611C106.905 49.7491 107.241 49.2659 107.241 49.2659C107.261 49.2419 107.6 48.6988 107.971 48.1078L107.975 87.7418L114.429 83.2852V36.5351C114.712 36.1118 115.135 35.4808 115.135 35.4808C115.195 35.381 116.13 33.9833 116.13 33.9833C116.13 33.9793 117.615 31.799 117.615 31.799C117.631 31.763 118.182 31.0642 118.182 31.0642L119.556 29.1194C119.828 28.4925 120.602 28.0772 120.898 27.9214L121.038 27.8455L121.225 27.7098L121.94 26.987C121.952 26.971 123.182 25.9327 123.182 25.9327L125.283 24.9544L127.243 23.8761C127.251 23.8721 129.04 21.6678 129.04 21.6678L129.995 18.7048C129.999 18.7008 130.274 15.8335 130.274 15.8335C130.214 14.376 129.112 12.571 127.715 11.6285ZM79.6625 35.4928C79.7064 35.7723 79.8582 38.368 79.8502 38.7953C79.8422 40.0812 79.9301 41.4988 79.8901 42.0699C79.8582 42.5051 79.9181 44.0066 79.9181 44.0066C80.0259 45.1927 80.2815 46.4905 80.3054 46.7221C80.3574 47.3291 80.1297 49.6333 80.1976 50.1564C80.2056 50.2642 80.3933 51.2266 80.3534 51.4542C80.2495 52.0532 80.4252 52.776 80.4053 53.0476C80.3733 53.5228 80.3534 54.0659 80.3374 54.6449C80.3054 55.5035 80.2775 56.39 80.1976 57.1647C80.1737 57.3604 80.2016 58.7141 80.2016 58.7141C80.0459 60.0759 79.8782 61.4815 80.1098 62.8912C80.1537 63.1747 80.0978 64.1052 80.1218 64.2689C80.1577 64.4805 80.4572 65.5747 80.5011 65.8143C80.565 66.1737 80.7008 67.839 80.8805 68.2223C81.0562 68.6097 81.771 70.3068 81.8349 70.5105C82.0465 71.1534 82.37 72.7029 82.0785 73.4935C81.8029 74.2403 81.3876 76.0173 81.0961 76.4606C80.8445 76.848 80.4652 77.0756 80.2855 77.3551C80.1138 77.6147 79.7743 77.8543 79.4908 77.9661C78.6123 78.3095 77.0549 78.5491 75.7051 78.1378C75.158 77.9741 74.3314 78.026 73.4009 77.4629C72.6422 77.0037 72.3826 75.7458 72.2748 75.0709C72.2229 74.7554 72.3147 73.9128 72.2948 73.7811C72.2708 73.5894 71.9833 72.3435 71.9833 71.9441C71.9793 71.7445 72.0512 70.9019 71.9593 70.3468C71.8435 69.632 71.4961 68.4699 71.4961 68.4699C71.4003 67.9947 71.1447 66.9644 71.1327 66.9325C70.8572 66.1617 70.7214 65.411 70.6415 64.7721C70.4938 63.598 70.7853 62.6196 71.0449 61.7531C71.1926 61.2539 71.3324 60.7867 71.3923 60.3155C71.4322 59.976 71.1687 58.3667 71.2206 57.8276C71.2365 57.608 71.4162 56.9092 71.4242 56.8173C71.4921 56.3621 71.5081 55.1481 71.5121 54.9604C71.5161 54.7168 71.6798 53.6945 71.6598 52.6363C71.6519 52.221 71.6079 51.7897 71.6598 51.3544C71.7118 50.8912 71.7517 49.7091 71.6638 49.1621C71.5241 48.3274 71.58 47.5807 71.576 47.5447C71.5161 46.6702 71.4642 45.7517 71.5161 44.969C71.5241 44.8452 71.3723 43.5194 71.3683 43.1081C71.3603 42.8486 71.3444 41.2233 71.3284 41.0316C70.981 36.9863 70.4339 36.2116 70.2142 36.0639C69.9946 35.9201 69.3996 35.9281 69.0602 36.0878C68.8006 36.2076 68.1257 36.7946 67.5547 37.1021C66.9956 37.3976 65.9533 37.8928 65.5979 38.1564C65.1866 38.4679 64.5117 38.991 63.1979 39.7098C62.8665 39.8895 62.6149 40.197 62.3154 40.4685C61.8801 40.8519 61.0655 41.6745 59.7477 42.3414C59.1007 42.6649 58.5257 43.0442 58.0625 43.4955C57.8708 43.6872 57.164 44.8692 56.7087 45.3125C56.2655 45.7358 55.9859 46.3308 55.9061 46.5145C55.6744 47.0096 55.4229 47.5647 54.9357 47.9281C54.1809 48.4912 52.5357 48.595 51.5413 48.1797C50.9064 47.9161 49.6405 47.0655 49.0894 45.592C48.5343 44.1224 48.9976 42.2376 50.0957 41.0156C50.8185 40.2129 51.9447 39.8895 53.0388 39.582C53.7137 39.3903 54.3566 39.2066 54.8518 38.9311C55.0954 38.7953 55.8741 38.2123 56.0378 38.1045C56.2854 37.9407 57.168 37.5134 57.3397 37.4016C57.4994 37.2938 58.4299 36.4832 59.0528 36.1317C60.0831 35.5567 60.9017 35.0935 61.3849 34.79C61.3849 34.79 62.8026 33.9913 63.7211 33.1208C63.9287 32.9211 64.8112 32.5936 65.7776 32.0465C66.0212 31.9068 67.0315 31.5673 67.2871 31.4555C67.4628 31.3717 68.1657 30.8565 68.3733 30.7487C69.2798 30.2775 69.735 29.7144 69.4795 28.3128C69.3876 27.8256 69.2399 27.3304 69.2918 26.7434C69.3077 26.5996 69.5154 25.7171 69.8509 25.1101C70.0186 24.7986 70.2821 24.8066 70.4299 24.5191C70.5776 24.2236 71.0968 23.976 71.4402 23.8881C71.6798 23.6565 72.175 23.4089 72.754 23.3091C74.0239 23.0974 75.6572 24.0279 75.8928 24.0758C76.34 24.1756 77.0988 24.1078 77.4981 23.992C77.578 23.976 78.0971 23.6365 78.2888 23.5647C78.5444 23.4688 79.363 23.2452 79.5307 23.1853C79.7823 23.0974 80.9484 22.4865 81.2439 22.3746C81.5474 22.2588 82.2502 22.1311 82.5976 22.0512C83.1527 21.6558 84.195 21.3164 84.5943 20.973C85.0456 20.5776 85.6565 19.6312 85.7843 19.4635C86.0199 19.152 87.17 18.3773 87.3337 18.2535C87.7091 17.958 88.5677 17.355 89.1507 17.1873C89.4303 17.1074 90.2489 17.2751 90.7481 17.2711C91.3071 17.2711 92.0898 17.3031 92.6809 18.1976C92.9764 18.6489 93.4715 19.1081 93.5993 19.731C93.9827 21.6758 92.5291 23.6046 91.4269 24.2915C91.3151 24.3593 90.78 24.5151 90.4525 24.6229C89.9933 24.7746 89.5261 25.1101 89.2146 25.194C88.5956 25.3577 88.2921 25.789 88.0366 25.9247C87.785 26.0565 86.9304 26.5836 86.6549 26.7354C86.4432 26.8472 86.0958 27.3424 85.4688 27.5261C85.0456 27.6539 84.163 27.9054 83.4602 28.5244C83.1687 28.78 81.9827 29.0236 81.6432 29.0995C81.5154 29.1314 80.002 29.7703 79.8502 30.6569C79.6905 31.5873 79.8223 31.8349 79.6465 33.1687C79.5387 33.9993 79.5946 34.9777 79.6625 35.4928ZM128.968 18.4891C128.853 19.0322 128.549 20.374 128.118 21.1607C127.93 21.5081 127.183 22.6103 126.616 23.0335C126.065 23.4409 125.267 23.8442 124.931 23.964C124.62 24.0758 123.094 24.7866 122.683 25.0063C121.944 25.4056 121.549 25.8529 121.161 26.2801C120.962 26.5038 120.766 26.7114 120.53 26.9191C120.439 26.9989 119.085 27.554 118.594 28.7001C118.294 29.395 116.944 30.8366 116.717 31.2519C116.381 31.8509 115.886 32.7534 115.391 33.2366C115.243 33.3803 115.084 33.6 114.916 33.8555C114.76 34.0871 114.6 34.3467 114.429 34.6302C114.381 34.7061 114.341 34.77 114.293 34.8459C113.973 35.373 113.614 35.972 113.406 36.1916C112.891 36.7467 112.592 37.4655 112.348 38.0525C112.252 38.2802 111.406 39.4902 111.086 40.3327C110.946 40.7121 110.212 41.9421 110.132 42.1298C109.976 42.5251 109.03 43.4436 108.938 43.6233C108.802 43.8988 108.678 44.2742 108.55 44.6655C108.439 45.0209 108.147 45.7198 108.047 45.9913C107.923 46.195 107.764 46.4546 107.596 46.7301C107.588 46.7421 107.584 46.7501 107.576 46.7581C107.452 46.9617 107.328 47.1654 107.197 47.377C106.901 47.8562 106.602 48.3274 106.406 48.6309C106.274 48.7987 106.142 48.9943 106.027 49.17C105.839 49.4456 104.465 51.7897 104.15 52.3487C104.01 52.6043 103.838 52.8599 103.663 53.1274C103.243 53.7544 102.812 54.3973 102.604 55.192C102.473 55.6872 102.093 56.5058 102.065 56.5777C101.526 57.9035 101.318 59.3291 101.263 59.7325C101.179 60.3914 101.199 61.0582 101.227 61.6972C101.255 62.388 101.279 63.0429 101.167 63.622C100.959 64.6962 100.54 65.7544 99.9847 66.601C99.8369 66.8326 99.3138 67.5474 98.6948 68.1225C98.2436 68.5418 97.5048 68.7135 96.1511 68.7255C94.3181 68.7335 93.5314 68.0546 92.557 66.621C92.3973 66.3894 92.0858 65.7864 91.7065 64.9757C91.2193 63.9414 90.8199 62.995 90.4725 61.7491C90.3647 61.3737 90.213 60.9584 90.0732 60.5551C89.9135 60.1158 89.57 58.8779 89.5421 58.6742C89.5101 58.4706 89.0788 57.029 89.0509 56.8892C88.8832 56.0067 88.6516 55.188 88.4239 54.3973C88.1923 53.5827 87.9727 52.812 87.8369 52.0173C87.7051 51.2546 87.2978 50.0206 86.9983 49.1261C86.9983 49.1261 86.4233 47.3011 86.2396 46.6502C85.988 45.7677 85.1654 43.3318 85.1654 43.3318C84.8579 42.5011 84.1311 40.5524 84.0792 40.2409C83.6479 37.7091 83.6519 35.6685 84.1071 34.778C84.3108 34.3707 85.0096 33.9833 85.5727 33.6718C85.7604 33.564 86.6868 32.965 86.8865 32.9131C87.4615 32.7574 88.4239 32.7094 89.2346 32.7933C89.3424 32.8053 90.3367 32.8133 90.6961 33.0688C92.0339 33.9993 92.1298 35.2013 92.3055 37.3857C92.3055 37.3857 92.5371 39.7337 92.6489 40.6163C92.7288 41.2672 92.8166 41.9421 92.8845 42.609C92.9284 43.0682 92.9524 43.5714 92.9724 44.0546C93.0083 44.9291 93.3078 46.5983 93.3078 46.5983C93.6073 47.6006 93.8948 48.5551 95.0689 49.0502C95.3883 49.182 95.7517 49.1581 96.0952 48.9664C96.8978 48.5391 97.6286 47.2373 97.9081 45.7358C97.9241 45.6519 98.0439 45.4802 98.1597 45.3125C98.4393 44.9251 98.8186 44.39 99.0143 43.5115C99.0742 43.2918 99.6133 42.5491 99.9328 42.1058C100.26 41.6545 100.564 41.2313 100.743 40.9118C100.803 40.804 102.137 38.7234 102.137 38.7234C102.137 38.7234 102.652 37.5773 102.872 37.15C103.092 36.7148 103.283 36.1956 103.303 36.1078C103.411 35.6605 103.631 34.7221 104.07 34.203C104.669 33.4961 105.32 31.9068 105.352 31.8389C105.496 31.5673 105.887 30.8925 106.25 30.2975C106.27 30.2735 106.306 30.2216 106.33 30.1896V30.1856C106.338 30.1776 106.35 30.1617 106.358 30.1537C106.518 29.942 106.725 29.6625 106.885 29.4708L108.035 28.1091C108.271 27.8535 108.506 27.59 108.718 27.3024C108.942 27.0069 109.417 26.3081 109.836 25.6891C110.092 25.3018 110.831 24.3394 111.058 24.0998C111.282 23.8682 112.959 21.6119 113.219 21.2685C113.326 21.1287 114.013 20.4299 114.429 20.0106C114.429 20.0066 114.433 20.0066 114.433 20.0026C115.008 19.4236 115.219 19.2119 115.295 19.1121C115.631 18.6608 115.994 18.2216 116.345 17.7943C116.697 17.367 117.056 16.9317 117.4 16.4725C117.551 16.2808 117.939 15.5859 118.043 15.4502C118.406 14.971 120.183 13.3297 120.235 13.2858C121.062 12.6029 121.976 11.936 123.318 11.8202C124.787 11.6924 126.353 11.972 127.128 12.4991C128.238 13.2458 129.176 14.7633 129.224 15.8775C129.272 16.9477 129.192 17.383 128.968 18.4891Z" fill="white"/>
</svg>
