<svg fill="none" height="74" viewBox="0 0 150 74" width="150" xmlns="http://www.w3.org/2000/svg"><path d="m14.4282 61.7984-1.6151 11.5923h-12.8131l9.73792-73.3907h17.08448l10.0089 73.3907h-14.0132l-1.1892-11.5923zm3.8519-37.4923-2.7335 24.5082h4.9443l-2.211-23.0638" fill="#2da24a"/><path d="m38.8667 21.1377 5.2106 21.3551h4.1003v-42.4928h-4.4419v22.1628l-4.2711-22.1628h-4.7834v42.4928h4.1855z" fill="#2da24a"/><path d="m50.9111 0h11.1048v42.4928h-11.1048z" fill="#2da24a"/><path d="m93.1096 21.1377 22.5514 5.1254v16.2297h-50.7406v-10.8482h32.1187l-32.1187-7.6025v-7.1753l31.4352-6.6631h-31.2645v-10.2037h50.9109v17.2085z" fill="#8bc641"/><path d="m122.472 34.8053-.684 7.6875h-4.209l3.929-42.4928h5.428l3.93 42.4928h-4.152l-.683-7.6875zm1.673-22.2097-1.538 17.0843h3.075z" fill="#2da24a"/><path d="m150 34.1219h-7.688v-34.1219h-9.567v42.4928h17.255z" fill="#2da24a"/><g fill="#297c47"><path d="m47.4077 44.938c6.8631 0 8.1165 3.8148 8.1165 5.8896v6.6226c0 1.8575-.5959 3.2111-1.6309 4.3049-1.035 1.0937-2.8377 1.9223-4.4102 1.9223-1.5726 0-3.3555 0-3.3555 0v9.7133h-7.5172v-28.4527zm-1.2801 5.5847v7.3462s1.6823.3881 2.4166-.5903c.6387-.8512.5651-1.7752.5651-3.3129 0-1.5375-.006-2.3054-.8604-2.9887-.854-.6831-2.1213-.4543-2.1213-.4543z"/><path d="m71.5833 67.436h-6.6629v-22.498h-7.5171v28.4527h14.18z"/><path d="m82.5174 54.4521 1.5375 9.7376h-3.0752zm-4.2712-9.5141-5.6378 28.4527h7.346l.6835-3.5625h3.7588l.6835 3.5625h7.346l-5.6378-28.4527z"/><path d="m100.626 60.4317 7.859 12.959h5.979v-28.4527h-6.833v13.6143l-7.175-13.6143h-6.4926v28.4527h6.6626z"/><path d="m130.922 67.7777h-7.061v-6.3209h7.061v-5.2964h-7.061v-5.6377h7.061v-5.5847h-14.578v28.4527h14.578z"/><path d="m137.529 73.3907h7.517v-23.0387h4.954v-5.414h-17.255v5.414h4.784z"/></g></svg>