<svg fill="none" height="38" viewBox="0 0 160 38" width="160" xmlns="http://www.w3.org/2000/svg" xmlns:xlink="http://www.w3.org/1999/xlink"><clipPath id="a"><path d="m0 0h160v37.8607h-160z"/></clipPath><g clip-path="url(#a)" fill="#fff"><path d="m4.25729 4.16551h3.47624c3.17717 0 4.57727 1.00395 4.57727 3.04331 0 1.77225-1.4001 2.97558-4.21045 2.97558h-3.84306zm-4.210415 20.05239h8.519995c4.47753 0 8.95503-1.5995 8.95503-6.7483 0-3.0433-2.1337-5.3796-5.1072-5.7177v-.0703c2.4329-.7289 4.1107-2.5006 4.1107-5.17496 0-4.31225-3.6804-5.948535-7.25635-5.948535h-9.222175zm4.210415-10.4261h4.04247c3.40804 0 5.01764.8702 5.01764 3.3451 0 3.1036-3.0145 3.4736-5.18559 3.4736h-3.87452z"/><path clip-rule="evenodd" d="m24.2824 0v24.218h-3.9987v-24.218z" fill-rule="evenodd"/><path d="m30.9763 16.1989c0-2.5064 1.7723-4.8102 4.7138-4.8102 2.9414 0 4.7084 2.3043 4.7084 4.8102s-1.767 4.8107-4.7084 4.8107c-2.9415 0-4.7138-2.3043-4.7138-4.8107zm-4.011 0c0 5.0464 3.8746 8.4181 8.7248 8.4181 4.8443 0 8.7247-3.3712 8.7247-8.4181 0-5.047-3.8804-8.42351-8.7247-8.42351-4.8502 0-8.7248 3.37711-8.7248 8.42351z"/><path d="m50.2342 16.1988c0-2.5064 1.7722-4.8102 4.7137-4.8102s4.7084 2.3044 4.7084 4.8102c0 2.5059-1.7669 4.8108-4.7084 4.8108s-4.7137-2.3043-4.7137-4.8108zm-4.0111 0c0 5.0465 3.8751 8.4182 8.7248 8.4182 4.8443 0 8.7247-3.3712 8.7247-8.4182 0-5.0469-3.8798-8.42292-8.7247-8.42292-4.8497-.00053-8.7248 3.37652-8.7248 8.42292z"/><path d="m66.1157 8.17656h3.8116v2.50904h.0629c.7028-1.50456 2.2388-2.91265 4.9126-2.91265 2.475 0 4.1843.96716 5.0177 2.97555 1.1692-2.03451 2.8732-2.97555 5.2746-2.97555 4.2781 0 5.7838 3.04595 5.7838 6.88955v9.556h-4.011v-9.0895c0-2.0031-.5977-3.7412-2.973-3.7412-2.5059 0-3.4448 2.0708-3.4448 4.1395v8.6906h-4.0056v-9.5559c0-1.977-.8025-3.2742-2.7421-3.2742-2.6376 0-3.6757 1.9322-3.6757 4.0739v8.7562h-4.011z"/><path d="m107.532 16.1987c0 2.509-1.767 4.8107-4.714 4.8107-2.9417 0-4.7134-2.3017-4.7134-4.8107 0-2.5065 1.7717-4.8161 4.7134-4.8161 2.947 0 4.714 2.3096 4.714 4.8161zm-13.3025 8.0193h3.8116v-2.4046h.063c1.174 1.9322 3.2769 2.8029 5.5199 2.8029 4.94 0 7.918-3.6757 7.918-8.4182 0-4.7452-3.177-8.42294-7.754-8.42294-3.005 0-4.6144 1.4001-5.4483 2.44354h-.0997v-10.2187h-4.011v24.218z"/><path d="m117.368 14.5945c.299-2.3096 1.772-3.8116 4.142-3.8116 2.507 0 4.043 1.471 4.079 3.8116zm12.232 3.0071v-1.101c0-5.5838-3.041-8.72472-7.519-8.72472-4.855 0-8.725 3.37652-8.725 8.42292 0 5.0465 3.87 8.4182 8.725 8.4182 2.533 0 4.913-.9016 6.779-3.2038l-2.873-2.1678c-1.001 1.23-2.307 2.1678-4.31 2.1678-2.238 0-4.048-1.439-4.31-3.8116z"/><path d="m132.211 8.17656h4.011v2.54054h.069c.87-1.83783 2.637-2.94415 4.744-2.94415.504 0 .97.10237 1.437.23832v3.87503c-.666-.1653-1.305-.2991-1.94-.2991-3.775 0-4.31 3.1772-4.31 4.0478v8.5835h-4.011z"/><path d="m151.443 11.3878c2.905 0 4.745 1.9322 4.745 4.7132 0 2.669-1.804 4.7084-4.777 4.7084-2.705 0-4.714-2.1049-4.714-4.6455.001-2.8439 1.935-4.7761 4.746-4.7761zm4.745-3.21124v2.40674h-.063c-1.174-1.94022-3.282-2.81035-5.52-2.81035-4.945 0-7.918 3.67775-7.918 8.42565 0 4.5404 3.177 8.2187 7.986 8.2187 2.008 0 4.079-.7656 5.254-2.3358h.057v1.1719c0 3.1718-1.196 5.3797-5.076 5.3797-2.238 0-3.911-.8392-5.516-2.3177l-2.401 3.2816c2.265 2.0133 4.975 2.643 7.954 2.643 6.25 0 9.054-3.6805 9.054-9.459v-14.60444z"/><path d="m2.27022 31.2487h-2.27022v-1.5568h6.29723v1.5568h-2.27609v6.4124h-1.75092z"/><path d="m7.77051 29.6919h5.41109v1.6251h-3.65484v1.4891h3.45544v1.615h-3.45544v1.6197h3.85904v1.615h-5.61529z"/><path d="m15.4878 29.6919h1.7568v6.3489h3.2454v1.615h-5.0022z"/><path d="m22.1577 29.6919h5.4106v1.6251h-3.6543v1.4891h3.4501v1.615h-3.4501v1.6197h3.8537v1.615h-5.61z"/><path d="m28.7954 29.6919h2.0079l1.9615 5.2218h.0208l2.0031-5.2218h1.8821l-3.2875 7.9639h-1.4049z"/><path clip-rule="evenodd" d="m39.7521 29.6919v7.9639h-1.7594v-7.9639z" fill-rule="evenodd"/><path d="m46.25 31.6424c-.2778-.3566-.844-.5347-1.2689-.5347-.498 0-1.1853.2308-1.1853.8285 0 1.4524 3.665.5135 3.665 3.303 0 1.777-1.4262 2.6216-3.0673 2.6216-1.0221 0-1.9242-.3039-2.6791-.9965l1.2476-1.3788c.3668.4772.949.7496 1.5312.7496.5769 0 1.2162-.2617 1.2162-.8285 0-1.4571-3.7327-.6713-3.7327-3.3291 0-1.6939 1.4731-2.5853 3.0358-2.5853.8968 0 1.7616.241 2.4382.8333z"/><path clip-rule="evenodd" d="m51.361 29.6919v7.9639h-1.7594v-7.9639z" fill-rule="evenodd"/><path d="m57.3444 29.4927c2.4797 0 4.2941 1.6309 4.2941 4.1843 0 2.5533-1.8144 4.1843-4.2941 4.1843-2.4904 0-4.2995-1.631-4.2995-4.1843 0-2.5534 1.8091-4.1843 4.2995-4.1843zm0 6.7477c1.4891 0 2.4696-1.0796 2.4696-2.564 0-1.4843-.9805-2.564-2.4696-2.564-1.4998 0-2.475 1.0797-2.475 2.564 0 1.4844.9757 2.564 2.475 2.564z"/><path d="m63.1221 29.6919h2.3859l3.3867 5.5369h.0213v-5.5369h1.7562v7.9639h-2.3016l-3.471-5.6676h-.0207v5.6676h-1.7568z"/></g></svg>