<svg fill="none" height="100" viewBox="0 0 82 100" width="82" xmlns="http://www.w3.org/2000/svg"><g clip-rule="evenodd" fill-rule="evenodd"><path d="m3.49903.449757c1.10767-.5267073 2.35827-.44981484 3.55064-.44068735 22.27783.01323385 44.55433-.01058707 66.83093-.00397015 1.2003.0304378 2.4509-.1138105 3.589.3652545 2.1452.803296 3.7147 2.955116 3.7385 5.259126l.0622 94.37052c-.3573-.438-.4856-1.0018-.7-1.5126-.9251-2.2987-1.9613-4.5604-3.2476-6.6805-1.8964-3.1655-4.4373-6.0359-7.6664-7.8807-3.5374-2.0923-7.718-2.8744-11.7887-2.8135-17.1603.0039-34.3193-.0119-51.47963-.004-.96607.0318-1.95463-.0754-2.85189-.4552-2.00625-.8166-3.439473-2.8374-3.53608-5.0024.00264677-23.3419-.00264677-46.6851.00264677-70.02691.02117413-2.21799 1.45175323-4.32217 3.49638323-5.174433z" fill="#e3282d"/><path d="m41.2486 18.7138c1.5457-.1879 3.1695-.0185 4.5484.745 2.0116 1.0336 3.4699 3.065 3.7783 5.3095.2977 1.7574-.1244 3.6141-1.0971 5.1016-1.0402 1.6145-2.7725 2.7394-4.6464 3.1192-1.7217.3428-3.5612.0437-5.0725-.8562-1.6728-.9568-2.8744-2.6296-3.3773-4.4757-.5108-1.9824-.1257-4.1753 1.0547-5.8507 1.0799-1.6489 2.885-2.7513 4.8119-3.0927zm-15.2798-4.7443c-1.7985 2.1399-3.0624 4.743-3.5308 7.5049-.5122 2.7605-.2184 5.6786.9171 8.2539.9938 2.1902 2.5938 4.0522 4.436 5.5767 2.8161 2.2154 6.1087 3.7426 9.4979 4.8542 2.48.8523 5.0884 1.334 7.4692 2.4602 2.0115.9105 3.99 2.1796 5.1334 4.125.9555 1.6158 1.1301 3.6049.6683 5.406-.4711 1.9348-1.6741 3.6883-3.3296 4.7999-1.4889 1.0362-3.3059 1.5775-5.1176 1.5404-2.1968-.09-4.342-1.0587-5.8573-2.6507-1.4332-1.5934-2.3159-3.7214-2.2683-5.8772.045-2.0883.8483-4.1726 2.3107-5.6773.2951-.2898.5743-.5955.8575-.8972-1.0878-.3798-2.1068-.937-3.1721-1.3763-2.6402-1.1196-5.2433-2.3213-7.8808-3.4461-.3189-.1416-.6723-.2224-.9515-.4394-.1495.2554-.3533.4685-.5571.6789-2.7818 3.4196-4.4268 7.7987-4.3646 12.2228.0437 4.0429 1.4928 8.0091 3.9305 11.2223 2.7473 3.54 6.5984 6.2199 10.8835 7.5393 3.7703 1.2373 7.8477 1.4795 11.7517.8006 5.3173-.9104 10.3303-3.7015 13.738-7.9072 3.1245-3.8113 4.7205-8.8653 4.1898-13.7791-.2805-2.4601-1.015-4.874-2.2113-7.0457-1.2705-2.3106-3.0121-4.3446-5.0236-6.0412 2.6534-2.6031 4.5339-6.0465 4.9958-9.7573.2144-1.9771.135-4.0059-.4367-5.9208-1.2837-4.522-4.6173-8.2712-8.6417-10.59901-3.6341-2.11609-7.8848-3.17745-12.0865-2.98423-5.8176.29908-11.5995 2.89821-15.3499 7.41364z" fill="#fffffe"/></g></svg>