<svg fill="none" height="78" viewBox="0 0 137 78" width="137" xmlns="http://www.w3.org/2000/svg"><g fill="#fff"><path d="m41.4967 54.4082h-19.0818v-30.2057h19.0818c8.5098 0 17.2338 4.2792 17.2338 15.1029 0 10.8221-8.724 15.1028-17.2338 15.1028zm-2.1653-45.84008c-16.8852 0-30.5731 13.68798-30.5731 30.57468 0 16.8851 13.6879 30.573 30.5731 30.573 16.8851 0 30.573-13.6879 30.573-30.573 0-16.8867-13.6879-30.57468-30.573-30.57468z"/><path d="m40.3363 32.9974h-8.4144v12.6186h8.4144c6.1131 0 8.2737-2.5375 8.2737-6.3086 0-3.7725-2.1763-6.31-8.2737-6.31z"/><path d="m106.829 40.1547-5.054-13.802h-6.8716l-5.0546 13.802-4.0509-13.802h-9.0289l8.5005 26.6143h7.6546l5.3688-12.8842 5.4631 12.8842h7.654l8.499-26.6143h-9.027z"/></g><path d="m111.411 52.9662h-7.655l-5.4626-12.8827-5.3688 12.8827h-7.6562l-8.4988-26.6128h9.0273l4.0524 13.8004 5.0546-13.8004h6.8701l5.056 13.8004 4.051-13.8004h9.029zm-72.0796 16.7506c-16.8851 0-30.57301-13.6894-30.57301-30.5745 0-16.8852 13.68791-30.57306 30.57301-30.57306 16.8852 0 30.5731 13.68786 30.5731 30.57306 0 16.8851-13.6879 30.5745-30.5731 30.5745zm57.8567-69.7168c-11.5648 0-21.9523 5.03276-29.0941 13.0266-7.1418-7.99384-17.5308-13.0266-29.094-13.0266-21.5395 0-39 17.4605-39 39s17.4605 39 39 39c11.5632 0 21.9522-5.0327 29.094-13.0282 7.1418 7.9955 17.5293 13.0282 29.0941 13.0282 21.5379 0 38.9989-17.4605 38.9989-39s-17.461-39-38.9989-39z" fill="#11386b"/><path d="m40.3362 45.6154h-8.4144v-12.6185h8.4144c6.0975 0 8.2738 2.5375 8.2738 6.31 0 3.7711-2.1607 6.3085-8.2738 6.3085zm1.1601-21.4129h-19.0817v30.2057h19.0817c8.5098 0 17.2338-4.2792 17.2338-15.1029s-8.724-15.1028-17.2338-15.1028z" fill="#11386b"/></svg>