<svg fill="none" height="17" viewBox="0 0 160 17" width="160" xmlns="http://www.w3.org/2000/svg"><g fill="#fff"><path d="m13.7885 16.5365-5.21663-3.5803-8.057558 3.5803 4.775758-5.7697-5.29007-3.55457h8.2045l5.584-6.774242v6.774242h7.9351l-7.9351 3.50307z"/><path d="m23.6827 3.76071c.2939 0 .5143-.23181.5143-.5409v-2.240913c0-.309091-.2204-.540909-.5143-.540909h-8.5719v3.322722z"/><path d="m23.6827 16.5365c.2939 0 .5143-.2318.5143-.5409v-2.2667c0-.3091-.2204-.5409-.5143-.5409h-8.5719v3.3227c0 .0258 8.5719.0258 8.5719.0258z"/><path d="m37.6916.437988h-2.1797c-.2939 0-.5143.231818-.5143.540909v9.968203c0 .4121-.049.7727-.2204 1.1333-.1225.3091-.3429.5924-.5633.7727-.2204.2319-.5143.3606-.8572.4637-.3429.1288-.9306.1803-1.3225.1803s-1.0286-.0515-1.3715-.1803-.6368-.3091-.8572-.4637c-.2204-.1803-.3918-.4636-.5633-.7727-.1224-.3091-.2204-.7212-.2204-1.1333v-9.968203c0-.309091-.2204-.540909-.5143-.540909h-2.1797c-.2939 0-.5143.231818-.5143.540909v10.019703c0 .953.1714 1.7773.5143 2.4985s.8082 1.3136 1.3715 1.8288c.5633.4636 1.2735.9015 2.0083 1.1333.7347.2318 1.5429.3606 2.3511.3606s1.6164-.1288 2.3511-.3606c.7348-.2318 1.445-.6439 1.9593-1.1333.5633-.4637 1.0286-1.1334 1.3225-1.8288.3429-.7212.5144-1.5455.5144-2.4985v-10.019703c0-.309091-.2205-.540909-.5144-.540909z"/><path d="m53.0964 15.6865-3.5512-4.5591s2.8654-1.0561 2.8654-4.8682c0-.77273-.1224-1.54545-.3918-2.26666-.2205-.72122-.6368-1.36516-1.1511-1.90607-.5143-.5409-1.1021-.95303-1.7879-1.236359-.6857-.283333-1.4939-.463636-2.3511-.463636h-5.7554c-.2939 0-.5143.231818-.5143.540909v15.068216c0 .3091.2204.5409.5143.5409h2.1797c.2939 0 .5143-.2318.5143-.5409v-12.23488h3.2083c.3429 0 .6858.05151.9307.1803.2939.12879.5143.30909.7347.54091.1715.23182.3429.46364.4654.77273.1224.30909.1714.64394.1714 1.05606 0 .3606-.049.72121-.1714 1.00454-.1225.30909-.2939.59243-.4654.82424-.2204.23182-.4653.36061-.6857.46364-.2939.12879-.7348.1803-1.7144.1803h-1.3715s-.4653.23182-.2939.59243l5.0452 6.87723c.1224.1288.2204.2319.3918.2319h2.8165c.4898.103.7592-.3091.3674-.7985z"/><path d="m67.1789 2.39545c-.7347-.72121-1.5429-1.23637-2.5226-1.596973-.9796-.360606-1.9593-.540909-3.0369-.540909-1.0286 0-2.0572.180303-2.9879.540909-.9796.360603-1.8368.901513-2.5225 1.596973-.7348.72121-1.3226 1.59697-1.7144 2.60151-.3919 1.00455-.6368 2.1894-.6368 3.50303 0 1.31364.2204 2.49851.6368 3.50301.3918 1.0046.9796 1.9061 1.7144 2.6015.7347.7213 1.5429 1.2364 2.5225 1.597.9797.3606 1.9593.5409 3.0369.5409 1.1511 0 2.2287-.1803 3.2083-.5924.9797-.4121 1.8369-.953 2.5226-1.7258.6858-.7212 1.2736-1.5969 1.6654-2.6015.3919-1.0045.5633-2.13786.5633-3.37422 0-1.31364-.2204-2.49849-.6368-3.50303-.4898-.92728-1.1266-1.82879-1.8123-2.55zm-1.2735 8.37125c-.2205.5924-.5633 1.1333-.9797 1.5454-.3918.4121-.9306.7212-1.4939.953-.5633.2319-1.1511.3091-1.8369.3091-.6367 0-1.2735-.1288-1.8368-.3091-.5633-.2318-1.0286-.5409-1.445-.953-.3918-.4121-.7347-.953-.9796-1.5454-.2204-.644-.3919-1.36519-.3919-2.18944 0-.82424.1225-1.59696.3919-2.18939.2204-.64394.5633-1.13333.9796-1.54545.3919-.41212.9307-.72122 1.494-.95303.5633-.23182 1.2001-.36061 1.8368-.36061.6368 0 1.2736.12879 1.8369.36061.5633.23181 1.0286.54091 1.4449.95303.4164.41212.7348.95303.9797 1.59697.2204.64394.3918 1.36515.3918 2.18939-.049.72121-.1714 1.49392-.3918 2.13792z"/><path d="m73.8403 5.07427c0 .36061.049.54091.1714.72121.1225.1803.3429.36061.5633.54091.2939.12879.5633.23182.9797.36061.3918.12878.8082.1803 1.2.23181.7347.12879 1.494.3091 2.1797.46364.7347.1803 1.3715.46364 1.9593.82424.5878.36061 1.0286.90152 1.3225 1.49394.3429.64397.4653 1.41667.4653 2.36967-.0489.9015-.2938 1.7258-.6857 2.3182s-.9307 1.1333-1.5429 1.494c-.6123.3606-1.2001.6439-1.9593.7727s-1.543.1803-2.2287.1803c-1.7878-.0515-4.3594-1.1334-5.6819-2.9621-.1225-.1803-.2204-.4122.049-.7213.2939-.309 1.6164-1.7257 1.6164-1.7257.2939-.3091.5143-.0515.6367.0515.7348 1.1849 2.3022 2.0091 3.5023 2.0864.6367 0 .6857 0 1.102-.0515.3429-.0516.6858-.1288.9797-.3091.2939-.1288.5143-.3091.6857-.5409.1715-.2319.2939-.541.2939-.9016s-.049-.6439-.2204-.8242c-.1714-.2318-.3918-.4121-.6857-.5924s-.6858-.3091-1.1021-.36063c-.3919-.05152-.8572-.18031-1.2736-.23182-.6857-.12879-1.3715-.23182-2.0082-.41212-.6858-.18031-1.2736-.46364-1.7879-.82425-.5143-.3606-.9796-.82424-1.2735-1.41666-.3429-.59243-.4653-1.23637-.4653-2.13788.0489-.82424.2204-1.59697.6367-2.26667.3429-.59242.8572-1.13333 1.445-1.54545.5633-.360608 1.2001-.643941 1.9593-.824244 1.3715-.3606064 2.8164-.3090913 4.1879.180303 1.494.463636 2.6941 1.674241 3.2818 2.498481.1225.18031.2205.41212 0 .64394l-1.5429 1.59697c-.2939.30909-.5633.23182-.7347-.05151-.8082-1.23637-1.8368-1.77728-3.0369-1.82879-1.445-.02576-2.9389.28333-2.9879 1.7z"/><path d="m95.662 4.06968c-.2204-.72121-.6368-1.36515-1.1511-1.90606s-1.1021-.95303-1.7878-1.236361c-.6858-.309091-1.494-.463636-2.3512-.463636h-5.8044c-.2939 0-.5143.231818-.5143.540907v15.06817c0 .3091.2204.5409.5143.5409h2.1797c.2939 0 .5143-.2318.5143-.5409v-3.8636h3.1104c.8572 0 1.6654-.1803 2.3512-.4637.6857-.2833 1.2735-.7212 1.7878-1.2363.5143-.51517.8572-1.13336 1.1511-1.82881.2204-.72121.3918-1.54545.3918-2.31818-.0489-.87576-.1469-1.59697-.3918-2.29243zm-3.0369 3.27122c-.1225.30909-.2939.59242-.4653.82424-.2205.23182-.4654.3606-.6858.46363-.2939.12879-.7347.18031-1.7144.18031h-2.4736v-5.04849h3.2084c.3428 0 .6857.05152.9306.18031.2939.12878.5143.30909.7348.5409.1714.23182.3428.46364.4653.77273.1224.30909.1714.64394.1714 1.05606 0 .36061-.049.72122-.1714 1.03031z"/><path d="m110.602 2.39545c-.735-.72121-1.543-1.23637-2.523-1.596973-.979-.360606-1.959-.540909-3.037-.540909-1.028 0-2.057.180303-2.988.540909-.979.360603-1.836.901513-2.5222 1.596973-.7347.72121-1.3225 1.59697-1.7144 2.60151-.3918 1.00455-.6367 2.1894-.6367 3.50303 0 1.31364.2204 2.49851.6367 3.50301.4164 1.0046.9797 1.9061 1.7144 2.6015.7352.7213 1.5432 1.2364 2.5222 1.597.98.3606 1.96.5409 3.037.5409 1.151 0 2.229-.1803 3.209-.5924.979-.4121 1.836-.953 2.522-1.7258.686-.7212 1.274-1.5969 1.666-2.6015.391-1.0045.563-2.13786.563-3.37422 0-1.31364-.221-2.49849-.637-3.50303-.49-.92728-1.053-1.82879-1.812-2.55zm-1.249 8.37125c-.221.5924-.564 1.1333-.98 1.5454-.392.4121-.931.7212-1.494.953-.563.2319-1.151.3091-1.837.3091-.636 0-1.273-.1288-1.837-.3091-.563-.2318-1.028-.5409-1.445-.953-.391-.4121-.734-.953-.979-1.5454-.221-.644-.392-1.36519-.392-2.18944 0-.82424.122-1.59696.392-2.18939.22-.64394.563-1.13333.979-1.54545.392-.41212.931-.72122 1.494-.95303.564-.23182 1.201-.36061 1.837-.36061.637 0 1.274.12879 1.837.36061.563.23181 1.029.54091 1.445.95303.392.41212.735.95303.98 1.59697.22.64394.392 1.36515.392 2.18939 0 .72121-.172 1.49392-.392 2.13792z"/><path d="m127.158 15.6865-3.552-4.5591s2.866-1.0561 2.866-4.8682c0-.77273-.123-1.54545-.392-2.26666-.22-.72122-.637-1.36516-1.151-1.90607-.514-.5409-1.102-.95303-1.788-1.236359-.686-.309091-1.494-.463636-2.351-.463636h-5.804c-.294 0-.515.231818-.515.540909v15.068216c0 .3091.221.5409.515.5409h2.179c.294 0 .515-.2318.515-.5409v-12.2864h3.208c.343 0 .686.05152.931.1803.293.12879.514.3091.734.54091.172.23182.343.46364.466.77273.122.30909.171.64394.171 1.05606 0 .36061-.049.72121-.171 1.00455-.123.30909-.294.59242-.466.82424-.22.23182-.465.36061-.686.46364-.293.12878-.734.1803-1.714.1803h-1.371c-.294 0-.466.23182-.294.59242l5.045 6.90305c.122.1288.22.2318.392.2318h2.816c.539.1288.759-.2833.417-.7727z"/><path d="m138.129.437988h-10.629c-.294 0-.514.231818-.514.540909v2.266663c0 .3091.22.54091.514.54091h3.723v12.28633c0 .3091.22.5409.514.5409h2.18c.294 0 .514-.2318.514-.5409v-12.31208h3.723c.294 0 .514-.23182.514-.54091v-2.240913c-.024-.309091-.245-.540909-.539-.540909z"/></g><path d="m144.571 0h15.429v17h-15.429z" fill="#d30132"/><path d="m149.812 2.42114v2.47273h1.861v9.42723h2.424v-9.42723-2.47273h-2.424z" fill="#fff"/></svg>