<svg fill="none" height="45" viewBox="0 0 160 45" width="160" xmlns="http://www.w3.org/2000/svg"><path clip-rule="evenodd" d="m160 22.3719c0 5.9334-8.429 11.6238-23.431 15.8193-15.003 4.1956-35.352 6.5526-56.569 6.5526-21.2173 0-41.5656-2.357-56.5685-6.5526-15.00295-4.1955-23.4315-9.8859-23.4315-15.8193s8.42855-11.6238 23.4315-15.81932c15.0029-4.19555 35.3512-6.55258 56.5685-6.55258 21.217 0 41.566 2.35703 56.569 6.55258 15.002 4.19552 23.431 9.88592 23.431 15.81932z" fill="#ef6708" fill-rule="evenodd"/><g fill="#fff"><path d="m103.477 13.8858c-1.417-.211-2.895-.1049-4.1469.2556-1.9263.2431-1.5166 2.6123-2.1592 3.9884l.0974.31c.41.1863.7352-.0501 1.0651-.1675.201-.1744.389.1086.3544.2724-.7183 2.9089-1.769 5.7003-2.1736 8.7348.135 1.2372 1.2985 1.9713 2.0187 2.8469 2.7101.8647 5.2761-.6161 7.4241-2.3737 2.255-2.4221 3.97-6.3317 2.797-9.7526-.717-2.5139-2.916-3.7628-5.277-4.1143zm-.946 3.7526c.674.1414 1.303.4772 1.741.9932.944 1.1334.794 2.6707.42 3.9773-.583 1.4161-1.712 3.0283-3.352 3.1956.363-2.2865 1.131-4.4799 1.556-6.7778-.06-.8917-.925-1.1638-1.591-1.4244.403-.0605.821-.0487 1.226.0361z"/><path d="m148.404 15.1665c-.797 4.6701-2.079 9.0278-3.33 13.3876-.028.436.214.8696-.04 1.291-1.205.5498-2.82.1448-3.907-.5383-.821-2.4957-.907-5.2262-1.627-7.7119l-1.868 7.7694c-.168.471-.518.8654-1.035.8327-.976-.1296-2.599-.0628-2.89-1.2337 1.219-4.9245 2.203-10.0181 3.921-14.64.301-.9006 1.195-.4137 1.824-.4795 1.152.389 2.524.8402 2.769 2.2935.452 1.3656.701 2.8075 1.011 4.2006l.194-.1906c.46-2.1164.842-4.2834 1.593-6.18 1.029-.5158 2.254.1564 3.163.5697z"/><path d="m132.106 13.9744c-.95-.2164-1.687 1.0448-2.476 1.5414-.258-.4873.112-1.1128-.166-1.5647-.512-.2092-1.126-.2428-1.613-.1033-3.045.9308-5.027 3.7294-5.889 6.6378-.996 3.2353-1.194 6.9611 1.443 9.2786 1.153.9528 2.989 1.1425 4.324.6076 4.874-2.2293 6.16-8.0995 5.875-13.2301-.278-.9886-.355-2.1013-1.073-2.9766-.145-.098-.29-.1598-.425-.1907zm-3.044 3.5421c.643 2.6473-.109 6.1559-1.788 8.1917-.323.2893-.723.5723-1.119.2872-1.29-1.3635-.323-3.6135.185-5.1625.436-1.4193 1.727-2.3361 2.722-3.3164z"/><path d="m121.809 14.866c-.202 1.2578-.26 2.7374-1.375 3.3341-1.716.0531-3.558-.3496-5.228-.1068.263.4077 1.047.5357.946 1.1487.102.4609-.496.9408.045 1.2564 1.246.1142 2.57-.1318 3.777.3308.306 1.1806-.345 2.5084-.856 3.5522l-.559.2451-3.633-.1363-.242.2049c-.187.5535-.547 1.2299-.284 1.8317l3.948.1907c.376.2597.27.7483.278 1.1462-.14.8842-.425 1.6276-.889 2.3155l-.772.2233-5.426-.1978c-.863-.3144-1.455-1.4165-1.646-2.252l.623-3.1862c-.367-.3618-.788-.7274-.645-1.3404.429-1.0974.245-2.9833 1.791-2.994.441-.5587.426-1.4427.664-2.1651-.239-.425-1.05-.1225-1.077-.7623.558-1.2251.16-3.5148 1.874-3.5728 2.493-.1202 5.059.0133 7.617.1703.467.0518 1.169.1217 1.069.7638z"/><path d="m93.8699 13.6981c-.8433-.0524-1.5315 1.1704-2.332 1.496-.1111-.4625.097-.9977-.1156-1.4505-.5244-.3816-1.1874-.1375-1.7411-.0903-4.1217 1.4406-5.7265 5.492-6.3512 9.6652-.2934 2.49.3595 5.328 2.6513 6.6383 1.5706.9214 3.3796.5229 4.8252-.2907 3.986-2.7299 4.9663-8.0677 4.7395-12.77-.2268-1.0143-.3662-2.0886-1.0593-2.9271-.2136-.1732-.4223-.2588-.6168-.2709zm-2.8704 3.7363c.6646 2.5746-.1571 5.9079-1.6509 7.9809-.3584.3025-.7556.6305-1.1912.3802-.5167-.4956-.2283-4.0811.0201-4.851.5181-1.4516 1.4993-2.5843 2.8219-3.5101z"/><path d="m79.8881 15.0094c-.8626 3.686-2.1348 7.105-2.8496 10.8959l.1379.1936c1.3977.1659 2.7797-.0433 4.1219.1796.3648.6953-.1329 1.4389-.2349 2.1774-.2047.6366-.3552 1.2902-.8759 1.7367l-.8373.1998-4.6532-.1823c-1.0551-.6577-1.835-2.0928-2.0969-3.2854.8062-4.5212 2.2256-8.6653 3.5721-12.8318.9853-.4153 2.1485.0369 3.1927.3138.1972.1546.533.2817.5232.6027z"/><path d="m73.4628 14.7822c.0304 1.1722-.45 2.2189-.8838 3.2006l-.6807.2241c-1.6847-.1367-3.3905-.173-5.0386-.1214.2256.3739.7806.4629.9964.9163.0293.5219-.4627 1.1413-.0185 1.4691 1.2657.1083 2.492-.1302 3.779.3289.3011.5868-.0355 1.385-.1545 2.0215-.197.631-.3936 1.2761-.895 1.7334-1.3421.0684-2.7102-.0994-4.0537-.0387-.4528.4385-.4852 1.1172-.6517 1.7239.0779.4591.6517.231.9658.3318 1.0914.0585 2.184-.1488 3.2845.1767.4919 1.0584-.1568 2.327-.5672 3.2526l-.5217.3337-5.6241-.0553c-1.0038-.2422-1.6695-1.3527-1.9172-2.3233.1288-1.0466.4122-2.149.6254-3.2153-.1365-.4668-.8571-.4363-.637-1.0633.1233-1.0743.3355-2.1182.8713-2.949.3142-.3392.8462-.0037 1.103-.5352.0192-.7453.6375-1.362.3273-2.1126-.465-.0261-1.0659-.1277-.9785-.7355.4562-1.2329.3164-3.1558 1.8061-3.4073 2.4355-.133 4.9357-.0075 7.4515.1394.5173.1439 1.3724.0109 1.4119.7049"/><path d="m31.6499 10.0936c-.7662 3.2954-1.921 6.3572-2.7075 9.6539l-2.3292 8.2986c-.0482.5586.3903 1.1578-.149 1.6132-1.2327.4088-2.9406.1686-4.0238-.5128l-.4061-.833c-.621-3.4905-1.2296-6.9982-1.8427-10.4901l-.24.3744-2.7396 11.1702c-.1542.5035-.6749.6196-1.1276.6873-1.1938-.0374-2.8187-.0748-3.3862-1.1657l.0063-.8236c1.4228-6.2027 3.0657-12.2831 4.9664-18.18823.1354-.39366.4195-.79461.8537-.87059 1.5731-.02275 3.0934.59303 4.2366 1.48092.8554 2.3594 1.4059 4.7726 1.7939 7.2124l.206-.207 2.4089-7.65318c.175-.46308.5577-.84069 1.0876-.87645 1.1482.11619 2.8867-.02698 3.3923 1.12973"/><path d="m62.1797 15.253c-.9447 3.4551-2.8521 6.6339-6.2054 8.22 1.0117 2.1521 2.3975 4.2117 3.2142 6.3985-.1931 1.2667-1.6588 1.6355-2.5941 2.0379-1.2617.3206-1.3414-1.2959-1.9291-1.9586l-1.9755-4.0425-.2296.3791c-.2589 1.3755-.521 2.7236-1.0171 3.9379-.6277.5293-1.6702.0112-2.4311-.1102-.4842-.2564-1.2229-.2491-1.3479-.933l3.4416-13.1325c.2771-.7105.3326-1.5301.8523-2.071 1.0624-.2735 2.6004-.0622 3.4822.6204.2772 1.1408-.4739 2.1139-.6226 3.2402-.1948.6037-.4726 1.1742-.572 1.839l.1264.1912c2.558-.9973 3.3055-3.5836 4.4358-5.7172.6024-.3165 1.3982.0426 2.024.1678.5371.1844 1.0693.4266 1.3479.933z"/><path d="m48.4335 15.6615c.2215 1.2052.2785 2.7709-.5903 3.7607-.8811.628-2.0389.6073-3.0074.2498-.6363-.6143.634-1.9386-.5908-1.9732-1.5267 1.383-1.9205 3.4644-2.4713 5.4493.0043.8802-.3991 1.9079.2329 2.5791 1.3048.0725.9589-1.553 1.9107-2.0285.8485-.4461 2.0563-.5551 2.8846.0733.3872.6926.0152 1.7042-.1821 2.4257-.7018 1.6956-1.9705 3.4305-3.8771 3.9181-.9698.2927-2.1165.3382-3.1154-.0983-2.838-2.037-2.2094-5.7395-1.5675-8.9525 1.0147-3.2535 3.0071-7.023 6.8113-7.3595 1.4604-.2028 3.0723.4059 3.5624 1.956z"/><path d="m37.8054 15.0698-.395 1.7388-3.5225 13.013c-1.1124.7676-2.8925.2504-3.9151-.4777-.5683-.7536.1412-1.6205.1082-2.4981 1.1266-4.1553 2.1482-8.4714 3.6963-12.5687.9364-.732 2.4276-.3801 3.5129.0685.2202.176.5692.3841.5152.7242z"/><path d="m150.3 15.7241c.006-.7345.55-1.275 1.234-1.2666.676.0026 1.209.5644 1.2 1.2983-.014.7365-.558 1.2727-1.225 1.2624-.68-.0034-1.218-.5611-1.209-1.2941zm1.205 1.5569c.81.0126 1.52-.6267 1.54-1.5247.01-.8865-.688-1.5416-1.503-1.5551-.816-.0062-1.529.6285-1.54 1.5239-.017.8801.68 1.5353 1.503 1.5559zm-.29-1.4211.295-.0057.432.7877.297-.0002-.465-.7943c.238-.0288.445-.1681.446-.4882.005-.3361-.198-.5021-.604-.5198l-.661.0043-.019 1.7786.268.0022.011-.7644zm0-.2409.017-.5432.34.0011c.178.0043.379.053.376.2752.005.2714-.208.2834-.428.2802l-.305-.0135"/></g></svg>