<svg fill="none" height="53" viewBox="0 0 138 53" width="138" xmlns="http://www.w3.org/2000/svg"><path d="m50.328 13.8436v21.9842h-8.8424v-21.9842h-7.7087v-7.74643h24.2643v7.74643z" fill="#fff"/><path d="m90.6689 20.6773v15.1507h-4.7619v-3.889c-2.8599 2.9232-6.8557 4.7404-11.271 4.7404-8.6992 0-15.7527-7.0349-15.7527-15.7157 0-8.6804 7.0535-15.71785 15.7527-15.71785 5.0539 0 9.5532 2.3774 12.4353 6.07175l-6.7508 5.2099c-1.3215-1.6836-3.3767-2.6838-5.6845-2.6838-3.9866 0-7.2197 3.1437-7.2197 7.1204 0 3.9785 3.2327 7.1181 7.2197 7.1181 2.2916 0 4.279-.9842 5.602-2.6208h-3.8577v-4.7841z" fill="#fff"/><path d="m5.22266 6.11938h13.98294c4.5203 0 7.6461 1.18852 9.6324 3.18295 1.7315 1.73987 2.6198 4.03217 2.6198 7.04597 0 4.1413-2.0028 7.4934-5.1431 9.2436.277.4621 6.114 10.2363 6.114 10.2363h-9.4626l-4.615-7.7468-4.9324.0007v7.7461h-8.19604zm13.82194 14.55342c2.6766 0 4.2172-1.3032 4.2172-3.4623 0-2.2401-1.6217-3.3809-4.2569-3.3809h-5.5862v6.8432z" fill="#fff"/><path d="m122.697 17.5888c-.66-.5147-1.342-.7067-2.45-.7067h-1.79v8.1553h2.045c1.235 0 2.003-.2572 2.579-.8988.639-.7071 1.002-1.8412 1.002-3.1674 0-1.5208-.491-2.6978-1.386-3.3824z" fill="#3cbfef"/><path d="m95.6138 6.12061v29.67699h37.1632v-29.67699zm17.1742 21.97789h-3.706v-5.8881h-4.838v5.8878h-3.707v-14.277h3.707v5.181h4.838v-5.181h3.706zm13.041-1.6484c-1.213 1.1781-2.642 1.6484-5.029 1.6484h-6.052v-14.2773h6.074c2.13 0 3.665.4925 4.878 1.5833 1.387 1.2633 2.154 3.19 2.154 5.4375 0 2.4607-.662 4.2808-2.025 5.6081z" fill="#3cbfef"/><g fill="#fff"><path d="m35.4479 41.2925h-1.7008v6.3207h1.7008z"/><path d="m45.2974 41.2925h1.6496l3.2191 3.8157v-3.8157h1.6493v6.3207h-1.6493l-3.2191-3.6554v3.6554h-1.6496z"/><path d="m57.7441 47.6132h1.6486v-4.801h2.4669v-1.5197h-6.5305v1.5197h2.415z"/><path d="m76.3271 41.2925h1.8464l1.9406 4.8595h.1672l1.9348-4.8595h1.8452l-2.787 6.3207h-2.1535z"/><path d="m91.7593 41.2925h1.7005v4.821h4.1715v1.4997h-5.872z"/><path d="m84.8804 41.2925h5.6263v1.5293h-3.9778v.8866h3.6051v1.4438h-3.6051v.9332h4.1553v1.5278h-5.8038z"/><path d="m117.944 41.2925h-1.7v6.3207h1.7z"/><path d="m122.737 47.6132c1.742-.084 3.155-1.5045 3.155-3.1981 0-1.694-1.402-3.0149-3.155-3.1226h-3.488v6.3207zm0-1.493h-1.868v-3.3332h1.868c.879-.0037 1.571.803 1.571 1.637s-.678 1.6706-1.571 1.6962z"/><path d="m107.549 43.8552h-3.166v1.3942h1.578v.5673c-.071.041-.155.0902-.241.1395-.242.1335-.775.3171-1.473.3171-1.152 0-1.942-.6605-1.942-1.8516 0-1.1823.907-1.8298 2.013-1.8298.671 0 1.44.3304 1.851.9561l1.293-.7796c-.923-1.3239-1.875-1.6725-3.416-1.6573-1.861.0159-3.286 1.358-3.358 3.2292-.081 2.2142 1.569 3.3642 3.604 3.4134 1.344.0296 2.05-.5883 2.05-.5883l.222.4481h.986v-3.7583z"/><path d="m42.0849 46.7103.3776.9024h1.759l-2.6327-6.3207h-2.4496l-2.6172 6.3207h1.759l.3768-.9024zm-1.8179-3.9053h.1926l1.0493 2.5214h-2.2736z"/><path d="m5.22266 47.6131h1.63935v-1.3328h1.97894l.73367 1.3328h1.78928l-.9532-1.7028s.6799-.4822.8898-.8999c.2103-.4193.3043-.9495.2265-1.6884-.0784-.7371-.8169-1.684-1.69345-1.8842-.58341-.1295-.91857-.1465-1.04085-.1473h-3.57004zm1.63935-2.8865v-1.892h2.08722c.55063 0 .96387.3586.94767.978-.01547.5839-.47071.8895-.94767.9143h-2.08722z"/><path d="m62.9341 47.6132h1.6393v-1.3313h1.979l.734 1.3313h1.7871l-.9525-1.7028s.6821-.4814.8902-.8984c.2107-.4208.305-.951.2276-1.6888-.0806-.7379-.8191-1.6833-1.6957-1.8827-.5823-.1314-.7848-.148-1.0397-.148h-3.5693zm1.6393-2.8865v-1.8905h2.0862c.5521 0 .9646.3593.948.978-.0151.5824-.4718.888-.9466.9128h-2.0876z"/><path d="m75.3085 46.7102.3767.904h1.7591l-2.6334-6.3207h-2.4482l-2.6176 6.3207h1.7591l.3764-.904zm-1.8177-3.903h.1934l1.0467 2.521h-2.2735z"/><path d="m111.794 47.7535c-1.569-.0093-3.032-1.0546-3.169-2.7434v-3.7176h1.7v3.7587c.031.7467.654 1.2821 1.46 1.2884.806-.0066 1.426-.5421 1.456-1.2884v-3.7587h1.702v3.7176c-.136 1.6888-1.58 2.7338-3.149 2.7434z"/><path d="m126.962 41.2925h5.625v1.5293h-3.975v.8866h3.603v1.4438h-3.603v.9332h4.154v1.5278h-5.804z"/><path d="m15.7979 47.7535c-1.5687-.0093-3.0331-1.0546-3.169-2.7434v-3.7176h1.6987v3.7587c.0338.7467.6544 1.2821 1.4596 1.2884.8062-.0066 1.4264-.5421 1.46-1.2884v-3.7587h1.6994v3.7176c-.1352 1.6888-1.5805 2.7338-3.1487 2.7434z"/><path d="m25.8045 42.1233-.7392 1.2263s-.7897-.7486-2.2187-.7486c-1.032 0-1.2147.326-1.2147.5181 0 .1783.1403.316.481.3489.5643.0555 2.3068.229 2.8007.4862.4968.2546 1.0213.7234 1.0213 1.6636 0 .9662-.5388 2.1351-3.0176 2.1351-2.0036 0-3.0106-1.0753-3.0106-1.0753l.7197-1.3073s1.0843.9487 2.3996.9487c1.3137 0 1.436-.4717 1.436-.7256 0-.3186-.7112-.3678-1.4474-.4248-.6033-.0477-1.2254-.1206-1.47-.1957-1.1591-.36-1.3937-1.0509-1.3937-1.775 0-.8622.4457-2.0858 2.7241-2.0858 2.0353 0 2.9295 1.0112 2.9295 1.0112z"/><path d="m32.5438 42.1233-.7396 1.2263s-.7904-.7486-2.2198-.7486c-1.0317 0-1.214.326-1.214.5181 0 .1783.14.316.481.3489.5632.0555 2.3053.229 2.8018.4862.4946.2546 1.0184.7234 1.0184 1.6636 0 .9662-.5381 2.1351-3.0161 2.1351-2.0036 0-3.0095-1.0753-3.0095-1.0753l.7193-1.3073s1.0847.9487 2.3988.9487c1.3138 0 1.4361-.4717 1.4361-.7256 0-.3186-.7127-.3678-1.4471-.4248-.6044-.0477-1.2269-.1206-1.4689-.1957-1.1587-.36-1.3933-1.0509-1.3933-1.775 0-.8622.4446-2.0858 2.7222-2.0858 2.0364 0 2.9307 1.0112 2.9307 1.0112z"/></g></svg>