<svg width="130" height="35" viewBox="0 0 130 35" fill="none" xmlns="http://www.w3.org/2000/svg">
<path d="M0 0V32.5104L32.5104 0H0Z" fill="#92CFAE"/>
<path d="M2.32227 34.8326H34.8326V2.32227L2.32227 34.8326Z" fill="#2A8288"/>
<path fill-rule="evenodd" clip-rule="evenodd" d="M53.2853 0H41.4673V34.8325H49.1704V22.1664H53.5243C61.3239 22.1664 66.3477 18.6585 66.3477 11.3021V11.1078C66.3477 3.75096 61.6106 0 53.2853 0ZM58.8836 11.3514C58.8836 14.8101 56.8741 16.6612 53.0941 16.6612H49.1704V5.99231H53.0941C56.7782 5.99231 58.8836 7.45372 58.8836 11.156V11.3514Z" fill="white"/>
<path fill-rule="evenodd" clip-rule="evenodd" d="M69.665 34.8325H81.9646C90.2737 34.8325 94.5454 30.8862 94.5454 24.0663V23.8708C94.5454 16.9048 89.9451 13.4455 82.1991 13.4455H77.176L77.2233 6.13849H91.5413V0H69.665V34.8325ZM87.2695 24.017C87.2695 27.1839 85.3915 28.8402 81.6828 28.8402H77.176V18.9995H81.4951C85.3915 18.9995 87.2695 20.7044 87.2695 23.8227V24.017Z" fill="white"/>
<path d="M100.144 0.0486457H108.232V15.0326L120.713 0H129.301L115.172 16.492L130 34.8325H120.564L108.232 19.2162V34.8325H100.144V0.0486457Z" fill="white"/>
</svg>
