<svg fill="none" height="100" viewBox="0 0 81 100" width="81" xmlns="http://www.w3.org/2000/svg"><g fill="#fff"><path d="m.0258789 75.8469v-22.395c0-1.168 0-1.1715 1.1805111-1.1715 3.95901 0 7.89823-.0412 11.84641.0214 1.4632.0066 2.9217.1661 4.3514.4758 3.6261.8353 5.8143 3.3751 6.2336 7.0614.1184 1.0326.1785 2.071.18 3.1104.0084 8.9823.0036 17.9641-.0144 26.9452 0 1.921-.3419 3.7936-1.3209 5.4874-1.517 2.6257-3.995 3.7865-6.8599 3.901-4.8984.1949-9.80576.1287-14.707742.2074-.8493889.0126-.8835804-.4328-.8835804-1.0731.0107973-7.5253.0107973-15.0505 0-22.5757zm9.5988111.0448h-.0108v13.2034c0 2.6489.00001 2.6489 2.65071 2.3001 1.1482-.152 1.8194-.7333 1.9454-1.8655.1041-1.034.1497-2.073.1367-3.1121.0072-7.6707.0072-15.3432 0-23.0175 0-2.3019-.8296-3.1068-3.1438-3.1301h-.2753c-1.29931 0-1.30291 0-1.30291 1.252z"/><path d="m28.5577 75.9273c0-5.1154-.0126-10.2326.0108-15.3498-.0027-.9212.0835-1.8406.2574-2.7455.646-3.1747 2.6075-5.1869 5.8143-5.6341 3.9446-.5526 7.9468-.6081 11.8771.0358 3.4353.5616 5.4328 2.8922 5.8485 6.3281.0971.7971.1476 1.5991.1512 2.4021.0132 9.9351.0132 19.8713 0 29.8088-.004 1.0692-.113 2.1355-.3258 3.1837-.619 3.0531-2.4761 5.0349-5.5786 5.5446-3.9598.653-7.9999.665-11.9634.034-3.923-.6242-6.0339-3.3786-6.0717-7.4548-.0486-5.3837-.0108-10.7692-.0108-16.1547zm14.3965-.025h.009v-13.1999c0-2.5988-.2538-2.8475-2.8793-2.8081-1.4721.0215-2.0317.5366-2.0353 1.9853-.0144 9.3353-.0192 18.6706-.0144 28.0059 0 1.4309.5722 1.9675 2.0299 2.0122h.808c1.6196-.025 2.0803-.4811 2.0821-2.0837.0084-4.6361.0101-9.2733.0054-13.9117z"/><path d="m57.2534 75.8863c0-5.0564-.0432-10.1145.027-15.1709.0045-1.3932.2099-2.7786.61-4.1138.8224-2.6113 2.8433-4.1978 5.4797-4.3821 3.7394-.2629 7.5437-.372 11.2616.0143 3.833.3989 5.9385 3.1641 6.0969 7.2224.1205 3.0603.0287 6.1278.0521 9.1916 0 .5491-.2195.7262-.7468.7155-2.6021-.0143-5.2061-.0197-7.8082 0-.6533 0-.817-.2844-.8116-.8639.018-2.082.018-4.1645 0-6.2476 0-.7941.1187-1.8512-.8044-2.0784-.9898-.2432-2.1055-.1395-3.1295.0322-.3041.0519-.6244.8299-.6856 1.3075-.1116.8782-.036 1.7797-.036 2.6722 0 8.4493-.0042 16.8981-.0126 25.3462 0 .8085-.0953 1.7242.8188 2.0927 1.1085.4454 2.3214.5133 3.3598-.1502.3491-.2236.5399-.9158.5525-1.3987.0527-2.6782.0527-5.3557 0-8.0326-.0162-.8639.2573-1.1251 1.1193-1.1072 2.4528.0501 4.9056.0358 7.3601 0 .7199-.0089.997.1914.988.9533-.0396 3.2428.045 6.4873-.0432 9.7282-.0702 2.5899-.6658 5.0242-2.9567 6.6805-1.4864 1.0731-3.223 1.4791-4.9901 1.5131-2.9549.0573-5.9241.0555-8.8718-.152-4.0436-.2844-6.7033-3.1193-6.7663-7.1848-.0864-5.5322-.0216-11.0661-.0216-16.6z"/><path d="m48.3219 16.4747v14.6361c0 1.3379 0 1.3379 1.3029 1.3379.6874 0 1.3766.0232 2.064 0 .5399-.0215.7576.1789.7559.7154-.0144 2.231-.0144 4.462 0 6.693 0 .5598-.27.7154-.7793.7065-.808-.0179-1.6196.034-2.4222-.0143-.7198-.0447-.9357.2718-.9267.9408.0252 1.7546-.0198 3.511.0198 5.2656.0162.7405-.2466.982-.9862.9694-2.2134-.0375-4.4287-.0322-6.6421 0-.6641.009-.8998-.22-.889-.8782.0306-1.7242-.0252-3.452.0252-5.1744.0252-.8424-.234-1.1375-1.1139-1.1286-3.8889.0411-7.7795 0-11.6684.034-.8331 0-1.0797-.2504-1.0689-1.0732.045-2.5863 0-5.1762.0288-7.7643.0074-.5328.0897-1.062.2447-1.5722 2.9165-9.5571 5.8378-19.1124 8.7639-28.66586.2321-.767309.592-1.010558 1.3856-1.001615 3.6207.040541 7.2408.040541 10.8603 0 .8278 0 1.0798.248615 1.0798 1.073155-.0324 4.96695-.0162 9.93572-.0162 14.90442zm-8.5047-3.7561-.2592-.0339c-1.9021 6.5391-3.8024 13.0782-5.7477 19.7658h4.6788c1.3371 0 1.3407 0 1.3407-1.2985 0-5.8559 0-11.7124 0-17.5695z"/><path d="m11.2997 47.7174c-3.44252 0-6.88506-.0179-10.325809.0143-.734217 0-.9843552-.1967-.97355786-.9497.03959016-2.767.01079736-5.5339.01259686-8.3027 0-2.9709.99515-5.6073 2.8253-7.9235 2.32862-2.9476 4.70583-5.8577 7.05964-8.7874.76483-.9533 1.53863-1.8995 2.27643-2.8743.7747-.9987 1.1749-2.2346 1.1319-3.4949-.0378-1.7546 0-3.511-.0126-5.2674-.009-1.50245-.556-2.02114-2.0839-2.01399-1.52778.00716-2.06764.54016-2.07844 2.04259-.01619 2.1463-.03239 4.2926 0 6.4264.0144.7548-.17995 1.0732-1.00235 1.0517-2.33942-.0447-4.66804-.0393-7.00206 0-.748611.0072-.968156-.2718-.959158-.9944.032391-2.7974-.012597-5.5948.030592-8.39214.02206-.86105.136683-1.71729.341915-2.55412.671231-2.82241 2.468981-4.62353 5.310481-5.185155 3.51992-.690399 7.10642-.640318 10.62812-.107316 3.4912.53658 5.6236 2.504041 5.9242 5.990021.3437 4.00651.2195 8.07371.0126 12.09991-.1278 2.4682-1.6196 4.5055-3.1475 6.4067-2.6993 3.3769-5.44 6.7234-8.1537 10.0895-.8098 1.0052-1.52425 2.0551-1.65742 3.3984-.07198.7315.16376.9998.92682.9944 3.779-.0286 7.5437 0 11.3137-.025.7702 0 1.0546.1967 1.0366.9998-.0504 2.1124-.045 4.2265 0 6.3388.0162.7727-.2178 1.0338-1.0168 1.0267-3.4713-.0376-6.9444-.0161-10.4158-.0161z"/><path d="m69.0079 47.7108c-3.5883 0-7.1748-.0197-10.7613.0143-.7558 0-.9735-.2397-.9555-.9694.0467-1.7528.0305-3.5074 0-5.2603 0-.5777.1223-.8585.7882-.8567 7.2917.0155 14.5847.0155 21.8789 0 .6299 0 .8296.2182.8206.8299-.0306 1.7886-.0396 3.5665 0 5.3479.0162.7154-.2303.9158-.9286.9104-3.6099-.0286-7.227-.0143-10.8423-.0161z"/></g></svg>