<svg fill="none" height="48" viewBox="0 0 160 48" width="160" xmlns="http://www.w3.org/2000/svg"><path clip-rule="evenodd" d="m0 0v47.015h32.8072v-47.015zm28.0598 4.73581v37.54299h-23.33569v-37.54299z" fill="#ffd520" fill-rule="evenodd"/><g fill="#fff"><path d="m54.6059 21.0879h-2.0298c-2.6602-3.7613-5.3093-7.4995-7.9466-11.73074v11.73074h-2.2931v-16.36353h2.0295c2.6604 3.73823 5.3092 7.45363 7.9236 11.66203v-11.66203h2.2935v16.36353z"/><path clip-rule="evenodd" d="m55.3398 21.0879 5.6648-16.35201.069-.01152h2.2931l5.1717 16.36353h-3.1306l-1.2841-4.4607h-4.9309l-1.4218 4.4607zm4.9116-7.5238c-.108.3501-.2162.7012-.3245 1.0564h3.7382c-.1184-.418-.236-.8303-.3534-1.242-.4849-1.7002-.9666-3.38925-1.4928-5.4202-.4879 2.1047-1.0237 3.8424-1.5675 5.6058z" fill-rule="evenodd"/><path d="m71.1988 21.0878v-14.16172h-4.3004v-2.19024h11.3755v2.19024h-4.3v14.16172h-2.8094z"/><path d="m79.2256 21.0879v-16.36353h2.7864v16.36353z"/><path clip-rule="evenodd" d="m97.584 12.6022c0 4.8851-2.6603 8.692-6.9374 8.692v.0803c-4.277 0-6.9376-3.8187-6.9376-8.7723 0-4.58675 2.9472-8.2333 6.9376-8.2333s6.9374 3.64655 6.9374 8.2333zm-10.8936.0457c0 3.1306 1.0322 6.3528 3.9562 6.3528 2.9241 0 3.9448-3.3368 3.9448-6.3528 0-3.01564-1.1352-5.89404-3.9448-5.89404-2.8095 0-3.9562 2.76352-3.9562 5.89404z" fill-rule="evenodd"/><path d="m111.528 21.0879h-2.029c-2.661-3.7613-5.31-7.4995-7.947-11.73074v11.73074h-2.2932v-16.36353h2.0292c2.661 3.73823 5.31 7.45363 7.924 11.66203v-11.66203h2.293v16.36353z"/><path clip-rule="evenodd" d="m112.308 21.0993 5.653-16.36346h.035 2.293l5.218 16.36346h-3.131l-1.284-4.4608h-4.931l-1.422 4.4608zm4.899-7.5316c-.108.3488-.216.6988-.324 1.0527h3.739c-.115-.4056-.229-.8059-.343-1.2054-.489-1.7126-.974-3.4113-1.504-5.45681-.488 2.10611-1.024 3.84481-1.568 5.60951z" fill-rule="evenodd"/><path d="m126.321 4.72437h2.787v14.16173h5.538v2.2018h-8.325z"/><path d="m52.8745 34.7795v6.7539c-1.4755.6231-3.0543.9651-4.6554 1.0091-4.8163 0-7.8553-3.7382-7.8553-8.5542 0-4.461 3.039-8.3709 7.9468-8.3709 1.42.0079 2.8037.4479 3.9677 1.2613l-.9059 1.9379c-.9061-.5417-1.9374-.8379-2.9926-.8598-2.9932 0-5.0229 2.3622-5.0229 6.0774s2.2933 6.1693 4.7475 6.1693c.6766.0293 1.3501-.1088 1.9606-.4014v-5.0226z"/><path d="m62.9082 28.0939h-4.6785v4.4838h4.5867v2.2018h-4.5867v5.2862h5.5157v2.2016h-8.325v-16.3862h7.4766v2.2016z"/><path clip-rule="evenodd" d="m78.4921 33.8048c0 4.8848-2.6605 8.692-6.9376 8.692v.0458c-4.2772 0-6.9373-3.8071-6.9373-8.7378 0-4.5867 2.947-8.2333 6.9373-8.2333 3.9905 0 6.9376 3.6466 6.9376 8.2333zm-10.8822.0459c0 3.1303 1.0206 6.3527 3.9446 6.3527 2.9242 0 3.9562-3.337 3.9563-6.3527 0-3.016-1.1582-5.8942-3.9563-5.8942-2.7979 0-3.9446 2.7637-3.9446 5.8942z" fill-rule="evenodd"/><path d="m91.9658 34.7795v6.7539c-1.4755.6231-3.0546.9651-4.6557 1.0091-4.8161 0-7.855-3.7382-7.855-8.5542 0-4.461 3.0389-8.3709 7.9469-8.3709 1.4198.0079 2.8035.4479 3.9675 1.2613l-.9058 1.9379c-.9062-.5417-1.9378-.8379-2.9931-.8598-2.9928 0-5.0226 2.3622-5.0226 6.0774s2.2935 6.1693 4.7474 6.1693c.6766.0293 1.3501-.1088 1.9609-.4014v-5.0226z"/><path clip-rule="evenodd" d="m101.208 35.479 3.245 6.7771h-3.142l-2.6371-6.1696h-1.2614v6.1696h-2.8095v-16.3635h4.369c3.13 0 5.068 1.5478 5.068 4.7243.019 2.0174-1.068 3.8829-2.832 4.8621zm-3.8414-7.3851h-.023l.023-.0114zm0 0v5.9517l1.1467-.0688c.0604-.004.1204-.0101.18-.0178 1.5767-.2062 2.6867-1.6512 2.4807-3.2275.02-.169.021-.3397.004-.5091-.129-1.3048-1.2914-2.2576-2.5959-2.1285z" fill-rule="evenodd"/><path clip-rule="evenodd" d="m104.5 42.2444 5.653-16.3633h.046 2.293l5.217 16.3633h-3.13l-1.284-4.4609h-4.931l-1.422 4.4609zm4.899-7.5124c-.107.3502-.216.7014-.324 1.0566h3.738c-.143-.5073-.285-1.0051-.426-1.5026-.461-1.6168-.92-3.2307-1.42-5.1599-.488 2.1049-1.024 3.8426-1.568 5.6059z" fill-rule="evenodd"/><path clip-rule="evenodd" d="m118.626 25.8811h4.369c3.096 0 5.034 1.5592 5.08 4.7357.002.0539.002.108.002.1621-.02 2.9512-2.428 5.3275-5.379 5.3076h-1.262v6.1579h-2.81zm2.821 8.1528 1.147-.0688-.034.0232c.079-.0042.157-.0114.235-.0218 1.582-.211 2.694-1.6644 2.482-3.2465.019-.1605.021-.3226.007-.4839-.117-1.3056-1.27-2.2697-2.575-2.1534h-1.262z" fill-rule="evenodd"/><path d="m141.033 42.2561h-2.809v-7.8779h-5.825v7.8779h-2.787v-16.375h2.787v6.2837h5.825v-6.2381h2.809v16.3177z"/><path d="m143.717 42.2561v-16.375h2.786v16.3633h-2.786z"/><path d="m159.117 28.8626c-.864-.5467-1.857-.8589-2.878-.9057-2.856 0-4.931 2.3619-4.931 6.0771s2.294 6.1694 5 6.1694c.994-.0026 1.968-.2845 2.809-.8141l.769 2.0298c-1.102.7149-2.38 1.1115-3.693 1.1465-4.816 0-7.855-3.7382-7.855-8.5545 0-4.4605 3.016-8.3707 7.901-8.3707 1.35.0419 2.658.4806 3.761 1.2614z"/></g></svg>