<svg fill="none" height="101" viewBox="0 0 160 101" width="160" xmlns="http://www.w3.org/2000/svg"><path d="m7.70393 36.5327h69.95227l-7.7111 27.5002h-69.9451z" fill="#1e59ae"/><path d="m77.3226 36.5327h82.6774l-7.704 27.5002h-82.6773z" fill="#f7f7fc"/><path d="m35.2485 68.5707h.0072v5.2821h6.4414v.0072l-6.4414 2.9665v5.2893c0 .0072 0 .0072-.0072.0072l-4.4832-3.229-7.0081 3.2218c-.0072 0 0-.0072 0-.0072l4.3576-5.1311-4.3576-3.1175c-.0072 0-.0072 0-.0072-.0072h.0072 7.0081zm11.7532 13.3473h.0071v.0072 5.275h6.4415v.0072l-6.4415 2.9664v5.2894c0 .0072-.0071.0072-.0071.0072l-4.4832-3.229-7.0082 3.2218c0 .0072 0 0-.0071 0l.0071-.0072 4.3577-5.1311-4.3577-3.1175c-.0071 0-.0071-.0072-.0071-.0072h.0071 7.0082zm20.9849 4.8687h.0072v.0071 5.275h6.4414v.0072l-6.4414 2.9665v5.2895c0 .007-.0072.007-.0072.007l-4.4832-3.229-7.0081 3.229s0 0-.0072-.007l.0072-.007 4.3577-5.1315-4.3577-3.1175c-.0072 0-.0072 0-.0072-.0072h.0072 7.0081zm24.0479-5.1599h.0072v.0072 5.2749h6.4414v.0072l-6.4414 2.9665v5.2893c0 .0072 0 .0072-.0072.0072l-4.4832-3.229-7.0081 3.2218v-.0072l4.3576-5.1311-4.3576-3.1175-.0072-.0072h.0072 7.0081zm23.3195-13.0561h.007v5.2821h6.442v.0072l-6.442 2.9665v5.2893c0 .0072 0 .0072-.007.0072l-4.483-3.229-7.008 3.2218s0 0-.007 0l.007-.0072 4.358-5.1311-4.358-3.1175c-.007 0-.007 0-.007-.0072h.007 7.008zm-60.7955-50.797h.0072v5.2822h6.4415v.0071l-6.4415 2.9665v5.2893c0 .0072-.0072.0072-.0072.0072l-4.4832-3.2289-7.0081 3.2217c-.0072 0 0-.0071 0-.0071l4.3577-5.1348-4.3577-3.1103c-.0072 0-.0072-.0072-.0072-.0072h.0072 7.0081zm22.538-12.43044h.0072v.00719 5.27495h6.4414v.0072l-6.4414 2.9665v5.2893c0 .0072-.0072.0072-.0072.0072l-4.4832-3.229-7.0082 3.2218s0 0-.0071 0l.0071-.0072 4.3577-5.1383-4.3577-3.1103c-.0071 0-.0071-.0072-.0071-.0072h.0071 7.0082zm23.5025-5.34326h.007v.00719147 5.27493853h6.442v.0072l-6.442 2.96648v5.28929c0 .0072-.007.0072-.007.0072l-4.483-3.2289-7.0081 3.2217c0 .0072-.0072 0-.0072 0s0-.0072.0072-.0072l4.3576-5.13107-4.3648-3.1175s0 0 0-.0072h.0072 7.0081zm20.497 5.37203h.008v.00719 5.27498h6.441v.0072l-6.445 2.9664v5.2894c0 .0072 0 .0072-.007.0072l-4.483-3.229-7.005 3.2218c-.007 0 0-.0072 0-.0072l4.358-5.1383-4.358-3.1103c-.007 0-.007-.0072-.007-.0072h.007 7.008zm13.339 12.37647h.007v5.2822h6.434.007v.0072l-6.441 2.9665v5.2893c0 .0072-.007.0072-.007.0072l-4.483-3.229-7.009 3.2218c-.007 0 0-.0072 0-.0072l4.358-5.1383-4.358-3.1103c-.007 0-.007-.0072-.007-.0072h.007 7.009z" fill="#1e59ae"/><path d="m134.808 60.5521-1.194-8.5686c2.378-.9529 3.54-3.0096 4.275-5.6202 1.029-3.6388.628-6.1954-4.186-6.1954h-2.51-3.892l-5.749 20.4202h3.892l2.263-8.0293h1.936l1.008 7.9933zm-4.896-16.9503h2.69c2.167 0 2.098 1.2657 1.675 2.758-.419 1.4922-1.069 2.7651-3.235 2.7651h-2.69zm-28.922-3.4483h-2.5102-3.8915l-5.7528 20.413h3.8914l2.2631-8.0293h2.5106c4.8134 0 6.6564-2.5529 7.6754-6.1882 1.026-3.6425.628-6.1955-4.186-6.1955zm-2.6573 8.9534h-2.6971l1.5602-5.5267h2.6899c2.1663 0 2.0983 1.2729 1.6753 2.7652-.42 1.4958-1.069 2.7615-3.2283 2.7615zm-11.8033-3.6281c-.1112-1.9237-.807-2.4199-2.1592-2.4199-1.3736 0-2.2846.5249-2.6755 1.9093-.8608 3.078 7.4564 4.2609 5.6631 10.6434-.9863 3.4986-3.8483 5.1778-7.9263 5.1778-3.1525 0-5.2005-1.4095-5.1108-5.4151l4.0564-.8163c-.2403 2.4559 1.0078 3.0097 2.1591 3.0097 1.345 0 2.5536-.5826 2.9804-2.1107 1.0904-3.8367-7.2843-4.8471-5.6775-10.5535.9863-3.4987 3.5041-5.07 7.5246-5.07 3.4539 0 5.075 1.7439 4.9387 4.6277zm19.1736 9.126c-1.42 5.0268.897 6.1954 4.663 6.1954s6.739-1.1686 8.152-6.1954l2.414-8.5543c1.413-5.0268-.897-6.1954-4.663-6.1954s-6.739 1.1686-8.152 6.1954zm6.345-8.7484c.635-2.2546 1.703-2.5602 3.249-2.5602s2.443.3056 1.808 2.5602l-2.518 8.9353c-.642 2.2618-1.704 2.5638-3.257 2.5638-1.545 0-2.442-.3056-1.807-2.5638zm43.085-5.7029-.972 3.4447h-4.526l-4.774 16.9395h-3.877l4.774-16.9395h-4.526l.971-3.4447z" fill="#ee114b"/><path d="m55.2223 54.6049c-1.4131 5.0269.8966 6.1955 4.6625 6.1955s6.7391-1.1686 8.1523-6.1955l2.4137-8.5542c1.4131-5.0269-.8966-6.1955-4.6625-6.1955s-6.7392 1.1686-8.1523 6.1955zm6.3482-8.7484c.6348-2.2545 1.7036-2.5602 3.2494-2.5602s2.4496.3057 1.8076 2.5602l-2.5177 8.9354c-.6349 2.2617-1.7036 2.5638-3.2495 2.5638-1.5529 0-2.4496-.3057-1.8076-2.5638zm-56.07587 14.6958 5.74567-20.3842h10.6234l-.9648 3.4519h-6.7463l-1.3235 4.6816h5.1468l-.9756 3.4411h-5.1467l-1.5099 5.3649h7.0296l-.9719 3.4447zm23.83267-20.3986-4.1102 14.5771c-.5451 1.9417.0969 2.6428 1.9798 2.6428s2.9517-.6975 3.5041-2.6428l4.1102-14.5771h3.877l-4.207 14.9223c-1.2625 4.4874-4.2608 5.7388-8.2491 5.7388-3.9918 0-6.2549-1.2514-4.9853-5.7388l4.207-14.9223zm21.0782 20.3986-1.1943-8.5687c2.3779-.9528 3.5399-3.0096 4.2752-5.6201 1.0293-3.6389.6276-6.1954-4.1855-6.1954h-2.5106-3.8914l-5.7493 20.4201h3.8914l2.2631-8.0292h1.9368l1.0078 7.9933zm-4.8956-16.9503h2.6899c2.1663 0 2.0981 1.2657 1.6749 2.7579-.4196 1.4922-1.0688 2.7651-3.2351 2.7651h-2.6899z" fill="#fff"/></svg>