<svg fill="none" height="100" viewBox="0 0 134 100" width="134" xmlns="http://www.w3.org/2000/svg"><path clip-rule="evenodd" d="m0 .0000072h133.333v99.9999928h-133.333z" fill="#c02519" fill-rule="evenodd"/><g fill="#fff"><path d="m42.2349 66.17h2.6635v19.5785h-2.4111l-13.0905-15.0793v15.0793h-2.6341v-19.5785h2.2698l13.2024 15.2063z"/><path d="m49.9502 66.1699h11.1v2.4937h-8.2968v5.9706h8.0166v2.5087h-8.0166v6.0834h8.5627v2.4944h-11.3659z"/><path d="m90.9657 66.1698h2.7953l-7.9167 19.6635h-.6159l-6.4016-15.9223-6.4682 15.9223h-.6016l-7.8913-19.6635h2.8238l5.3953 13.496 5.4325-13.496h2.65l5.4572 13.496z"/><path d="m101.356 77.5452-2.1298-1.2945c-1.3365-.8158-2.2873-1.6182-2.8524-2.4079s-.8484-1.6984-.8484-2.7262c0-1.542.5349-2.7936 1.6056-3.7555 1.069-.9627 2.4595-1.4445 4.17-1.4445 1.634 0 3.134.4595 4.499 1.377v3.1817c-1.411-1.3571-2.93-2.0357-4.556-2.0357-.915 0-1.6678.2119-2.2567.6357-.5881.4231-.8833.9651-.8833 1.6262 0 .5857.2174 1.1358.6508 1.6469.4341.5127 1.1309 1.05 2.0922 1.6119l2.141 1.2674c2.388 1.427 3.582 3.2429 3.582 5.4476 0 1.5699-.526 2.8453-1.576 3.8262-1.052.981-2.419 1.4707-4.1 1.4707-1.9337 0-3.6948-.5929-5.2837-1.7826v-3.5603c1.5127 1.9183 3.2651 2.877 5.2557 2.877.878 0 1.609-.2445 2.194-.7333.584-.4889.876-1.1008.876-1.8365 0-1.1913-.861-2.3215-2.58-3.3913z"/><path d="m41.057 39.4969h2.7961l-7.9159 19.6635h-.6167l-6.4016-15.9206-6.4682 15.9206h-.6016l-7.8921-19.6635h2.8254l5.3953 13.4976 5.4317-13.4976h2.65l5.4572 13.4976z"/><path d="m54.8841 41.8801c-2.2413 0-4.0825.7008-5.5246 2.1016-1.4428 1.4024-2.1635 3.1921-2.1635 5.3683 0 2.1119.7238 3.869 2.1706 5.2706 1.4469 1.4008 3.258 2.1016 5.4334 2.1016 2.1833 0 4.0063-.7151 5.4682-2.1445 1.4604-1.4293 2.1905-3.2095 2.1905-5.3396 0-2.0746-.7301-3.8191-2.1905-5.2349-1.4619-1.4159-3.2563-2.1231-5.3841-2.1231zm-.1127-2.6634c3.0254 0 5.5445.9579 7.5564 2.8738 2.0119 1.915 3.019 4.3166 3.019 7.2031 0 2.8881-1.0159 5.277-3.0468 7.1699-2.031 1.8912-4.5913 2.8373-7.6833 2.8373-2.9493 0-5.408-.9461-7.3731-2.8373-1.9658-1.8929-2.9492-4.2635-2.9492-7.1135 0-2.9246.9897-5.3445 2.9691-7.2595 1.9801-1.9159 4.4825-2.8738 7.5079-2.8738z"/><path d="m72.235 41.8801h-.8405v6.1809h1.0651c1.4198 0 2.3936-.1214 2.9222-.365.5278-.2421.9389-.6096 1.2333-1.0993.2945-.4904.4413-1.0492.4413-1.6761 0-.6159-.1635-1.1738-.4905-1.6746-.327-.5-.7873-.8524-1.3801-1.0572-.5937-.2063-1.5778-.3087-2.9508-.3087zm-3.6437 17.1968v-19.5801h4.9048c1.9809 0 3.5539.4904 4.7166 1.4714 1.1635.9817 1.7445 2.3079 1.7445 3.9809 0 1.1405-.2841 2.1262-.854 2.958-.5706.8309-1.3881 1.4532-2.4532 1.8635.6262.4119 1.2381.9722 1.8357 1.6825.5985.7095 1.4389 1.9468 2.5231 3.7127.6825 1.1127 1.2293 1.9492 1.6397 2.5087l1.0373 1.4024h-3.3358l-.8539-1.2897c-.0286-.0468-.0842-.127-.1683-.2389l-.5452-.7714-.8683-1.4301-.9381-1.5286c-.5777-.804-1.1079-1.4437-1.5897-1.9199-.4817-.4754-.9174-.8182-1.3047-1.0285-.3889-.2088-1.0413-.3143-1.9579-.3143h-.7294v8.5214z"/><path d="m86.4189 39.4968h2.8032v17.0293h8.8151v2.5508h-11.6183z"/><path d="m107.687 41.992h-3.504v14.5619h3.587c1.402 0 2.49-.0952 3.267-.2873.774-.1913 1.421-.4349 1.941-.7286.517-.2952.992-.6563 1.421-1.0865 1.383-1.4016 2.075-3.1714 2.075-5.3119 0-2.1024-.71-3.8167-2.13-5.1428-.523-.4953-1.124-.9024-1.801-1.2199-.679-.3174-1.321-.5278-1.928-.6309-.607-.1024-1.583-.154-2.928-.154zm-6.308 17.0563v-19.5515h6.601c2.664 0 4.77.4 6.322 1.1992 1.551.7984 2.784 1.973 3.7 3.5246.915 1.5508 1.373 3.242 1.373 5.073 0 1.3087-.252 2.5603-.757 3.7563-.504 1.1969-1.224 2.2477-2.158 3.1532-.953.9357-2.061 1.6405-3.322 2.1167-.738.2897-1.415.4833-2.032.5817s-1.794.1468-3.531.1468z"/><path d="m69.2454 24.4841c-.0016.419-.1302.8413-.5048 1.169-.3738.3286-1.0206.5786-2.0921.5786h-2.1563v-3.4579h2.0603c.9611 0 1.6429.1952 2.0706.4992.4262.3063.6191.7087.6223 1.2111z"/><path d="m67.4985 20.3438c.4016-.2889.5953-.6984.5976-1.3119-.0015-.4215-.1222-.7826-.4253-1.0516-.304-.2699-.8199-.4611-1.6532-.4611h-1.5254v3.2769h1.0468c.9064 0 1.5556-.1611 1.9595-.4523z"/><path d="m71.5714 24.7381c.0055-1.5984-1.0588-2.8135-2.7627-3.2801.4603-.235.8238-.5223 1.0904-.8723.3556-.4698.5262-1.0452.5238-1.7166.0024-.8238-.3222-1.6643-1.0182-2.2937-.6968-.6286-1.754-1.0357-3.1968-1.0349h-3.985v12.6714h4.6746.0024c1.6683 0 2.8397-.4524 3.5937-1.123.7547-.6675 1.0786-1.5436 1.0778-2.3508zm4.442 5.9294h-18.696v-17.5937h18.696z"/><path d="m45.9562 20.3438c.4008-.2889.5953-.6984.5985-1.3119-.0008-.4215-.1223-.7826-.4254-1.0516-.3048-.2699-.8207-.4611-1.6548-.4611h-1.5238v3.2769h1.0468c.9056 0 1.5548-.1611 1.9587-.4523z"/><path d="m47.0809 23.273c-.427-.304-1.1096-.4992-2.0699-.4992h-2.0603v3.4579h2.1563c1.0715 0 1.7167-.25 2.0913-.5786.3746-.3277.504-.75.5048-1.169-.0032-.5024-.1961-.9048-.6222-1.2111z"/><path d="m50.03 24.7381c.0056-1.5984-1.0603-2.8135-2.7619-3.2801.4588-.235.8223-.5223 1.0881-.8723.3572-.4698.5262-1.0452.5254-1.7166.0008-.8238-.323-1.6643-1.019-2.2937-.6961-.6286-1.7532-1.0357-3.1961-1.0349h-3.9857v12.6714h4.6738.0032c1.6691 0 2.8397-.4524 3.5937-1.123.7539-.6675 1.0801-1.5436 1.0785-2.3508zm4.4421 5.9294h-18.6952v-17.5937h18.6952z"/><path d="m93.8429 24.8199-.3.1833c-1.4476.8841-3.0222 1.3579-4.4524 1.3571-3.0619-.0119-5.0778-1.8262-5.0857-4.4658.0032-2.5834 2.1087-4.4953 5.0079-4.5016 1.477.0008 2.8143.3825 4.404 1.2539l.2921.1604v-2.358l-.1254-.0492c-1.7921-.7071-3.1802-1.0222-4.5508-1.0214-2.1199-.0008-3.9587.6992-5.2691 1.8865-1.3095 1.1881-2.0881 2.8651-2.0865 4.7913.0008 1.342.554 2.9142 1.7397 4.1627 1.1817 1.2484 3.0032 2.1579 5.5008 2.1571h.0087c2.0715 0 3.508-.4611 4.8064-1.1016l.1103-.054zm3.7127 5.8476h-18.6952v-17.5937h18.6952z"/></g></svg>