<svg fill="none" height="58" viewBox="0 0 160 58" width="160" xmlns="http://www.w3.org/2000/svg"><path d="m55.8868 57.6564c-.4134-1.7052-7.3536-35.2373-7.3035-35.2877.0649-.0653 8.9728-1.1153 9.0053-1.0614.0905.1501 2.6347 16.1939 3.3551 21.1574.3704 2.5524.6963 4.6637.7241 4.6917.0695.0699.0942-.0245.9292-3.5581 1.233-5.2172 4.3464-16.999 5.6992-21.5665.0635-.2144.3591-.2326 3.7619-.2326h3.6931l.1229.3252c.206.5452 3.7622 13.1149 4.5524 16.0906.4076 1.5352 1.0814 4.1807 1.4972 5.8788s.787 3.0888.825 3.0905c.0379.0016.2054-1.0588.3721-2.3564.7386-5.7476 3.3449-23.3621 3.4758-23.4909.0616-.0606 7.6362.9442 7.7149 1.0234.0339.0341-1.5291 8.0572-3.4734 17.8291l-3.535 17.7671-5.0135-.0346-5.0135-.0346-.5072-1.728c-2.0646-7.0337-4.0363-14.2939-4.9275-18.1438-.1946-.8407-.394-1.5728-.4431-1.6269-.0491-.054-.3753 1.2021-.7249 2.7914-.6071 2.7605-3.275 13.5446-4.217 17.0458l-.447 1.6615-5.0249.0348-5.0248.0348zm40.4649-17.7799v-18.0773h4.4253 4.425v18.0773 18.0774h-4.425-4.4253zm12.9453 0v-18.0773h4.491 4.492v14.7543 14.7543h5.482 5.482v3.323 3.3231h-9.974-9.973zm22.721.0075v-18.0848h6.335c6.701 0 8.252.0904 10.243.5972 2.751.7004 4.736 1.7661 6.606 3.548 2.523 2.4032 4.027 5.5581 4.635 9.7289.266 1.8178.195 6.175-.127 7.8999-.8 4.2777-2.174 7.1379-4.642 9.6664-2.274 2.3297-4.565 3.5897-7.991 4.395-.862.2025-1.908.2395-8.025.2835l-7.034.0507zm13.493 10.9981c1.632-.6113 2.854-1.7735 3.738-3.5558.889-1.7895 1.316-3.5738 1.55-6.4695.375-4.6426-.691-8.3762-3.014-10.5599-1.446-1.3596-2.51-1.7187-5.092-1.7187h-1.825v11.2762c0 6.2019.045 11.3225.099 11.3791.055.0567.902.0747 1.883.0402 1.47-.0518 1.937-.1206 2.661-.3916zm-43.294-33.0624c-1.94-.3087-3.3868-1.1696-4.6718-2.7806-1.1171-1.4008-1.6975-3.1087-1.8151-5.34191-.1519-2.88605.7348-5.35709 2.5532-7.11525 2.1847-2.112504 5.7267-2.6681573 8.3807-1.31489.365.18635.693.41399.728.50585.035.09187-.116.565-.335 1.05139l-.399.88436-.723-.32212c-2.574-1.14546-5.306-.26621-6.4924 2.08967-.5314 1.05536-.7188 1.79591-.8033 3.17538-.1759 2.87212.927 5.30852 2.8867 6.37792.771.4202.924.4553 1.959.449.617-.0038 1.286-.0771 1.486-.1629l.363-.1559v-2.5953-2.59527h1.387 1.387v3.45417 3.4542l-.495.2098c-1.395.5904-4.035.9489-5.396.7324zm23.889-.0768c-2.414-.5279-4.358-2.6894-5.137-5.7135-.337-1.3096-.342-4.56415-.009-5.78208.777-2.8391 2.796-5.03363 5.128-5.574663.743-.172412 2.133-.172412 2.877 0 1.633.378973 3.467 1.867483 4.329 3.514383.837 1.60046 1.036 2.54977 1.03 4.9181-.006 2.43916-.158 3.19166-1.001 4.95676-.927 1.9436-2.539 3.2818-4.439 3.6869-1.087.2318-1.696.2305-2.778-.0059zm3.062-2.6435c1.465-.8642 2.321-3.1134 2.321-6.10032 0-3.65558-1.553-6.09663-3.892-6.11866-1.913-.01801-3.298 1.42308-3.84 3.99615-.631 2.99698.261 6.91633 1.829 8.04003 1.03.7379 2.512.8135 3.582.1828zm-77.8611-6.2601v-8.8393l1.0898.00506651 1.0898.00507059.5192.7592299c1.7344 2.535773 6.2208 9.337133 6.8795 10.429333.4299.7128.8284 1.2959.8855 1.2959s.1039-2.81125.1039-6.24728v-6.24732h1.1228 1.1228v8.8393 8.8393h-1.0335-1.0335l-2.4934-3.6793c-1.3714-2.0236-3.2394-4.86856-4.1513-6.32208l-1.6578-2.64276-.0343 6.32204-.0344 6.3221h-1.1875-1.1876zm14.1342 8.7396c-.0001-.0548 1.3159-4.0325 2.9244-8.8393l2.9245-8.7396 1.2036.00170777 1.2036.0017037 2.4323 7.87390853c1.3377 4.33068 2.5666 8.30758 2.7307 8.83758l.2985.9637h-1.6215-1.6215l-.6335-2.2929c-.3484-1.2611-.6924-2.3689-.7645-2.4619-.0996-.1284-.7335-.1603-2.6448-.1329l-2.5138.036-.7371 2.4242-.7371 2.4241-1.2218.0017c-.6721.0009-1.222-.0432-1.222-.098zm8.6091-6.8795c.058-.0584-1.6161-6.44211-1.8299-6.97759-.0503-.126-.1273-.0037-.2091.3323-.0712.29243-.5086 1.87196-.972 3.51006s-.8426 3.02883-.8426 3.09043c0 .1177 3.738.1612 3.8536.0448zm8.1672-.6638v-7.64301h-2.2457-2.2456v-1.19629-1.1963h5.9443 5.9444v1.1963 1.19629h-2.2457-2.2456v7.64301 7.643h-1.4531-1.453zm28.9286-.79754v-8.44053h3.699 3.699v1.12984 1.12983h-2.312-2.312v2.32613 2.32613h2.246 2.246v1.06338 1.06337h-2.246-2.246v2.79139 2.7913h2.708 2.708v1.1299 1.1298h-4.095-4.095z" fill="#707173"/><path d="m0 .0634766v57.8126234h40.0705v-57.8126234zm5.81223 5.8485534h28.44607v46.11557c-9.482 0-18.964 0-28.44607 0 0-15.3719 0-30.7437 0-46.11557z" fill="#fc0"/></svg>