<svg fill="none" height="100" viewBox="0 0 131 100" width="131" xmlns="http://www.w3.org/2000/svg"><g fill="#fff"><path d="m41.6577 53.1251v34.7143l5.8543-4.4127v-24.3874z"/><path d="m54.2349 61.2312 7.6233-1.7411 3.0788-2.5238v-4.5764z"/><path d="m53.2779 6.02558-10.7701-4.96374 9.7358 10.90986 3.6859-3.63796z"/><path d="m0 90.3948h3.38237l1.10216 5.5188h.01997l1.10217-5.5188h3.38237v9.3844h-2.24826v-6.022h-.02396l-1.33777 6.022h-1.76906l-1.34177-6.022h-.01996v6.022h-2.24826z"/><path d="m16.8575 96.1482c0 2.6037-1.1581 3.8496-3.5102 3.8496s-3.5221-1.2459-3.5221-3.8496v-5.7544h2.376v5.1155c0 .9584 0 2.1524 1.1541 2.1524 1.1301 0 1.1301-1.194 1.1301-2.1524v-5.1155h2.3721z"/><path d="m19.9224 96.6215c0 .2356.032.4473.0879.619.1717.563.6908.6828 1.1341.6828.3874 0 .9824-.1557.9824-.8545 0-.4832-.3315-.615-1.6653-1.0743-1.2179-.4232-2.6156-.8306-2.6156-2.7234 0-2.1644 1.5294-3.0989 3.1148-3.0989 1.6732 0 3.1548.7747 3.2186 3.0629h-2.2442c.0399-.3554-.0879-.591-.2835-.7547-.1957-.1637-.4673-.2316-.7029-.2316-.3234 0-.8546.1038-.8546.6309.044.6669 1.1461.8107 2.2363 1.1821 1.0942.3674 2.1724.9863 2.1724 2.7035 0 2.4479-1.8449 3.2346-3.5621 3.2346-.8785 0-3.3743-.3834-3.3943-3.3784z"/><path d="m25.2661 90.3964h2.3761v9.3843h-2.3761z"/><path d="m33.6482 93.89c-.044-.3434-.2596-1.3817-1.246-1.3817-1.1101 0-1.4655 1.3179-1.4655 2.5798 0 1.2579.3554 2.5757 1.4655 2.5757.8027 0 1.1182-.6869 1.2579-1.5654h2.3322c0 1.8928-1.2619 3.9015-3.5222 3.9015-2.4958 0-3.9135-2.1405-3.9135-4.9118 0-2.9551 1.5375-4.9159 3.9135-4.9159 2.1205.012 3.2826 1.3658 3.4902 3.7178z"/><path d="m42.1545 92.7983h-2.1604v-2.404h6.6969v2.404h-2.1604v6.9804h-2.3761z"/><path d="m47.3818 90.3948h6.3814v2.404h-4.0053v1.174h3.6379v2.2283h-3.6379v1.1741h4.1291v2.404h-6.5052z"/><path d="m54.6138 90.3948h2.372v6.9804h3.4183v2.404h-5.7903z"/><path d="m60.9937 90.3948h6.3813v2.404h-4.0053v1.174h3.6419v2.2283h-3.6419v1.1741h4.1251v2.404h-6.5011z"/><path d="m73.0847 99.778h-2.6555l-2.3042-9.3844h2.4l1.2659 5.6905h.016l1.2499-5.6905h2.4359z"/><path d="m76.3853 90.3964h2.38v9.3843h-2.38z"/><path d="m82.0675 96.6215c0 .2356.0319.4473.0878.619.1717.563.6909.6828 1.1341.6828.3874 0 .9824-.1557.9824-.8545 0-.4832-.3395-.615-1.6652-1.0743-1.218-.4232-2.6157-.8306-2.6157-2.7234 0-2.1644 1.5255-3.0989 3.1148-3.0989 1.6732 0 3.1508.7747 3.2147 3.0629h-2.2443c.0439-.3554-.0878-.591-.2835-.7547-.1917-.1637-.4632-.2316-.6989-.2316-.3234 0-.8545.1038-.8545.6309.0439.6669 1.1461.8107 2.2362 1.1821 1.0942.3674 2.1724.9863 2.1724 2.7035 0 2.4479-1.8489 3.2346-3.562 3.2346-.8786 0-3.3744-.3834-3.3944-3.3784z"/><path d="m87.4106 90.3964h2.3761v9.3843h-2.3761z"/><path d="m94.5047 90.1719c2.3481 0 3.9135 2.0526 3.9135 4.9158s-1.5654 4.9118-3.9135 4.9118c-2.3401 0-3.9095-2.0486-3.9095-4.9118s1.5694-4.9158 3.9095-4.9158zm0 7.4915c.607 0 1.5374-.4872 1.5374-2.5757s-.9304-2.5797-1.5374-2.5797c-.603 0-1.5334.4912-1.5334 2.5797s.9304 2.5757 1.5334 2.5757z"/><path d="m99.3013 90.3948h2.4317l2.244 5.0196h.024v-5.0196h2.245v9.3844h-2.308l-2.369-5.1235h-.019v5.1235h-2.2487z"/><path d="m127.715 11.6285c-.983-.6708-2.744-1.0063-4.485-.8545-1.657.1397-2.759.9504-3.666 1.7011.012-.008-2.36 2.3401-2.36 2.3401l-.635 1.0143c-.008.012-2.116 2.6476-2.116 2.6476s-.02.024-.024.028v-14.61568l-6.47-3.88952632.004 26.54780632-.083.1278-1.55 1.821v-28.49660632h-39.9893l-14.2243 14.15240632-12.635-14.15240632h-39.4423375v87.74190632h40.1132375v-38.6516l11.8083 12.1797 14.4999-12.3594v38.8313h39.8775l-.004-37.0263c.312-.5312.567-.9544.567-.9544.004-.012.34-.4952.34-.4952.02-.024.359-.5671.73-1.1581l.004 39.634 6.454-4.4566v-46.7501c.283-.4233.706-1.0543.706-1.0543.06-.0998.995-1.4975.995-1.4975 0-.004 1.485-2.1843 1.485-2.1843.016-.036.567-.7348.567-.7348l1.374-1.9448c.272-.6269 1.046-1.0422 1.342-1.198l.14-.0759.187-.1357.715-.7228c.012-.016 1.242-1.0543 1.242-1.0543l2.101-.9783 1.96-1.0783c.008-.004 1.797-2.2083 1.797-2.2083l.955-2.963c.004-.004.279-2.8713.279-2.8713-.06-1.4575-1.162-3.2625-2.559-4.205zm-48.0525 23.8643c.0439.2795.1957 2.8752.1877 3.3025-.008 1.2859.0799 2.7035.0399 3.2746-.0319.4352.028 1.9367.028 1.9367.1078 1.1861.3634 2.4839.3873 2.7155.052.607-.1757 2.9112-.1078 3.4343.008.1078.1957 1.0702.1558 1.2978-.1039.599.0718 1.3218.0519 1.5934-.032.4752-.0519 1.0183-.0679 1.5973-.032.8586-.0599 1.7451-.1398 2.5198-.0239.1957.004 1.5494.004 1.5494-.1557 1.3618-.3234 2.7674-.0918 4.1771.0439.2835-.012 1.214.012 1.3777.0359.2116.3354 1.3058.3793 1.5454.0639.3594.1997 2.0247.3794 2.408.1757.3874.8905 2.0845.9544 2.2882.2116.6429.5351 2.1924.2436 2.983-.2756.7468-.6909 2.5238-.9824 2.9671-.2516.3874-.6309.615-.8106.8945-.1717.2596-.5112.4992-.7947.611-.8785.3434-2.4359.583-3.7857.1717-.5471-.1637-1.3737-.1118-2.3042-.6749-.7587-.4592-1.0183-1.7171-1.1261-2.392-.0519-.3155.0399-1.1581.02-1.2898-.024-.1917-.3115-1.4376-.3115-1.837-.004-.1996.0679-1.0422-.024-1.5973-.1158-.7148-.4632-1.8769-.4632-1.8769-.0958-.4752-.3514-1.5055-.3634-1.5374-.2755-.7708-.4113-1.5215-.4912-2.1604-.1477-1.1741.1438-2.1525.4034-3.019.1477-.4992.2875-.9664.3474-1.4376.0399-.3395-.2236-1.9488-.1717-2.4879.0159-.2196.1956-.9184.2036-1.0103.0679-.4552.0839-1.6692.0879-1.8569.004-.2436.1677-1.2659.1477-2.3241-.0079-.4153-.0519-.8466 0-1.2819.052-.4632.0919-1.6453.004-2.1923-.1397-.8347-.0838-1.5814-.0878-1.6174-.0599-.8745-.1118-1.793-.0599-2.5757.008-.1238-.1438-1.4496-.1478-1.8609-.008-.2595-.0239-1.8848-.0399-2.0765-.3474-4.0453-.8945-4.82-1.1142-4.9677-.2196-.1438-.8146-.1358-1.154.0239-.2596.1198-.9345.7068-1.5055 1.0143-.5591.2955-1.6014.7907-1.9568 1.0543-.4113.3115-1.0862.8346-2.4 1.5534-.3314.1797-.583.4872-.8825.7587-.4353.3834-1.2499 1.206-2.5677 1.8729-.647.3235-1.222.7028-1.6852 1.1541-.1917.1917-.8985 1.3737-1.3538 1.817-.4432.4233-.7228 1.0183-.8026 1.202-.2317.4951-.4832 1.0502-.9704 1.4136-.7548.5631-2.4.6669-3.3944.2516-.6349-.2636-1.9008-1.1142-2.4519-2.5877-.5551-1.4696-.0918-3.3544 1.0063-4.5764.7228-.8027 1.849-1.1261 2.9431-1.4336.6749-.1917 1.3178-.3754 1.813-.6509.2436-.1358 1.0223-.7188 1.186-.8266.2476-.1638 1.1302-.5911 1.3019-.7029.1597-.1078 1.0902-.9184 1.7131-1.2699 1.0303-.575 1.8489-1.0382 2.3321-1.3417 0 0 1.4177-.7987 2.3362-1.6692.2076-.1997 1.0901-.5272 2.0565-1.0743.2436-.1397 1.2539-.4792 1.5095-.591.1757-.0838.8786-.599 1.0862-.7068.9065-.4712 1.3617-1.0343 1.1062-2.4359-.0919-.4872-.2396-.9824-.1877-1.5694.0159-.1438.2236-1.0263.5591-1.6333.1677-.3115.4312-.3035.579-.591.1477-.2955.6669-.5431 1.0103-.631.2396-.2316.7348-.4792 1.3138-.579 1.2699-.2117 2.9032.7188 3.1388.7667.4472.0998 1.206.032 1.6053-.0838.0799-.016.599-.3555.7907-.4273.2556-.0959 1.0742-.3195 1.2419-.3794.2516-.0879 1.4177-.6988 1.7132-.8107.3035-.1158 1.0063-.2435 1.3537-.3234.5551-.3954 1.5974-.7348 1.9967-1.0782.4513-.3954 1.0622-1.3418 1.19-1.5095.2356-.3115 1.3857-1.0862 1.5494-1.21.3754-.2955 1.234-.8985 1.817-1.0662.2796-.0799 1.0982.0878 1.5974.0838.559 0 1.3417.032 1.9328.9265.2955.4513.7906.9105.9184 1.5334.3834 1.9448-1.0702 3.8736-2.1724 4.5605-.1118.0678-.6469.2236-.9744.3314-.4592.1517-.9264.4872-1.2379.5711-.619.1637-.9225.595-1.178.7307-.2516.1318-1.1062.6589-1.3817.8107-.2117.1118-.5591.607-1.1861.7907-.4232.1278-1.3058.3793-2.0086.9983-.2915.2556-1.4775.4992-1.817.5751-.1278.0319-1.6412.6708-1.793 1.5574-.1597.9304-.0279 1.178-.2037 2.5118-.1078.8306-.0519 1.809.016 2.3241zm49.3055-17.0037c-.115.5431-.419 1.8849-.85 2.6716-.188.3474-.935 1.4496-1.502 1.8728-.551.4074-1.349.8107-1.685.9305-.311.1118-1.837.8226-2.248 1.0423-.739.3993-1.134.8466-1.522 1.2738-.199.2237-.395.4313-.631.639-.091.0798-1.445.6349-1.936 1.781-.3.6949-1.65 2.1365-1.877 2.5518-.336.599-.831 1.5015-1.326 1.9847-.148.1437-.307.3634-.475.6189-.156.2316-.316.4912-.487.7747-.048.0759-.088.1398-.136.2157-.32.5271-.679 1.1261-.887 1.3457-.515.5551-.814 1.2739-1.058 1.8609-.096.2277-.942 1.4377-1.262 2.2802-.14.3794-.874 1.6094-.954 1.7971-.156.3953-1.102 1.3138-1.194 1.4935-.136.2755-.26.6509-.388 1.0422-.111.3554-.403 1.0543-.503 1.3258-.124.2037-.283.4633-.451.7388-.008.012-.012.02-.02.028-.124.2036-.248.4073-.379.6189-.296.4792-.595.9504-.791 1.2539-.132.1678-.264.3634-.379.5391-.188.2756-1.562 2.6197-1.877 3.1787-.14.2556-.312.5112-.487.7787-.42.627-.851 1.2699-1.059 2.0646-.131.4952-.511 1.3138-.539 1.3857-.539 1.3258-.747 2.7514-.802 3.1548-.084.6589-.064 1.3257-.036 1.9647.028.6908.052 1.3457-.06 1.9248-.208 1.0742-.627 2.1324-1.1823 2.979-.1478.2316-.6709.9464-1.2899 1.5215-.4512.4193-1.19.591-2.5437.603-1.833.008-2.6197-.6709-3.5941-2.1045-.1597-.2316-.4712-.8346-.8505-1.6453-.4872-1.0343-.8866-1.9807-1.234-3.2266-.1078-.3754-.2595-.7907-.3993-1.194-.1597-.4393-.5032-1.6772-.5311-1.8809-.032-.2036-.4633-1.6452-.4912-1.785-.1677-.8825-.3993-1.7012-.627-2.4919-.2316-.8146-.4512-1.5853-.587-2.38-.1318-.7627-.5391-1.9967-.8386-2.8912 0 0-.575-1.825-.7587-2.4759-.2516-.8825-1.0742-3.3184-1.0742-3.3184-.3075-.8307-1.0343-2.7794-1.0862-3.0909-.4313-2.5318-.4273-4.5724.0279-5.4629.2037-.4073.9025-.7947 1.4656-1.1062.1877-.1078 1.1141-.7068 1.3138-.7587.575-.1557 1.5374-.2037 2.3481-.1198.1078.012 1.1021.02 1.4615.2755 1.3378.9305 1.4337 2.1325 1.6094 4.3169 0 0 .2316 2.348.3434 3.2306.0799.6509.1677 1.3258.2356 1.9927.0439.4592.0679.9624.0879 1.4456.0359.8745.3354 2.5437.3354 2.5437.2995 1.0023.587 1.9568 1.7611 2.4519.3194.1318.6828.1079 1.0263-.0838.8026-.4273 1.5334-1.7291 1.8129-3.2306.016-.0839.1358-.2556.2516-.4233.2796-.3874.6589-.9225.8546-1.801.0599-.2197.599-.9624.9185-1.4057.3272-.4513.6312-.8745.8102-1.194.06-.1078 1.394-2.1884 1.394-2.1884s.515-1.1461.735-1.5734c.22-.4352.411-.9544.431-1.0422.108-.4473.328-1.3857.767-1.9048.599-.7069 1.25-2.2962 1.282-2.3641.144-.2716.535-.9464.898-1.5414.02-.024.056-.0759.08-.1079v-.004c.008-.008.02-.0239.028-.0319.16-.2117.367-.4912.527-.6829l1.15-1.3617c.236-.2556.471-.5191.683-.8067.224-.2955.699-.9943 1.118-1.6133.256-.3873.995-1.3497 1.222-1.5893.224-.2316 1.901-2.4879 2.161-2.8313.107-.1398.794-.8386 1.21-1.2579 0-.004.004-.004.004-.008.575-.579.786-.7907.862-.8905.336-.4513.699-.8905 1.05-1.3178.352-.4273.711-.8626 1.055-1.3218.151-.1917.539-.8866.643-1.0223.363-.4792 2.14-2.1205 2.192-2.1644.827-.6829 1.741-1.3498 3.083-1.4656 1.469-.1278 3.035.1518 3.81.6789 1.11.7467 2.048 2.2642 2.096 3.3784.048 1.0702-.032 1.5055-.256 2.6116z"/></g></svg>