<svg width="15" height="15" viewBox="0 0 15 15" fill="none" xmlns="http://www.w3.org/2000/svg">
<path d="M13.0793 14.3266C13.4692 14.7178 14.1012 14.7178 14.491 14.3266C14.8808 13.9353 14.8808 13.301 14.491 12.9098L13.0793 14.3266ZM1.43793 0.223846C0.886654 0.223846 0.439759 0.67238 0.439759 1.22567L0.439759 10.2421C0.439759 10.7954 0.886655 11.244 1.43793 11.244C1.9892 11.244 2.4361 10.7954 2.4361 10.2421L2.4361 2.2275L10.4214 2.2275C10.9727 2.2275 11.4196 1.77897 11.4196 1.22567C11.4196 0.67238 10.9727 0.223846 10.4214 0.223847L1.43793 0.223846ZM14.491 12.9098L2.14374 0.517275L0.732116 1.93407L13.0793 14.3266L14.491 12.9098Z" fill="white"/>
</svg>
