<svg width="15" height="15" viewBox="0 0 15 15" fill="none" xmlns="http://www.w3.org/2000/svg">
<path d="M1.7605 14.3266C1.37069 14.7178 0.738685 14.7178 0.348876 14.3266C-0.0409336 13.9353 -0.0409336 13.301 0.348876 12.9098L1.7605 14.3266ZM13.4019 0.223846C13.9532 0.223846 14.4001 0.67238 14.4001 1.22567L14.4001 10.2421C14.4001 10.7954 13.9532 11.244 13.4019 11.244C12.8506 11.244 12.4037 10.7954 12.4037 10.2421L12.4037 2.2275L4.4184 2.2275C3.86712 2.2275 3.42023 1.77897 3.42023 1.22567C3.42023 0.67238 3.86712 0.223846 4.4184 0.223847L13.4019 0.223846ZM0.348876 12.9098L12.6961 0.517275L14.1077 1.93407L1.7605 14.3266L0.348876 12.9098Z" fill="white"/>
</svg>
