<svg width="32" height="57" viewBox="0 0 32 57" fill="none" xmlns="http://www.w3.org/2000/svg">
<path d="M30.3811 27.4521C29.8401 27.4521 29.4011 27.8904 29.4011 28.4326V34.3152C29.4011 41.8841 23.2464 48.0412 15.6806 48.0412C8.1147 48.0412 1.96007 41.8841 1.96007 34.3152V28.4326C1.96007 27.8904 1.52102 27.4521 0.980036 27.4521C0.439056 27.4521 0 27.8904 0 28.4326V34.3152C0 42.6341 6.51136 49.4422 14.7005 49.952V54.9042H9.80036C9.25938 54.9042 8.82032 55.3424 8.82032 55.8846C8.82032 56.4268 9.25938 56.8651 9.80036 56.8651H21.5608C22.1018 56.8651 22.5408 56.4268 22.5408 55.8846C22.5408 55.3424 22.1018 54.9042 21.5608 54.9042H16.6606V49.952C24.8498 49.4422 31.3611 42.6331 31.3611 34.3152V28.4326C31.3611 27.8904 30.9221 27.4521 30.3811 27.4521Z" fill="#94E264"/>
<path d="M15.6808 45.0998C21.6247 45.0998 26.4612 40.2613 26.4612 34.315V10.7847C26.4612 4.83842 21.6247 0 15.6808 0C9.73687 0 4.90039 4.83842 4.90039 10.7847V34.315C4.90039 40.2613 9.73687 45.0998 15.6808 45.0998Z" fill="#94E264"/>
</svg>
