<svg width="52" height="57" viewBox="0 0 52 57" fill="none" xmlns="http://www.w3.org/2000/svg">
<g opacity="0.5">
<path d="M40.3811 27.4521C39.8401 27.4521 39.4011 27.8904 39.4011 28.4326V34.3152C39.4011 41.8841 33.2464 48.0412 25.6806 48.0412C18.1147 48.0412 11.9601 41.8841 11.9601 34.3152V28.4326C11.9601 27.8904 11.521 27.4521 10.98 27.4521C10.4391 27.4521 10 27.8904 10 28.4326V34.3152C10 42.6341 16.5114 49.4422 24.7005 49.952V54.9042H19.8004C19.2594 54.9042 18.8203 55.3424 18.8203 55.8846C18.8203 56.4268 19.2594 56.8651 19.8004 56.8651H31.5608C32.1018 56.8651 32.5408 56.4268 32.5408 55.8846C32.5408 55.3424 32.1018 54.9042 31.5608 54.9042H26.6606V49.952C34.8498 49.4422 41.3611 42.6331 41.3611 34.3152V28.4326C41.3611 27.8904 40.9221 27.4521 40.3811 27.4521Z" fill="white"/>
<path d="M25.6809 45.0998C31.6248 45.0998 36.4612 40.2613 36.4612 34.315V10.7847C36.4612 4.83842 31.6248 0 25.6809 0C19.7369 0 14.9005 4.83842 14.9005 10.7847V34.315C14.9005 40.2613 19.7369 45.0998 25.6809 45.0998Z" fill="white"/>
<line x1="1.12354" y1="46.1462" x2="51.1235" y2="10.1462" stroke="white" stroke-width="3"/>
</g>
</svg>
