<svg width="63" height="24" viewBox="0 0 63 24" fill="none" xmlns="http://www.w3.org/2000/svg">
<path d="M60.4467 22.7025C59.4605 23.4637 58.2278 23.7115 57.065 23.3826L43.4072 19.5189C41.7344 19.0457 40.6028 17.4541 40.6558 15.6481L40.7605 12.0897C40.7884 11.1428 40.1276 10.3502 39.2235 10.2468C36.7827 9.96716 34.249 9.8224 31.6929 9.81661C29.1368 9.81075 26.595 9.94379 24.1379 10.2122C23.2278 10.3116 22.5204 11.1008 22.4927 12.0479L22.3879 15.6062C22.3349 17.412 21.1101 18.9983 19.4093 19.4638L5.5261 23.2643C4.34397 23.5879 3.12618 23.3344 2.18482 22.5688C1.24315 21.8033 0.724687 20.644 0.761609 19.3889L0.919408 14.0271C1.02957 10.2848 4.41338 6.83962 10.4477 4.32593C16.2499 1.90898 23.8912 0.588087 31.9638 0.606447C40.0364 0.625044 47.599 1.98081 53.2583 4.42413C56.1554 5.67493 58.397 7.1482 59.9135 8.76855C61.4778 10.4399 62.2704 12.2676 62.2145 14.1678L62.0567 19.5296C62.0197 20.7846 61.4329 21.9412 60.4467 22.7025Z" fill="white"/>
<path d="M57.065 23.3826L57.1301 23.1374L57.1301 23.1374L57.065 23.3826ZM43.4072 19.5189L43.4723 19.2737L43.4072 19.5189ZM40.6558 15.6481L40.4101 15.6407L40.4101 15.6407L40.6558 15.6481ZM40.7605 12.0897L40.5148 12.0823L40.5148 12.0823L40.7605 12.0897ZM39.2235 10.2468L39.1962 10.4994L39.1962 10.4994L39.2235 10.2468ZM31.6929 9.81661L31.6921 10.0708L31.692 10.0708L31.6929 9.81661ZM24.1379 10.2122L24.1635 10.4649L24.1635 10.4649L24.1379 10.2122ZM22.4927 12.0479L22.7383 12.0553L22.7383 12.0554L22.4927 12.0479ZM22.3879 15.6062L22.1422 15.5988L22.1422 15.5988L22.3879 15.6062ZM19.4093 19.4638L19.3467 19.2182L19.3467 19.2182L19.4093 19.4638ZM5.5261 23.2643L5.58875 23.51L5.58875 23.51L5.5261 23.2643ZM2.18482 22.5688L2.33685 22.3689L2.3369 22.369L2.18482 22.5688ZM0.761609 19.3889L0.515944 19.3814L0.515945 19.3814L0.761609 19.3889ZM0.919408 14.0271L0.673744 14.0196L0.673744 14.0196L0.919408 14.0271ZM10.4477 4.32593L10.3561 4.0902L10.3561 4.0902L10.4477 4.32593ZM31.9638 0.606447L31.9646 0.352295L31.9646 0.352296L31.9638 0.606447ZM53.2583 4.42413L53.3532 4.18958L53.3532 4.18959L53.2583 4.42413ZM59.9135 8.76855L59.7368 8.94541L59.7368 8.9454L59.9135 8.76855ZM62.2145 14.1678L62.4602 14.1752L62.4602 14.1752L62.2145 14.1678ZM62.0567 19.5296L62.3024 19.537L62.3024 19.537L62.0567 19.5296ZM60.5936 22.9061C59.548 23.7131 58.2374 23.9778 56.9999 23.6277L57.1301 23.1374C58.2181 23.4453 59.3729 23.2143 60.2999 22.4988L60.5936 22.9061ZM56.9999 23.6277L43.3421 19.764L43.4723 19.2737L57.1301 23.1374L56.9999 23.6277ZM43.3421 19.764C41.5589 19.2596 40.3537 17.5627 40.4101 15.6407L40.9015 15.6556C40.8518 17.3454 41.91 18.8318 43.4723 19.2737L43.3421 19.764ZM40.4101 15.6407L40.5148 12.0823L41.0061 12.0972L40.9015 15.6556L40.4101 15.6407ZM40.5148 12.0823C40.5389 11.2661 39.9715 10.5881 39.1962 10.4994L39.2508 9.99418C40.2836 10.1124 41.0379 11.0194 41.0061 12.0972L40.5148 12.0823ZM39.1962 10.4994C36.7645 10.2208 34.2397 10.0765 31.6921 10.0708L31.6937 9.56246C34.2583 9.56827 36.8009 9.71351 39.2508 9.99418L39.1962 10.4994ZM31.692 10.0708C29.1445 10.0649 26.6115 10.1975 24.1635 10.4649L24.1124 9.95944C26.5785 9.69006 29.1291 9.55658 31.6937 9.56246L31.692 10.0708ZM24.1635 10.4649C23.3759 10.5509 22.7624 11.2351 22.7383 12.0553L22.247 12.0405C22.2785 10.9665 23.0797 10.0722 24.1124 9.95944L24.1635 10.4649ZM22.7383 12.0554L22.6336 15.6137L22.1422 15.5988L22.247 12.0405L22.7383 12.0554ZM22.6336 15.6137C22.5772 17.533 21.277 19.2155 19.472 19.7095L19.3467 19.2182C20.9432 18.7812 22.0925 17.291 22.1422 15.5988L22.6336 15.6137ZM19.472 19.7095L5.58875 23.51L5.46344 23.0187L19.3467 19.2182L19.472 19.7095ZM5.58875 23.51C4.3338 23.8536 3.03615 23.5847 2.03275 22.7686L2.3369 22.369C3.21622 23.0842 4.35415 23.3223 5.46345 23.0187L5.58875 23.51ZM2.0328 22.7687C1.02884 21.9526 0.476692 20.7158 0.515944 19.3814L1.00727 19.3963C0.972682 20.5722 1.45746 21.6541 2.33685 22.3689L2.0328 22.7687ZM0.515945 19.3814L0.673744 14.0196L1.16507 14.0345L1.00727 19.3963L0.515945 19.3814ZM0.673744 14.0196C0.788747 10.1128 4.30706 6.61002 10.3561 4.0902L10.5393 4.56166C4.51971 7.06923 1.27039 10.4569 1.16507 14.0345L0.673744 14.0196ZM10.3561 4.0902C16.1949 1.65802 23.8691 0.333884 31.9646 0.352295L31.963 0.860599C23.9133 0.842291 16.305 2.15994 10.5393 4.56166L10.3561 4.0902ZM31.9646 0.352296C40.0599 0.370944 47.6563 1.73003 53.3532 4.18958L53.1634 4.65868C47.5417 2.23159 40.013 0.879142 31.963 0.860598L31.9646 0.352296ZM53.3532 4.18959C56.2695 5.44866 58.5431 6.93867 60.0902 8.59171L59.7368 8.9454C58.2509 7.35772 56.0414 5.90121 53.1634 4.65868L53.3532 4.18959ZM60.0902 8.5917C61.6882 10.299 62.5185 12.19 62.4602 14.1752L61.9689 14.1603C62.0222 12.3452 61.2673 10.5807 59.7368 8.94541L60.0902 8.5917ZM62.4602 14.1752L62.3024 19.537L61.8111 19.5221L61.9689 14.1603L62.4602 14.1752ZM62.3024 19.537C62.2631 20.8708 61.639 22.0991 60.5936 22.9061L60.2998 22.4989C61.2268 21.7833 61.7764 20.6985 61.8111 19.5221L62.3024 19.537Z" fill="white"/>
</svg>
