<svg width="32" height="32" viewBox="0 0 32 32" fill="none" xmlns="http://www.w3.org/2000/svg">
<path d="M30.9798 25.6922C30.8844 24.9713 30.4682 24.3497 29.8381 23.9869L22.4369 19.7256C21.5304 19.2037 20.3805 19.3556 19.6406 20.0954L18.1828 21.5532C17.7948 21.9412 17.1811 21.9756 16.7555 21.633C15.6062 20.7083 14.4746 19.6905 13.3923 18.6081C12.3099 17.5257 11.2921 16.3942 10.3673 15.2449C10.0248 14.8192 10.059 14.2055 10.4471 13.8175L11.9048 12.3597C12.6447 11.6199 12.7968 10.4701 12.2747 9.56344L8.01342 2.16225C7.65057 1.53206 7.02906 1.11595 6.30816 1.02057C5.58719 0.924998 4.8788 1.16545 4.36459 1.67966L2.168 3.87631C0.634899 5.40948 0.610277 8.2139 2.09867 11.7731C3.52984 15.1954 6.20067 18.9628 9.61902 22.3813C13.0375 25.7997 16.8049 28.4706 20.2273 29.9017C21.9793 30.6344 23.5482 31.0004 24.8728 31.0004C26.2392 31.0004 27.3456 30.6108 28.1241 29.8323L30.3207 27.6357C30.8348 27.1215 31.0751 26.4131 30.9798 25.6922Z" fill="white"/>
<path d="M29.8381 23.9869L29.7134 24.2036L29.7134 24.2036L29.8381 23.9869ZM22.4369 19.7256L22.3122 19.9422L22.3122 19.9422L22.4369 19.7256ZM19.6406 20.0954L19.4638 19.9186L19.4638 19.9187L19.6406 20.0954ZM18.1828 21.5532L18.006 21.3765L18.006 21.3765L18.1828 21.5532ZM16.7555 21.633L16.9122 21.4382L16.9122 21.4382L16.7555 21.633ZM13.3923 18.6081L13.569 18.4313L13.569 18.4313L13.3923 18.6081ZM10.3673 15.2449L10.5621 15.0881L10.5621 15.0881L10.3673 15.2449ZM10.4471 13.8175L10.6239 13.9943L10.6239 13.9943L10.4471 13.8175ZM11.9048 12.3597L11.7281 12.1829L11.7281 12.1829L11.9048 12.3597ZM12.2747 9.56344L12.0581 9.68818L12.0581 9.68819L12.2747 9.56344ZM8.01342 2.16225L8.23007 2.0375L8.23007 2.0375L8.01342 2.16225ZM6.30816 1.02057L6.27531 1.2684L6.27537 1.26841L6.30816 1.02057ZM4.36459 1.67966L4.18781 1.50288L4.18781 1.50288L4.36459 1.67966ZM2.168 3.87631L1.99122 3.69954L1.99122 3.69954L2.168 3.87631ZM2.09867 11.7731L1.86802 11.8696L1.86802 11.8696L2.09867 11.7731ZM9.61902 22.3813L9.44224 22.5581L9.44225 22.5581L9.61902 22.3813ZM20.2273 29.9017L20.1308 30.1324H20.1308L20.2273 29.9017ZM24.8728 31.0004V30.7504H24.8728L24.8728 31.0004ZM28.1241 29.8323L28.3009 30.0091L28.3009 30.0091L28.1241 29.8323ZM30.3207 27.6357L30.4975 27.8125L30.4975 27.8124L30.3207 27.6357ZM31.2276 25.6594C31.122 24.8614 30.6604 24.1718 29.9628 23.7703L29.7134 24.2036C30.2761 24.5276 30.6468 25.0812 30.7319 25.725L31.2276 25.6594ZM29.9628 23.7703L22.5616 19.5089L22.3122 19.9422L29.7134 24.2036L29.9628 23.7703ZM22.5616 19.5089C21.5572 18.9306 20.2836 19.0989 19.4638 19.9186L19.8173 20.2722C20.4773 19.6123 21.5036 19.4767 22.3122 19.9422L22.5616 19.5089ZM19.4638 19.9187L18.006 21.3765L18.3595 21.73L19.8173 20.2722L19.4638 19.9187ZM18.006 21.3765C17.7077 21.6748 17.2377 21.7002 16.9122 21.4382L16.5987 21.8278C17.1245 22.2509 17.882 22.2077 18.3596 21.73L18.006 21.3765ZM16.9122 21.4382C15.7702 20.5193 14.6453 19.5076 13.569 18.4313L13.2155 18.7849C14.304 19.8734 15.4422 20.8972 16.5987 21.8278L16.9122 21.4382ZM13.569 18.4313C12.4928 17.355 11.4811 16.2302 10.5621 15.0881L10.1726 15.4016C11.1032 16.5582 12.127 17.6964 13.2155 18.7849L13.569 18.4313ZM10.5621 15.0881C10.3001 14.7626 10.3255 14.2926 10.6239 13.9943L10.2703 13.6407C9.79259 14.1184 9.74943 14.8758 10.1726 15.4016L10.5621 15.0881ZM10.6239 13.9943L12.0816 12.5365L11.7281 12.1829L10.2703 13.6407L10.6239 13.9943ZM12.0816 12.5365C12.9014 11.7168 13.0699 10.4433 12.4914 9.43869L12.0581 9.68819C12.5237 10.4969 12.388 11.5231 11.7281 12.1829L12.0816 12.5365ZM12.4914 9.4387L8.23007 2.0375L7.79676 2.28699L12.0581 9.68818L12.4914 9.4387ZM8.23007 2.0375C7.82842 1.33992 7.13895 0.878307 6.34095 0.772729L6.27537 1.26841C6.91917 1.35359 7.47272 1.72419 7.79676 2.28699L8.23007 2.0375ZM6.34101 0.772738C5.54284 0.666932 4.75698 0.933716 4.18781 1.50288L4.54137 1.85643C5.00062 1.39718 5.63155 1.18306 6.27531 1.2684L6.34101 0.772738ZM4.18781 1.50288L1.99122 3.69954L2.34478 4.05309L4.54137 1.85643L4.18781 1.50288ZM1.99122 3.69954C0.341248 5.34958 0.373095 8.29472 1.86802 11.8696L2.32931 11.6767C0.847459 8.13309 0.928549 5.46938 2.34478 4.05309L1.99122 3.69954ZM1.86802 11.8696C3.31493 15.3295 6.00752 19.1232 9.44224 22.5581L9.7958 22.2045C6.39381 18.8024 3.74476 15.0614 2.32931 11.6767L1.86802 11.8696ZM9.44225 22.5581C12.8771 25.9929 16.6708 28.6855 20.1308 30.1324L20.3237 29.6711C16.939 28.2556 13.1979 25.6066 9.7958 22.2045L9.44225 22.5581ZM20.1308 30.1324C21.902 30.873 23.5047 31.2504 24.8728 31.2504L24.8728 30.7504C23.5917 30.7504 22.0565 30.3957 20.3237 29.6711L20.1308 30.1324ZM24.8728 31.2504C26.2867 31.2504 27.4636 30.8463 28.3009 30.0091L27.9473 29.6556C27.2275 30.3753 26.1918 30.7504 24.8728 30.7504V31.2504ZM28.3009 30.0091L30.4975 27.8125L30.1439 27.4589L27.9473 29.6556L28.3009 30.0091ZM30.4975 27.8124C31.0666 27.2432 31.3331 26.4574 31.2276 25.6594L30.7319 25.7249C30.817 26.3687 30.6031 26.9997 30.1439 27.4589L30.4975 27.8124Z" fill="white"/>
</svg>
