<svg width="33" height="32" viewBox="0 0 33 32" fill="none" xmlns="http://www.w3.org/2000/svg">
<g opacity="0.3">
<path d="M20.7158 3.31791C20.4073 3.23365 20.0867 3.39945 19.9968 3.68758C19.9069 3.9757 20.0832 4.27741 20.3911 4.36168C26.2803 5.97625 30.3939 11.126 30.3939 16.8858C30.3939 24.0796 24.1504 29.9329 16.477 29.9329C8.80358 29.9329 2.56013 24.0796 2.56013 16.8858C2.56013 11.119 6.6801 5.96701 12.5797 4.35678C12.887 4.27307 13.0639 3.97135 12.9746 3.68323C12.8859 3.39511 12.564 3.22712 12.2561 3.31302C5.86422 5.05698 1.40039 10.6384 1.40039 16.8858C1.40039 24.6798 8.16341 31.0201 16.477 31.0201C24.7906 31.0201 31.5536 24.6798 31.5536 16.8858C31.5536 10.646 27.0967 5.06731 20.7158 3.31791Z" fill="white" stroke="white"/>
<path d="M16.4768 15.2551C16.7975 15.2551 17.0567 15.0121 17.0567 14.7115V1.12078C17.0567 0.820151 16.7975 0.577148 16.4768 0.577148C16.1562 0.577148 15.897 0.820151 15.897 1.12078V14.7115C15.897 15.0121 16.1562 15.2551 16.4768 15.2551Z" fill="white" stroke="white"/>
</g>
</svg>
