<svg width="17" height="30" viewBox="0 0 17 30" fill="none" xmlns="http://www.w3.org/2000/svg">
<g opacity="0.3">
<path fill-rule="evenodd" clip-rule="evenodd" d="M8.05884 17.9135C7.61439 18.8301 7.3785 20.0064 7.35115 21.4423H8.45884C8.45884 18.9423 9.3614 17.0321 11.1665 15.7115C12.9443 14.1987 14.1409 12.8686 14.7563 11.7212C15.3717 10.5737 15.6794 9.26283 15.6794 7.78847C15.6794 5.63461 15.0435 3.92309 13.7717 2.65385C12.4999 1.38461 10.7905 0.75 8.64346 0.75C6.49643 0.75 4.71866 1.38461 3.3101 2.65385C1.90154 3.92309 1.1836 5.59615 1.15625 7.67308H2.26395C2.2913 5.9423 2.86907 4.52565 3.99729 3.42308C5.1255 2.32051 6.67421 1.76923 8.64346 1.76923C10.4896 1.76923 11.9392 2.30128 12.9922 3.36539C14.0452 4.4295 14.5717 5.89102 14.5717 7.75C14.5717 8.73719 14.4589 9.58334 14.2332 10.2885C14.0076 10.9936 13.6486 11.6731 13.1563 12.3269C12.664 12.9808 11.8025 13.8462 10.5717 14.9231C9.34089 16 8.50329 16.9968 8.05884 17.9135ZM7.18702 27.4327C6.96822 27.6443 6.85883 27.8975 6.85883 28.1923C6.85883 28.4872 6.96822 28.7372 7.18702 28.9423C7.40582 29.1474 7.67248 29.25 7.987 29.25C8.30152 29.25 8.57159 29.1474 8.79723 28.9423C9.02287 28.7372 9.13568 28.4872 9.13568 28.1923C9.13568 27.8975 9.02287 27.6443 8.79723 27.4327C8.57159 27.2212 8.30152 27.1154 7.987 27.1154C7.67248 27.1154 7.40582 27.2212 7.18702 27.4327Z" fill="white"/>
<path d="M7.35115 21.4423L6.85124 21.4328L6.84153 21.9423H7.35115V21.4423ZM8.05884 17.9135L8.50875 18.1316L8.05884 17.9135ZM8.45884 21.4423V21.9423H8.95884V21.4423H8.45884ZM11.1665 15.7115L11.4618 16.1151L11.4766 16.1042L11.4906 16.0923L11.1665 15.7115ZM13.7717 2.65385L13.4185 3.00776L13.7717 2.65385ZM3.3101 2.65385L2.9754 2.2824L3.3101 2.65385ZM1.15625 7.67308L0.656293 7.6665L0.649622 8.17308H1.15625V7.67308ZM2.26395 7.67308V8.17308H2.75611L2.76388 7.68098L2.26395 7.67308ZM3.99729 3.42308L4.34675 3.78067V3.78067L3.99729 3.42308ZM14.2332 10.2885L14.7094 10.4409L14.7094 10.4409L14.2332 10.2885ZM13.1563 12.3269L13.5557 12.6277V12.6277L13.1563 12.3269ZM7.18702 27.4327L7.53456 27.7922L7.18702 27.4327ZM7.18702 28.9423L7.52899 28.5775H7.52899L7.18702 28.9423ZM7.85106 21.4518C7.87755 20.0606 8.10603 18.9622 8.50875 18.1316L7.60893 17.6953C7.12275 18.6981 6.87944 19.9522 6.85124 21.4328L7.85106 21.4518ZM8.45884 20.9423H7.35115V21.9423H8.45884V20.9423ZM10.8713 15.308C8.92093 16.7348 7.95884 18.8045 7.95884 21.4423H8.95884C8.95884 19.0801 9.80187 17.3294 11.4618 16.1151L10.8713 15.308ZM14.3157 11.4848C13.7445 12.5498 12.6044 13.8315 10.8425 15.3308L11.4906 16.0923C13.2843 14.5659 14.5373 13.1874 15.1969 11.9575L14.3157 11.4848ZM15.1794 7.78847C15.1794 9.19142 14.8872 10.4192 14.3157 11.4848L15.1969 11.9575C15.8562 10.7282 16.1794 9.33425 16.1794 7.78847H15.1794ZM13.4185 3.00776C14.578 4.16496 15.1794 5.73913 15.1794 7.78847H16.1794C16.1794 5.53009 15.5089 3.68121 14.1249 2.29994L13.4185 3.00776ZM8.64346 1.25C10.6857 1.25 12.2583 1.84995 13.4185 3.00776L14.1249 2.29994C12.7414 0.919273 10.8953 0.25 8.64346 0.25V1.25ZM3.64481 3.02529C4.94928 1.84985 6.60251 1.25 8.64346 1.25V0.25C6.39036 0.25 4.48805 0.919367 2.9754 2.2824L3.64481 3.02529ZM1.65621 7.67967C1.68192 5.72724 2.35029 4.19177 3.64481 3.02529L2.9754 2.2824C1.4528 3.6544 0.685284 5.46505 0.656293 7.6665L1.65621 7.67967ZM2.26395 7.17308H1.15625V8.17308H2.26395V7.17308ZM3.64782 3.06548C2.41568 4.26962 1.79322 5.81664 1.76401 7.66518L2.76388 7.68098C2.78937 6.06796 3.32246 4.78168 4.34675 3.78067L3.64782 3.06548ZM8.64346 1.26923C6.57775 1.26923 4.89132 1.85025 3.64782 3.06549L4.34675 3.78067C5.35968 2.79077 6.77067 2.26923 8.64346 2.26923V1.26923ZM13.3476 3.01369C12.1797 1.83349 10.5901 1.26923 8.64346 1.26923V2.26923C10.3892 2.26923 11.6987 2.76906 12.6368 3.71708L13.3476 3.01369ZM15.0717 7.75C15.0717 5.79297 14.5145 4.19289 13.3476 3.01369L12.6368 3.71708C13.5759 4.6661 14.0717 5.98907 14.0717 7.75H15.0717ZM14.7094 10.4409C14.9551 9.67316 15.0717 8.77279 15.0717 7.75H14.0717C14.0717 8.70159 13.9626 9.49351 13.757 10.1361L14.7094 10.4409ZM13.5557 12.6277C14.0782 11.9337 14.465 11.2047 14.7094 10.4409L13.757 10.1361C13.5502 10.7825 13.219 11.4124 12.7569 12.0262L13.5557 12.6277ZM10.9009 15.2994C12.1373 14.2175 13.0311 13.3245 13.5557 12.6277L12.7569 12.0262C12.2969 12.6371 11.4676 13.4748 10.2424 14.5468L10.9009 15.2994ZM8.50875 18.1316C8.91162 17.3007 9.69363 16.3558 10.9009 15.2994L10.2424 14.5468C8.98815 15.6443 8.09496 16.6929 7.60893 17.6953L8.50875 18.1316ZM7.35883 28.1923C7.35883 28.0378 7.40969 27.9129 7.53456 27.7922L6.83948 27.0733C6.52676 27.3756 6.35883 27.7571 6.35883 28.1923H7.35883ZM7.52899 28.5775C7.40906 28.4651 7.35883 28.3463 7.35883 28.1923H6.35883C6.35883 28.6281 6.52738 29.0093 6.84505 29.3071L7.52899 28.5775ZM7.987 28.75C7.79269 28.75 7.65026 28.6912 7.52899 28.5775L6.84505 29.3071C7.16138 29.6036 7.55226 29.75 7.987 29.75V28.75ZM8.46089 28.5723C8.33043 28.6909 8.18144 28.75 7.987 28.75V29.75C8.4216 29.75 8.81276 29.6039 9.13357 29.3123L8.46089 28.5723ZM8.63568 28.1923C8.63568 28.341 8.58633 28.4583 8.46089 28.5723L9.13357 29.3123C9.4594 29.0161 9.63568 28.6334 9.63568 28.1923H8.63568ZM8.45526 27.7975C8.58561 27.9197 8.63568 28.0431 8.63568 28.1923H9.63568C9.63568 27.7518 9.46012 27.3688 9.1392 27.068L8.45526 27.7975ZM7.987 27.6154C8.17688 27.6154 8.32402 27.6745 8.45526 27.7975L9.1392 27.068C8.81917 26.7679 8.42616 26.6154 7.987 26.6154V27.6154ZM7.53456 27.7922C7.65671 27.6741 7.79734 27.6154 7.987 27.6154V26.6154C7.54761 26.6154 7.15493 26.7683 6.83948 27.0733L7.53456 27.7922Z" fill="white"/>
</g>
</svg>
