<svg width="35" height="35" viewBox="0 0 35 35" fill="none" xmlns="http://www.w3.org/2000/svg">
<circle cx="17.5" cy="17.5" r="16.5" stroke="#DB2C2C" stroke-width="2"/>
<path opacity="0.4" d="M44.08 17.718C44.08 16.518 44.17 15.504 44.35 14.676C44.542 13.848 44.824 13.182 45.196 12.678C45.568 12.174 46.036 11.814 46.6 11.598C47.164 11.37 47.83 11.256 48.598 11.256C49.33 11.256 49.954 11.382 50.47 11.634C50.998 11.874 51.424 12.258 51.748 12.786C52.084 13.302 52.33 13.968 52.486 14.784C52.642 15.6 52.72 16.578 52.72 17.718C52.72 18.978 52.624 20.022 52.432 20.85C52.252 21.678 51.976 22.344 51.604 22.848C51.244 23.34 50.794 23.688 50.254 23.892C49.714 24.084 49.096 24.18 48.4 24.18C46.9 24.18 45.802 23.652 45.106 22.596C44.422 21.54 44.08 19.914 44.08 17.718ZM45.664 17.718C45.664 18.678 45.718 19.482 45.826 20.13C45.946 20.778 46.12 21.3 46.348 21.696C46.588 22.092 46.882 22.38 47.23 22.56C47.578 22.728 47.992 22.812 48.472 22.812C48.952 22.812 49.36 22.74 49.696 22.596C50.032 22.44 50.308 22.176 50.524 21.804C50.74 21.42 50.896 20.904 50.992 20.256C51.088 19.608 51.136 18.78 51.136 17.772C51.136 16.728 51.088 15.876 50.992 15.216C50.896 14.544 50.74 14.016 50.524 13.632C50.308 13.248 50.026 12.984 49.678 12.84C49.33 12.696 48.904 12.624 48.4 12.624C47.884 12.624 47.452 12.708 47.104 12.876C46.756 13.032 46.474 13.302 46.258 13.686C46.042 14.07 45.886 14.592 45.79 15.252C45.706 15.912 45.664 16.734 45.664 17.718ZM54.873 17.718C54.873 16.518 54.963 15.504 55.143 14.676C55.335 13.848 55.617 13.182 55.989 12.678C56.361 12.174 56.829 11.814 57.393 11.598C57.957 11.37 58.623 11.256 59.391 11.256C60.123 11.256 60.747 11.382 61.263 11.634C61.791 11.874 62.217 12.258 62.541 12.786C62.877 13.302 63.123 13.968 63.279 14.784C63.435 15.6 63.513 16.578 63.513 17.718C63.513 18.978 63.417 20.022 63.225 20.85C63.045 21.678 62.769 22.344 62.397 22.848C62.037 23.34 61.587 23.688 61.047 23.892C60.507 24.084 59.889 24.18 59.193 24.18C57.693 24.18 56.595 23.652 55.899 22.596C55.215 21.54 54.873 19.914 54.873 17.718ZM56.457 17.718C56.457 18.678 56.511 19.482 56.619 20.13C56.739 20.778 56.913 21.3 57.141 21.696C57.381 22.092 57.675 22.38 58.023 22.56C58.371 22.728 58.785 22.812 59.265 22.812C59.745 22.812 60.153 22.74 60.489 22.596C60.825 22.44 61.101 22.176 61.317 21.804C61.533 21.42 61.689 20.904 61.785 20.256C61.881 19.608 61.929 18.78 61.929 17.772C61.929 16.728 61.881 15.876 61.785 15.216C61.689 14.544 61.533 14.016 61.317 13.632C61.101 13.248 60.819 12.984 60.471 12.84C60.123 12.696 59.697 12.624 59.193 12.624C58.677 12.624 58.245 12.708 57.897 12.876C57.549 13.032 57.267 13.302 57.051 13.686C56.835 14.07 56.679 14.592 56.583 15.252C56.499 15.912 56.457 16.734 56.457 17.718ZM66.5659 23.028C66.5659 22.704 66.6439 22.428 66.7999 22.2C66.9679 21.972 67.2799 21.858 67.7359 21.858C68.1919 21.858 68.5039 21.972 68.6719 22.2C68.8399 22.428 68.9239 22.704 68.9239 23.028C68.9239 23.34 68.8399 23.61 68.6719 23.838C68.5039 24.066 68.1919 24.18 67.7359 24.18C67.2799 24.18 66.9679 24.066 66.7999 23.838C66.6439 23.61 66.5659 23.34 66.5659 23.028ZM66.5659 16.332C66.5659 16.008 66.6439 15.732 66.7999 15.504C66.9679 15.276 67.2799 15.162 67.7359 15.162C68.1919 15.162 68.5039 15.276 68.6719 15.504C68.8399 15.732 68.9239 16.008 68.9239 16.332C68.9239 16.644 68.8399 16.914 68.6719 17.142C68.5039 17.37 68.1919 17.484 67.7359 17.484C67.2799 17.484 66.9679 17.37 66.7999 17.142C66.6439 16.914 66.5659 16.644 66.5659 16.332ZM71.9765 17.718C71.9765 16.518 72.0665 15.504 72.2465 14.676C72.4385 13.848 72.7205 13.182 73.0925 12.678C73.4645 12.174 73.9325 11.814 74.4965 11.598C75.0605 11.37 75.7265 11.256 76.4945 11.256C77.2265 11.256 77.8505 11.382 78.3665 11.634C78.8945 11.874 79.3205 12.258 79.6445 12.786C79.9805 13.302 80.2265 13.968 80.3825 14.784C80.5385 15.6 80.6165 16.578 80.6165 17.718C80.6165 18.978 80.5205 20.022 80.3285 20.85C80.1485 21.678 79.8725 22.344 79.5005 22.848C79.1405 23.34 78.6905 23.688 78.1505 23.892C77.6105 24.084 76.9925 24.18 76.2965 24.18C74.7965 24.18 73.6985 23.652 73.0025 22.596C72.3185 21.54 71.9765 19.914 71.9765 17.718ZM73.5605 17.718C73.5605 18.678 73.6145 19.482 73.7225 20.13C73.8425 20.778 74.0165 21.3 74.2445 21.696C74.4845 22.092 74.7785 22.38 75.1265 22.56C75.4745 22.728 75.8885 22.812 76.3685 22.812C76.8485 22.812 77.2565 22.74 77.5925 22.596C77.9285 22.44 78.2045 22.176 78.4205 21.804C78.6365 21.42 78.7925 20.904 78.8885 20.256C78.9845 19.608 79.0325 18.78 79.0325 17.772C79.0325 16.728 78.9845 15.876 78.8885 15.216C78.7925 14.544 78.6365 14.016 78.4205 13.632C78.2045 13.248 77.9225 12.984 77.5745 12.84C77.2265 12.696 76.8005 12.624 76.2965 12.624C75.7805 12.624 75.3485 12.708 75.0005 12.876C74.6525 13.032 74.3705 13.302 74.1545 13.686C73.9385 14.07 73.7825 14.592 73.6865 15.252C73.6025 15.912 73.5605 16.734 73.5605 17.718ZM82.7695 17.718C82.7695 16.518 82.8595 15.504 83.0395 14.676C83.2315 13.848 83.5135 13.182 83.8855 12.678C84.2575 12.174 84.7255 11.814 85.2895 11.598C85.8535 11.37 86.5195 11.256 87.2875 11.256C88.0195 11.256 88.6435 11.382 89.1595 11.634C89.6875 11.874 90.1135 12.258 90.4375 12.786C90.7735 13.302 91.0195 13.968 91.1755 14.784C91.3315 15.6 91.4095 16.578 91.4095 17.718C91.4095 18.978 91.3135 20.022 91.1215 20.85C90.9415 21.678 90.6655 22.344 90.2935 22.848C89.9335 23.34 89.4835 23.688 88.9435 23.892C88.4035 24.084 87.7855 24.18 87.0895 24.18C85.5895 24.18 84.4915 23.652 83.7955 22.596C83.1115 21.54 82.7695 19.914 82.7695 17.718ZM84.3535 17.718C84.3535 18.678 84.4075 19.482 84.5155 20.13C84.6355 20.778 84.8095 21.3 85.0375 21.696C85.2775 22.092 85.5715 22.38 85.9195 22.56C86.2675 22.728 86.6815 22.812 87.1615 22.812C87.6415 22.812 88.0495 22.74 88.3855 22.596C88.7215 22.44 88.9975 22.176 89.2135 21.804C89.4295 21.42 89.5855 20.904 89.6815 20.256C89.7775 19.608 89.8255 18.78 89.8255 17.772C89.8255 16.728 89.7775 15.876 89.6815 15.216C89.5855 14.544 89.4295 14.016 89.2135 13.632C88.9975 13.248 88.7155 12.984 88.3675 12.84C88.0195 12.696 87.5935 12.624 87.0895 12.624C86.5735 12.624 86.1415 12.708 85.7935 12.876C85.4455 13.032 85.1635 13.302 84.9475 13.686C84.7315 14.07 84.5755 14.592 84.4795 15.252C84.3955 15.912 84.3535 16.734 84.3535 17.718Z" fill="white"/>
<rect x="10" y="10" width="15" height="15" fill="#DB2C2C"/>
</svg>

