<svg width="33" height="22" viewBox="0 0 33 22" fill="none" xmlns="http://www.w3.org/2000/svg">
<path d="M24.0931 6.82083C28.3611 6.82083 31.8335 10.0761 31.8335 14.0773C31.8335 18.0784 28.3611 21.3337 24.0932 21.3337H20.302C19.9113 21.3337 19.5946 21.0368 19.5946 20.6706C19.5946 20.3044 19.9113 20.0075 20.302 20.0075H24.0932C27.5812 20.0075 30.4188 17.3472 30.4188 14.0773C30.4188 10.8073 27.5812 8.14705 24.0932 8.14705H2.42459L7.0711 13.0296C7.33113 13.3029 7.30565 13.7221 7.01416 13.9659C6.88267 14.0758 6.71597 14.1342 6.5435 14.1342C6.34302 14.1342 6.15157 14.0555 6.01547 13.9125L0.931199 8.57005C0.341971 7.95087 0.341935 7.01715 0.931146 6.39783L6.0154 1.05542C6.27543 0.782118 6.72265 0.75825 7.0141 1.00204C7.30561 1.24586 7.3311 1.66503 7.07104 1.93832L2.42453 6.82083H24.0931Z" fill="#B3B2BC" stroke="#B3B2BC" stroke-width="0.8"/>
</svg>
