<svg width="30" height="31" viewBox="0 0 30 31" fill="none" xmlns="http://www.w3.org/2000/svg">
<path d="M3.53472 5.36639C4.78675 5.36639 5.79861 4.34819 5.79861 3.09604C5.79861 1.84388 4.78675 0.825684 3.53472 0.825684C2.28268 0.825684 1.27083 1.84388 1.27083 3.09604C1.27083 4.34819 2.28268 5.36639 3.53472 5.36639Z" fill="white" stroke="white"/>
<path d="M3.53472 17.759C4.78675 17.759 5.79861 16.7408 5.79861 15.4886C5.79861 14.2365 4.78675 13.2183 3.53472 13.2183C2.28268 13.2183 1.27083 14.2365 1.27083 15.4886C1.27083 16.7408 2.28268 17.759 3.53472 17.759Z" fill="white" stroke="white"/>
<path d="M3.53472 30.1513C4.78675 30.1513 5.79861 29.1331 5.79861 27.881C5.79861 26.6288 4.78675 25.6106 3.53472 25.6106C2.28268 25.6106 1.27083 26.6288 1.27083 27.881C1.27083 29.1331 2.28268 30.1513 3.53472 30.1513Z" fill="white" stroke="white"/>
<path d="M15 5.36639C16.252 5.36639 17.2639 4.34819 17.2639 3.09604C17.2639 1.84388 16.252 0.825684 15 0.825684C13.748 0.825684 12.7361 1.84388 12.7361 3.09604C12.7361 4.34819 13.748 5.36639 15 5.36639Z" fill="white" stroke="white"/>
<path d="M15 17.759C16.252 17.759 17.2639 16.7408 17.2639 15.4886C17.2639 14.2365 16.252 13.2183 15 13.2183C13.748 13.2183 12.7361 14.2365 12.7361 15.4886C12.7361 16.7408 13.748 17.759 15 17.759Z" fill="white" stroke="white"/>
<path d="M15 30.1513C16.252 30.1513 17.2639 29.1331 17.2639 27.881C17.2639 26.6288 16.252 25.6106 15 25.6106C13.748 25.6106 12.7361 26.6288 12.7361 27.881C12.7361 29.1331 13.748 30.1513 15 30.1513Z" fill="white" stroke="white"/>
<path d="M26.4653 5.36639C27.7173 5.36639 28.7292 4.34819 28.7292 3.09604C28.7292 1.84388 27.7173 0.825684 26.4653 0.825684C25.2132 0.825684 24.2014 1.84388 24.2014 3.09604C24.2014 4.34819 25.2132 5.36639 26.4653 5.36639Z" fill="white" stroke="white"/>
<path d="M26.4653 17.759C27.7173 17.759 28.7292 16.7408 28.7292 15.4886C28.7292 14.2365 27.7173 13.2183 26.4653 13.2183C25.2132 13.2183 24.2014 14.2365 24.2014 15.4886C24.2014 16.7408 25.2132 17.759 26.4653 17.759Z" fill="white" stroke="white"/>
<path d="M26.4653 30.1513C27.7173 30.1513 28.7292 29.1331 28.7292 27.881C28.7292 26.6288 27.7173 25.6106 26.4653 25.6106C25.2132 25.6106 24.2014 26.6288 24.2014 27.881C24.2014 29.1331 25.2132 30.1513 26.4653 30.1513Z" fill="white" stroke="white"/>
</svg>
