<svg width="15" height="16" viewBox="0 0 15 16" fill="none" xmlns="http://www.w3.org/2000/svg">
<path fill-rule="evenodd" clip-rule="evenodd" d="M1.5 3C2.32843 3 3 2.32843 3 1.5C3 0.671573 2.32843 0 1.5 0C0.671573 0 0 0.671573 0 1.5C0 2.32843 0.671573 3 1.5 3Z" fill="#4D4D4D"/>
<path fill-rule="evenodd" clip-rule="evenodd" d="M1.5 9.125C2.32843 9.125 3 8.45343 3 7.625C3 6.79657 2.32843 6.125 1.5 6.125C0.671573 6.125 0 6.79657 0 7.625C0 8.45343 0.671573 9.125 1.5 9.125Z" fill="#4D4D4D"/>
<path fill-rule="evenodd" clip-rule="evenodd" d="M1.5 15.25C2.32843 15.25 3 14.5784 3 13.75C3 12.9216 2.32843 12.25 1.5 12.25C0.671573 12.25 0 12.9216 0 13.75C0 14.5784 0.671573 15.25 1.5 15.25Z" fill="#4D4D4D"/>
<path fill-rule="evenodd" clip-rule="evenodd" d="M7.5 3C8.32843 3 9 2.32843 9 1.5C9 0.671573 8.32843 0 7.5 0C6.67157 0 6 0.671573 6 1.5C6 2.32843 6.67157 3 7.5 3Z" fill="#4D4D4D"/>
<path fill-rule="evenodd" clip-rule="evenodd" d="M7.5 9.125C8.32843 9.125 9 8.45343 9 7.625C9 6.79657 8.32843 6.125 7.5 6.125C6.67157 6.125 6 6.79657 6 7.625C6 8.45343 6.67157 9.125 7.5 9.125Z" fill="#4D4D4D"/>
<path fill-rule="evenodd" clip-rule="evenodd" d="M7.5 15.25C8.32843 15.25 9 14.5784 9 13.75C9 12.9216 8.32843 12.25 7.5 12.25C6.67157 12.25 6 12.9216 6 13.75C6 14.5784 6.67157 15.25 7.5 15.25Z" fill="#4D4D4D"/>
<path fill-rule="evenodd" clip-rule="evenodd" d="M13.5 3C14.3284 3 15 2.32843 15 1.5C15 0.671573 14.3284 0 13.5 0C12.6716 0 12 0.671573 12 1.5C12 2.32843 12.6716 3 13.5 3Z" fill="#4D4D4D"/>
<path fill-rule="evenodd" clip-rule="evenodd" d="M13.5 9.125C14.3284 9.125 15 8.45343 15 7.625C15 6.79657 14.3284 6.125 13.5 6.125C12.6716 6.125 12 6.79657 12 7.625C12 8.45343 12.6716 9.125 13.5 9.125Z" fill="#4D4D4D"/>
<path fill-rule="evenodd" clip-rule="evenodd" d="M13.5 15.25C14.3284 15.25 15 14.5784 15 13.75C15 12.9216 14.3284 12.25 13.5 12.25C12.6716 12.25 12 12.9216 12 13.75C12 14.5784 12.6716 15.25 13.5 15.25Z" fill="#4D4D4D"/>
</svg>
