<svg width="22" height="30" viewBox="0 0 22 30" fill="none" xmlns="http://www.w3.org/2000/svg">
<path d="M11 24.3333C9.53331 24.3333 8.33331 25.5333 8.33331 26.9999C8.33331 28.4666 9.53331 29.6666 11 29.6666C12.4666 29.6666 13.6666 28.4666 13.6666 26.9999C13.6666 25.5333 12.4666 24.3333 11 24.3333ZM2.99998 0.333252C1.53331 0.333252 0.333313 1.53325 0.333313 2.99992C0.333313 4.46659 1.53331 5.66659 2.99998 5.66659C4.46665 5.66659 5.66665 4.46659 5.66665 2.99992C5.66665 1.53325 4.46665 0.333252 2.99998 0.333252ZM2.99998 8.33325C1.53331 8.33325 0.333313 9.53325 0.333313 10.9999C0.333313 12.4666 1.53331 13.6666 2.99998 13.6666C4.46665 13.6666 5.66665 12.4666 5.66665 10.9999C5.66665 9.53325 4.46665 8.33325 2.99998 8.33325ZM2.99998 16.3333C1.53331 16.3333 0.333313 17.5333 0.333313 18.9999C0.333313 20.4666 1.53331 21.6666 2.99998 21.6666C4.46665 21.6666 5.66665 20.4666 5.66665 18.9999C5.66665 17.5333 4.46665 16.3333 2.99998 16.3333ZM19 5.66659C20.4666 5.66659 21.6666 4.46659 21.6666 2.99992C21.6666 1.53325 20.4666 0.333252 19 0.333252C17.5333 0.333252 16.3333 1.53325 16.3333 2.99992C16.3333 4.46659 17.5333 5.66659 19 5.66659ZM11 16.3333C9.53331 16.3333 8.33331 17.5333 8.33331 18.9999C8.33331 20.4666 9.53331 21.6666 11 21.6666C12.4666 21.6666 13.6666 20.4666 13.6666 18.9999C13.6666 17.5333 12.4666 16.3333 11 16.3333ZM19 16.3333C17.5333 16.3333 16.3333 17.5333 16.3333 18.9999C16.3333 20.4666 17.5333 21.6666 19 21.6666C20.4666 21.6666 21.6666 20.4666 21.6666 18.9999C21.6666 17.5333 20.4666 16.3333 19 16.3333ZM19 8.33325C17.5333 8.33325 16.3333 9.53325 16.3333 10.9999C16.3333 12.4666 17.5333 13.6666 19 13.6666C20.4666 13.6666 21.6666 12.4666 21.6666 10.9999C21.6666 9.53325 20.4666 8.33325 19 8.33325ZM11 8.33325C9.53331 8.33325 8.33331 9.53325 8.33331 10.9999C8.33331 12.4666 9.53331 13.6666 11 13.6666C12.4666 13.6666 13.6666 12.4666 13.6666 10.9999C13.6666 9.53325 12.4666 8.33325 11 8.33325ZM11 0.333252C9.53331 0.333252 8.33331 1.53325 8.33331 2.99992C8.33331 4.46659 9.53331 5.66659 11 5.66659C12.4666 5.66659 13.6666 4.46659 13.6666 2.99992C13.6666 1.53325 12.4666 0.333252 11 0.333252Z" fill="white"/>
</svg>
