<svg width="33" height="30" viewBox="0 0 33 30" fill="none" xmlns="http://www.w3.org/2000/svg">
<g opacity="0.3">
<path fill-rule="evenodd" clip-rule="evenodd" d="M15.943 1.16C16.5199 0.812851 17.2147 0.80204 17.8019 1.13358C18.4028 1.47292 18.762 2.09155 18.762 2.78885V26.6258C18.762 27.3231 18.4028 27.9417 17.8019 28.2805C17.5161 28.4414 17.2057 28.5213 16.8947 28.5219C16.5668 28.5219 16.239 28.4324 15.943 28.254C15.9087 28.2336 15.8762 28.2096 15.8461 28.182L7.69908 20.7104L1.31641 20.7134C1.1564 20.7134 1.0042 20.6497 0.891104 20.5374C0.778009 20.4251 0.714844 20.2725 0.714844 20.1128V8.70123C0.714844 8.3691 0.983746 8.10063 1.31641 8.10063H7.71352L15.8648 1.21586C15.8889 1.19544 15.9153 1.17622 15.943 1.16ZM17.2105 27.2354C17.4283 27.1122 17.5588 26.8846 17.5588 26.6257V2.78882C17.5588 2.53056 17.4283 2.30293 17.2105 2.1798C17.1167 2.12695 16.8766 2.02364 16.5993 2.16899L8.53526 8.97989V11.7042C8.53526 12.0364 8.26636 12.3049 7.93369 12.3049C7.60102 12.3049 7.33212 12.0364 7.33212 11.7042V9.30181H1.91798V19.5121L7.33212 19.5097V17.1097C7.33212 16.7776 7.60102 16.5091 7.93369 16.5091C8.26636 16.5091 8.53526 16.7776 8.53526 17.1097V19.8461L16.6089 27.251C16.8808 27.3885 17.1173 27.2876 17.2105 27.2354Z" fill="white"/>
<path d="M17.8019 1.13358L17.6052 1.48188L17.6052 1.48188L17.8019 1.13358ZM15.943 1.16L16.1453 1.50513L16.1492 1.50274L15.943 1.16ZM17.8019 28.2805L17.9982 28.629L17.9983 28.6289L17.8019 28.2805ZM16.8947 28.5219V28.9219L16.8955 28.9219L16.8947 28.5219ZM15.943 28.254L16.1495 27.9114L16.1477 27.9103L15.943 28.254ZM15.8461 28.182L16.1167 27.8874L16.1165 27.8872L15.8461 28.182ZM7.69908 20.7104L7.96943 20.4156L7.85464 20.3103L7.69889 20.3104L7.69908 20.7104ZM1.31641 20.7134V21.1134H1.3166L1.31641 20.7134ZM0.891104 20.5374L0.609243 20.8212L0.609245 20.8212L0.891104 20.5374ZM7.71352 8.10063V8.50063H7.85984L7.97162 8.40621L7.71352 8.10063ZM15.8648 1.21586L16.1229 1.52144L16.1236 1.52084L15.8648 1.21586ZM17.2105 27.2354L17.4061 27.5843L17.4074 27.5836L17.2105 27.2354ZM17.2105 2.1798L17.4074 1.8316L17.4068 1.83128L17.2105 2.1798ZM16.5993 2.16899L16.4136 1.8147L16.3748 1.83508L16.3412 1.8634L16.5993 2.16899ZM8.53526 8.97989L8.27716 8.6743L8.13526 8.79415V8.97989H8.53526ZM7.33212 9.30181H7.73212V8.90181H7.33212V9.30181ZM1.91798 9.30181V8.90181H1.51798V9.30181H1.91798ZM1.91798 19.5121H1.51798V19.9123L1.91816 19.9121L1.91798 19.5121ZM7.33212 19.5097L7.3323 19.9097L7.73212 19.9096V19.5097H7.33212ZM8.53526 19.8461H8.13526V20.022L8.26489 20.1409L8.53526 19.8461ZM16.6089 27.251L16.3386 27.5458L16.3792 27.583L16.4284 27.6079L16.6089 27.251ZM17.9985 0.785269C17.2855 0.38264 16.4368 0.396045 15.7368 0.81727L16.1492 1.50274C16.603 1.22966 17.1439 1.22144 17.6052 1.48188L17.9985 0.785269ZM19.162 2.78885C19.162 1.94893 18.7266 1.19636 17.9985 0.785267L17.6052 1.48188C18.0791 1.74948 18.362 2.23416 18.362 2.78885H19.162ZM19.162 26.6258V2.78885H18.362V26.6258H19.162ZM17.9983 28.6289C18.7266 28.2184 19.162 27.4656 19.162 26.6258H18.362C18.362 27.1805 18.0791 27.665 17.6054 27.932L17.9983 28.6289ZM16.8955 28.9219C17.2753 28.9212 17.653 28.8234 17.9982 28.629L17.6055 27.9319C17.3792 28.0594 17.1361 28.1214 16.8939 28.1219L16.8955 28.9219ZM15.7365 28.5966C16.0943 28.8122 16.4934 28.9219 16.8947 28.9219V28.1219C16.6402 28.1219 16.3837 28.0526 16.1495 27.9114L15.7365 28.5966ZM15.5756 28.4765C15.6263 28.5231 15.6809 28.5635 15.7383 28.5977L16.1477 27.9103C16.1365 27.9037 16.1262 27.896 16.1167 27.8874L15.5756 28.4765ZM7.42872 21.0052L15.5758 28.4768L16.1165 27.8872L7.96943 20.4156L7.42872 21.0052ZM1.3166 21.1134L7.69927 21.1104L7.69889 20.3104L1.31623 20.3134L1.3166 21.1134ZM0.609245 20.8212C0.796299 21.007 1.04943 21.1134 1.31641 21.1134V20.3134C1.26337 20.3134 1.2121 20.2925 1.17296 20.2536L0.609245 20.8212ZM0.314844 20.1128C0.314844 20.3784 0.420033 20.6333 0.609243 20.8212L1.17296 20.2536C1.13598 20.2169 1.11484 20.1667 1.11484 20.1128H0.314844ZM0.314844 8.70123V20.1128H1.11484V8.70123H0.314844ZM1.31641 7.70063C0.763436 7.70063 0.314844 8.14758 0.314844 8.70123H1.11484C1.11484 8.59062 1.20406 8.50063 1.31641 8.50063V7.70063ZM7.71352 7.70063H1.31641V8.50063H7.71352V7.70063ZM15.6067 0.910274L7.45541 7.79504L7.97162 8.40621L16.1229 1.52144L15.6067 0.910274ZM15.7408 0.814896C15.6907 0.844218 15.6455 0.877366 15.606 0.910882L16.1236 1.52084C16.1323 1.51351 16.1399 1.50822 16.1452 1.50511L15.7408 0.814896ZM17.1588 26.6257C17.1588 26.7458 17.1013 26.8376 17.0136 26.8872L17.4074 27.5836C17.7552 27.3869 17.9588 27.0235 17.9588 26.6257H17.1588ZM17.1588 2.78882V26.6257H17.9588V2.78882H17.1588ZM17.0136 2.528C17.1015 2.57766 17.1588 2.66961 17.1588 2.78882H17.9588C17.9588 2.3915 17.7551 2.02819 17.4074 1.8316L17.0136 2.528ZM16.785 2.52328C16.8415 2.49367 16.8858 2.49186 16.9206 2.49653C16.9608 2.50192 16.9951 2.51757 17.0142 2.52833L17.4068 1.83128C17.264 1.75084 16.8675 1.57682 16.4136 1.8147L16.785 2.52328ZM8.79336 9.28547L16.8574 2.47458L16.3412 1.8634L8.27716 8.6743L8.79336 9.28547ZM8.93526 11.7042V8.97989H8.13526V11.7042H8.93526ZM7.93369 12.7049C8.48667 12.7049 8.93526 12.2579 8.93526 11.7042H8.13526C8.13526 11.8149 8.04605 11.9049 7.93369 11.9049V12.7049ZM6.93212 11.7042C6.93212 12.2579 7.38071 12.7049 7.93369 12.7049V11.9049C7.82133 11.9049 7.73212 11.8149 7.73212 11.7042H6.93212ZM6.93212 9.30181V11.7042H7.73212V9.30181H6.93212ZM1.91798 9.70181H7.33212V8.90181H1.91798V9.70181ZM2.31798 19.5121V9.30181H1.51798V19.5121H2.31798ZM7.33194 19.1097L1.91781 19.1121L1.91816 19.9121L7.3323 19.9097L7.33194 19.1097ZM6.93212 17.1097V19.5097H7.73212V17.1097H6.93212ZM7.93369 16.1091C7.38071 16.1091 6.93212 16.5561 6.93212 17.1097H7.73212C7.73212 16.9991 7.82133 16.9091 7.93369 16.9091V16.1091ZM8.93526 17.1097C8.93526 16.5561 8.48667 16.1091 7.93369 16.1091V16.9091C8.04605 16.9091 8.13526 16.9991 8.13526 17.1097H8.93526ZM8.93526 19.8461V17.1097H8.13526V19.8461H8.93526ZM16.8793 26.9562L8.80563 19.5513L8.26489 20.1409L16.3386 27.5458L16.8793 26.9562ZM17.015 26.8864C16.9961 26.897 16.9619 26.9126 16.9216 26.9182C16.8864 26.923 16.8433 26.9213 16.7895 26.894L16.4284 27.6079C16.8752 27.8339 17.2648 27.6634 17.4061 27.5843L17.015 26.8864Z" fill="white"/>
</g>
<path opacity="0.3" d="M24.0541 3.32778C23.7395 3.22147 23.3978 3.38964 23.2907 3.70376C23.1842 4.01728 23.3527 4.35903 23.6673 4.46593C27.9391 5.914 30.8092 9.90924 30.8092 14.4078C30.8092 18.9021 27.9445 22.898 23.6811 24.3503C23.3671 24.4572 23.1987 24.7983 23.3064 25.113C23.3918 25.3623 23.6252 25.5196 23.8755 25.5196C23.9398 25.5196 24.0054 25.5094 24.0698 25.4872C28.8198 23.8698 32.0117 19.4175 32.0117 14.4084C32.0123 9.39392 28.8143 4.94162 24.0541 3.32778Z" fill="white" stroke="white" stroke-width="0.8"/>
<path opacity="0.3" d="M26.5978 14.407C26.5978 10.8202 24.1861 7.61893 20.7331 6.62192C20.4125 6.53123 20.081 6.71321 19.9884 7.03274C19.8963 7.35106 20.0798 7.68439 20.3998 7.77629C23.3409 8.62495 25.3953 11.3517 25.3953 14.407C25.3953 17.4623 23.3409 20.1891 20.3998 21.0377C20.0804 21.1296 19.8963 21.4629 19.9884 21.7813C20.0648 22.0443 20.3048 22.2155 20.5665 22.2155C20.6218 22.2155 20.6778 22.2077 20.7331 22.1921C24.1867 21.1951 26.5978 17.9938 26.5978 14.407Z" fill="white" stroke="white" stroke-width="0.8"/>
</svg>
