<svg width="33" height="30" viewBox="0 0 33 30" fill="none" xmlns="http://www.w3.org/2000/svg">
<path fill-rule="evenodd" clip-rule="evenodd" d="M15.9429 1.16025C16.5198 0.813095 17.2146 0.802284 17.8017 1.13382C18.4027 1.47316 18.7618 2.09179 18.7618 2.7891V26.626C18.7618 27.3233 18.4027 27.942 17.8017 28.2807C17.516 28.4417 17.2056 28.5215 16.8946 28.5221C16.5667 28.5221 16.2389 28.4326 15.9429 28.2543C15.9086 28.2338 15.8761 28.2098 15.846 28.1822L7.69896 20.7106L1.31629 20.7136C1.15627 20.7136 1.00408 20.65 0.890982 20.5377C0.777887 20.4253 0.714722 20.2728 0.714722 20.113V8.70148C0.714722 8.36934 0.983624 8.10087 1.31629 8.10087H7.71339L15.8647 1.2161C15.8887 1.19568 15.9152 1.17646 15.9429 1.16025ZM17.2104 27.2356C17.4282 27.1125 17.5587 26.8849 17.5587 26.626V2.78906C17.5587 2.5308 17.4282 2.30317 17.2104 2.18005C17.1165 2.12719 16.8765 2.02389 16.5992 2.16924L8.53514 8.98013V11.7045C8.53514 12.0366 8.26624 12.3051 7.93357 12.3051C7.6009 12.3051 7.332 12.0366 7.332 11.7045V9.30206H1.91786V19.5124L7.332 19.51V17.11C7.332 16.7778 7.6009 16.5094 7.93357 16.5094C8.26624 16.5094 8.53514 16.7778 8.53514 17.11V19.8463L16.6088 27.2512C16.8807 27.3888 17.1171 27.2879 17.2104 27.2356Z" fill="white"/>
<path d="M17.8017 1.13382L17.6051 1.48213L17.6051 1.48213L17.8017 1.13382ZM15.9429 1.16025L16.1451 1.50538L16.1491 1.50298L15.9429 1.16025ZM17.8017 28.2807L17.998 28.6292L17.9981 28.6292L17.8017 28.2807ZM16.8946 28.5221V28.9221L16.8953 28.9221L16.8946 28.5221ZM15.9429 28.2543L16.1494 27.9117L16.1475 27.9106L15.9429 28.2543ZM15.846 28.1822L16.1166 27.8876L16.1164 27.8874L15.846 28.1822ZM7.69896 20.7106L7.96931 20.4158L7.85452 20.3106L7.69877 20.3106L7.69896 20.7106ZM1.31629 20.7136V21.1136H1.31648L1.31629 20.7136ZM0.890982 20.5377L0.609121 20.8215L0.609123 20.8215L0.890982 20.5377ZM7.71339 8.10087V8.50087H7.85971L7.9715 8.40646L7.71339 8.10087ZM15.8647 1.2161L16.1228 1.52169L16.1235 1.52108L15.8647 1.2161ZM17.2104 27.2356L17.4059 27.5846L17.4073 27.5838L17.2104 27.2356ZM17.2104 2.18005L17.4073 1.83185L17.4067 1.83152L17.2104 2.18005ZM16.5992 2.16924L16.4135 1.81495L16.3746 1.83532L16.3411 1.86365L16.5992 2.16924ZM8.53514 8.98013L8.27704 8.67454L8.13514 8.79439V8.98013H8.53514ZM7.332 9.30206H7.732V8.90206H7.332V9.30206ZM1.91786 9.30206V8.90206H1.51786V9.30206H1.91786ZM1.91786 19.5124H1.51786V19.9126L1.91804 19.9124L1.91786 19.5124ZM7.332 19.51L7.33217 19.91L7.732 19.9098V19.51H7.332ZM8.53514 19.8463H8.13514V20.0222L8.26477 20.1411L8.53514 19.8463ZM16.6088 27.2512L16.3384 27.546L16.3791 27.5833L16.4283 27.6082L16.6088 27.2512ZM17.9984 0.785513C17.2854 0.382884 16.4366 0.396289 15.7366 0.817514L16.1491 1.50298C16.6029 1.2299 17.1438 1.22168 17.6051 1.48213L17.9984 0.785513ZM19.1618 2.7891C19.1618 1.94917 18.7264 1.1966 17.9984 0.785511L17.6051 1.48213C18.079 1.74972 18.3618 2.23441 18.3618 2.7891H19.1618ZM19.1618 26.626V2.7891H18.3618V26.626H19.1618ZM17.9981 28.6292C18.7265 28.2186 19.1618 27.4659 19.1618 26.626H18.3618C18.3618 27.1808 18.0789 27.6653 17.6053 27.9322L17.9981 28.6292ZM16.8953 28.9221C17.2752 28.9214 17.6529 28.8236 17.998 28.6292L17.6054 27.9322C17.3791 28.0597 17.136 28.1217 16.8938 28.1221L16.8953 28.9221ZM15.7364 28.5969C16.0941 28.8125 16.4933 28.9221 16.8946 28.9221V28.1221C16.6401 28.1221 16.3836 28.0528 16.1494 27.9117L15.7364 28.5969ZM15.5754 28.4768C15.6262 28.5234 15.6808 28.5638 15.7382 28.5979L16.1475 27.9106C16.1364 27.9039 16.126 27.8963 16.1166 27.8876L15.5754 28.4768ZM7.4286 21.0054L15.5757 28.477L16.1164 27.8874L7.96931 20.4158L7.4286 21.0054ZM1.31648 21.1136L7.69914 21.1106L7.69877 20.3106L1.3161 20.3136L1.31648 21.1136ZM0.609123 20.8215C0.796177 21.0072 1.0493 21.1136 1.31629 21.1136V20.3136C1.26325 20.3136 1.21198 20.2927 1.17284 20.2538L0.609123 20.8215ZM0.314722 20.113C0.314722 20.3787 0.419911 20.6336 0.609121 20.8215L1.17284 20.2538C1.13586 20.2171 1.11472 20.1669 1.11472 20.113H0.314722ZM0.314722 8.70148V20.113H1.11472V8.70148H0.314722ZM1.31629 7.70087C0.763314 7.70087 0.314722 8.14782 0.314722 8.70148H1.11472C1.11472 8.59086 1.20393 8.50087 1.31629 8.50087V7.70087ZM7.71339 7.70087H1.31629V8.50087H7.71339V7.70087ZM15.6066 0.910518L7.45529 7.79529L7.9715 8.40646L16.1228 1.52169L15.6066 0.910518ZM15.7406 0.81514C15.6906 0.844462 15.6453 0.87761 15.6059 0.911126L16.1235 1.52108C16.1321 1.51375 16.1398 1.50846 16.1451 1.50535L15.7406 0.81514ZM17.1587 26.626C17.1587 26.746 17.1012 26.8378 17.0135 26.8874L17.4073 27.5838C17.7551 27.3871 17.9587 27.0237 17.9587 26.626H17.1587ZM17.1587 2.78906V26.626H17.9587V2.78906H17.1587ZM17.0135 2.52825C17.1014 2.57791 17.1587 2.66985 17.1587 2.78906H17.9587C17.9587 2.39175 17.755 2.02844 17.4073 1.83185L17.0135 2.52825ZM16.7849 2.52353C16.8414 2.49391 16.8856 2.4921 16.9204 2.49677C16.9607 2.50217 16.995 2.51781 17.0141 2.52857L17.4067 1.83152C17.2639 1.75108 16.8674 1.57706 16.4135 1.81495L16.7849 2.52353ZM8.79324 9.28572L16.8573 2.47482L16.3411 1.86365L8.27704 8.67454L8.79324 9.28572ZM8.93514 11.7045V8.98013H8.13514V11.7045H8.93514ZM7.93357 12.7051C8.48654 12.7051 8.93514 12.2581 8.93514 11.7045H8.13514C8.13514 11.8151 8.04593 11.9051 7.93357 11.9051V12.7051ZM6.932 11.7045C6.932 12.2581 7.38059 12.7051 7.93357 12.7051V11.9051C7.82121 11.9051 7.732 11.8151 7.732 11.7045H6.932ZM6.932 9.30206V11.7045H7.732V9.30206H6.932ZM1.91786 9.70206H7.332V8.90206H1.91786V9.70206ZM2.31786 19.5124V9.30206H1.51786V19.5124H2.31786ZM7.33182 19.11L1.91768 19.1124L1.91804 19.9124L7.33217 19.91L7.33182 19.11ZM6.932 17.11V19.51H7.732V17.11H6.932ZM7.93357 16.1094C7.38059 16.1094 6.932 16.5563 6.932 17.11H7.732C7.732 16.9993 7.82121 16.9094 7.93357 16.9094V16.1094ZM8.93514 17.11C8.93514 16.5563 8.48655 16.1094 7.93357 16.1094V16.9094C8.04593 16.9094 8.13514 16.9993 8.13514 17.11H8.93514ZM8.93514 19.8463V17.11H8.13514V19.8463H8.93514ZM16.8792 26.9564L8.80551 19.5515L8.26477 20.1411L16.3384 27.546L16.8792 26.9564ZM17.0148 26.8867C16.996 26.8972 16.9618 26.9128 16.9215 26.9184C16.8863 26.9233 16.8432 26.9215 16.7894 26.8943L16.4283 27.6082C16.875 27.8342 17.2647 27.6637 17.4059 27.5846L17.0148 26.8867Z" fill="white"/>
<path d="M24.054 3.32778C23.7394 3.22147 23.3977 3.38964 23.2906 3.70376C23.1841 4.01728 23.3526 4.35903 23.6672 4.46593C27.9389 5.914 30.809 9.90924 30.809 14.4078C30.809 18.9021 27.9444 22.898 23.681 24.3503C23.367 24.4572 23.1986 24.7983 23.3062 25.113C23.3917 25.3623 23.6251 25.5196 23.8753 25.5196C23.9397 25.5196 24.0053 25.5094 24.0696 25.4872C28.8196 23.8698 32.0116 19.4175 32.0116 14.4084C32.0122 9.39392 28.8142 4.94162 24.054 3.32778Z" fill="white" stroke="white" stroke-width="0.8"/>
<path d="M26.5977 14.4072C26.5977 10.8204 24.186 7.61917 20.733 6.62216C20.4123 6.53147 20.0809 6.71346 19.9882 7.03298C19.8962 7.3513 20.0797 7.68464 20.3997 7.77653C23.3408 8.62519 25.3951 11.352 25.3951 14.4072C25.3951 17.4625 23.3408 20.1893 20.3997 21.038C20.0803 21.1298 19.8962 21.4632 19.9882 21.7815C20.0646 22.0446 20.3047 22.2157 20.5663 22.2157C20.6217 22.2157 20.6776 22.2079 20.733 22.1923C24.1866 21.1953 26.5977 17.9941 26.5977 14.4072Z" fill="white" stroke="white" stroke-width="0.8"/>
</svg>
