<svg width="32" height="29" viewBox="0 0 32 29" fill="none" xmlns="http://www.w3.org/2000/svg">
<path fill-rule="evenodd" clip-rule="evenodd" d="M30.1117 10.2936C30.5026 9.90342 31.1362 9.90342 31.5271 10.2936C31.9179 10.6838 31.9179 11.3165 31.5271 11.7067L28.5707 14.6584L31.6728 17.7556C32.0637 18.1458 32.0637 18.7784 31.6728 19.1686C31.282 19.5588 30.6483 19.5588 30.2575 19.1686L27.1553 16.0715L24.0532 19.1686C23.6624 19.5588 23.0287 19.5588 22.6379 19.1686C22.247 18.7784 22.247 18.1458 22.6379 17.7556L25.74 14.6584L22.7836 11.7067C22.3928 11.3165 22.3928 10.6838 22.7836 10.2936C23.1744 9.90342 23.8081 9.90342 24.199 10.2936L27.1553 13.2453L30.1117 10.2936Z" fill="white"/>
<path fill-rule="evenodd" clip-rule="evenodd" d="M16.2701 1.16C16.8471 0.812851 17.5419 0.80204 18.129 1.13358C18.73 1.47292 19.0891 2.09155 19.0891 2.78885V26.6258C19.0891 27.3231 18.73 27.9417 18.129 28.2805C17.8433 28.4414 17.5328 28.5213 17.2218 28.5219C16.894 28.5219 16.5661 28.4324 16.2701 28.254C16.2359 28.2336 16.2034 28.2096 16.1733 28.182L8.02622 20.7104L1.64356 20.7134C1.48354 20.7134 1.33135 20.6497 1.21825 20.5374C1.10516 20.4251 1.04199 20.2725 1.04199 20.1128V8.70123C1.04199 8.3691 1.31089 8.10063 1.64356 8.10063H8.04066L16.1919 1.21586C16.216 1.19544 16.2425 1.17622 16.2701 1.16ZM17.5377 27.2354C17.7554 27.1122 17.886 26.8846 17.886 26.6257V2.78882C17.886 2.53056 17.7554 2.30293 17.5377 2.1798C17.4438 2.12695 17.2038 2.02364 16.9265 2.16899L8.86241 8.97989V11.7042C8.86241 12.0364 8.5935 12.3049 8.26083 12.3049C7.92817 12.3049 7.65926 12.0364 7.65926 11.7042V9.30181H2.24513V19.5121L7.65926 19.5097V17.1097C7.65926 16.7776 7.92817 16.5091 8.26083 16.5091C8.5935 16.5091 8.86241 16.7776 8.86241 17.1097V19.8461L16.9361 27.251C17.208 27.3885 17.4444 27.2876 17.5377 27.2354Z" fill="white"/>
<path d="M18.129 1.13358L17.9323 1.48188L17.9323 1.48188L18.129 1.13358ZM16.2701 1.16L16.4724 1.50513L16.4764 1.50274L16.2701 1.16ZM18.129 28.2805L18.3253 28.629L18.3254 28.6289L18.129 28.2805ZM17.2218 28.5219V28.9219L17.2226 28.9219L17.2218 28.5219ZM16.2701 28.254L16.4766 27.9114L16.4748 27.9103L16.2701 28.254ZM16.1733 28.182L16.4439 27.8874L16.4437 27.8872L16.1733 28.182ZM8.02622 20.7104L8.29658 20.4156L8.18179 20.3103L8.02604 20.3104L8.02622 20.7104ZM1.64356 20.7134V21.1134H1.64375L1.64356 20.7134ZM1.21825 20.5374L0.936391 20.8212L0.936394 20.8212L1.21825 20.5374ZM8.04066 8.10063V8.50063H8.18698L8.29877 8.40621L8.04066 8.10063ZM16.1919 1.21586L16.45 1.52144L16.4508 1.52084L16.1919 1.21586ZM17.5377 27.2354L17.7332 27.5843L17.7345 27.5836L17.5377 27.2354ZM17.5377 2.1798L17.7345 1.8316L17.7339 1.83128L17.5377 2.1798ZM16.9265 2.16899L16.7408 1.8147L16.7019 1.83508L16.6684 1.8634L16.9265 2.16899ZM8.86241 8.97989L8.60431 8.6743L8.46241 8.79415V8.97989H8.86241ZM7.65926 9.30181H8.05926V8.90181H7.65926V9.30181ZM2.24513 9.30181V8.90181H1.84513V9.30181H2.24513ZM2.24513 19.5121H1.84513V19.9123L2.24531 19.9121L2.24513 19.5121ZM7.65926 19.5097L7.65944 19.9097L8.05926 19.9096V19.5097H7.65926ZM8.86241 19.8461H8.46241V20.022L8.59204 20.1409L8.86241 19.8461ZM16.9361 27.251L16.6657 27.5458L16.7063 27.583L16.7555 27.6079L16.9361 27.251ZM18.3257 0.785269C17.6126 0.382639 16.7639 0.396045 16.0639 0.81727L16.4764 1.50274C16.9302 1.22966 17.4711 1.22144 17.9323 1.48188L18.3257 0.785269ZM19.4891 2.78885C19.4891 1.94893 19.0537 1.19636 18.3257 0.785267L17.9323 1.48188C18.4062 1.74948 18.6891 2.23416 18.6891 2.78885H19.4891ZM19.4891 26.6258V2.78885H18.6891V26.6258H19.4891ZM18.3254 28.6289C19.0537 28.2184 19.4891 27.4656 19.4891 26.6258H18.6891C18.6891 27.1805 18.4062 27.665 17.9326 27.932L18.3254 28.6289ZM17.2226 28.9219C17.6024 28.9212 17.9801 28.8234 18.3253 28.629L17.9327 27.9319C17.7064 28.0594 17.4632 28.1214 17.2211 28.1219L17.2226 28.9219ZM16.0637 28.5966C16.4214 28.8122 16.8206 28.9219 17.2218 28.9219V28.1219C16.9674 28.1219 16.7108 28.0526 16.4766 27.9114L16.0637 28.5966ZM15.9027 28.4765C15.9534 28.5231 16.0081 28.5635 16.0655 28.5977L16.4748 27.9103C16.4636 27.9037 16.4533 27.896 16.4439 27.8874L15.9027 28.4765ZM7.75587 21.0052L15.9029 28.4768L16.4437 27.8872L8.29658 20.4156L7.75587 21.0052ZM1.64375 21.1134L8.02641 21.1104L8.02604 20.3104L1.64337 20.3134L1.64375 21.1134ZM0.936394 20.8212C1.12345 21.007 1.37657 21.1134 1.64356 21.1134V20.3134C1.59052 20.3134 1.53925 20.2925 1.50011 20.2536L0.936394 20.8212ZM0.641992 20.1128C0.641992 20.3784 0.747182 20.6333 0.936391 20.8212L1.50011 20.2536C1.46313 20.2169 1.44199 20.1667 1.44199 20.1128H0.641992ZM0.641992 8.70123V20.1128H1.44199V8.70123H0.641992ZM1.64356 7.70063C1.09058 7.70063 0.641992 8.14758 0.641992 8.70123H1.44199C1.44199 8.59062 1.5312 8.50063 1.64356 8.50063V7.70063ZM8.04066 7.70063H1.64356V8.50063H8.04066V7.70063ZM15.9338 0.910274L7.78256 7.79504L8.29877 8.40621L16.45 1.52144L15.9338 0.910274ZM16.0679 0.814896C16.0179 0.844218 15.9726 0.877366 15.9331 0.910882L16.4508 1.52084C16.4594 1.51351 16.4671 1.50822 16.4724 1.50511L16.0679 0.814896ZM17.486 26.6257C17.486 26.7458 17.4285 26.8376 17.3408 26.8872L17.7345 27.5836C18.0824 27.3869 18.286 27.0235 18.286 26.6257H17.486ZM17.486 2.78882V26.6257H18.286V2.78882H17.486ZM17.3408 2.528C17.4286 2.57766 17.486 2.66961 17.486 2.78882H18.286C18.286 2.3915 18.0822 2.02819 17.7345 1.8316L17.3408 2.528ZM17.1121 2.52328C17.1686 2.49367 17.2129 2.49186 17.2477 2.49653C17.288 2.50192 17.3223 2.51757 17.3414 2.52833L17.7339 1.83128C17.5911 1.75084 17.1947 1.57682 16.7408 1.8147L17.1121 2.52328ZM9.12051 9.28547L17.1846 2.47458L16.6684 1.8634L8.60431 8.6743L9.12051 9.28547ZM9.26241 11.7042V8.97989H8.46241V11.7042H9.26241ZM8.26083 12.7049C8.81381 12.7049 9.26241 12.2579 9.26241 11.7042H8.46241C8.46241 11.8149 8.37319 11.9049 8.26083 11.9049V12.7049ZM7.25926 11.7042C7.25926 12.2579 7.70786 12.7049 8.26083 12.7049V11.9049C8.14848 11.9049 8.05926 11.8149 8.05926 11.7042H7.25926ZM7.25926 9.30181V11.7042H8.05926V9.30181H7.25926ZM2.24513 9.70181H7.65926V8.90181H2.24513V9.70181ZM2.64513 19.5121V9.30181H1.84513V19.5121H2.64513ZM7.65909 19.1097L2.24495 19.1121L2.24531 19.9121L7.65944 19.9097L7.65909 19.1097ZM7.25926 17.1097V19.5097H8.05926V17.1097H7.25926ZM8.26083 16.1091C7.70786 16.1091 7.25926 16.5561 7.25926 17.1097H8.05926C8.05926 16.9991 8.14848 16.9091 8.26083 16.9091V16.1091ZM9.26241 17.1097C9.26241 16.5561 8.81381 16.1091 8.26083 16.1091V16.9091C8.37319 16.9091 8.46241 16.9991 8.46241 17.1097H9.26241ZM9.26241 19.8461V17.1097H8.46241V19.8461H9.26241ZM17.2065 26.9562L9.13278 19.5513L8.59204 20.1409L16.6657 27.5458L17.2065 26.9562ZM17.3421 26.8864C17.3233 26.897 17.289 26.9126 17.2488 26.9182C17.2136 26.923 17.1704 26.9213 17.1166 26.894L16.7555 27.6079C17.2023 27.8339 17.592 27.6634 17.7332 27.5843L17.3421 26.8864Z" fill="white"/>
</svg>
