<svg width="35" height="35" viewBox="0 0 35 35" fill="none" xmlns="http://www.w3.org/2000/svg">
<rect x="1" y="1" width="33" height="33" rx="3" stroke="white" stroke-width="2"/>
<path d="M22.6667 11.8333C22.6667 14.5027 20.5027 16.6667 17.8333 16.6667C15.164 16.6667 13 14.5027 13 11.8333C13 9.16396 15.164 7 17.8333 7C20.5027 7 22.6667 9.16396 22.6667 11.8333Z" fill="white" stroke="white" stroke-width="2"/>
<path d="M9.01054 32C9.12604 26.6115 10.1824 23.1612 11.7439 21.0536C13.227 19.0518 15.2519 18.1486 17.6952 18.017C17.3942 18.3319 17.1711 18.694 17.0061 19.0712C16.5667 20.0763 16.5 21.2912 16.5 22.3333V32H9.01054Z" fill="white" stroke="white" stroke-width="2"/>
<path d="M17 21C17 19.3431 18.3431 18 20 18H34V31C34 32.6569 32.6569 34 31 34H17V21Z" stroke="white" stroke-width="2"/>
<circle cx="25.5" cy="24.5" r="1.5" fill="white" stroke="white" stroke-width="2"/>
<path d="M28.9661 32H22.0286C22.1417 30.1368 22.5738 29.2062 23.0376 28.7257C23.5559 28.1886 24.32 28 25.5 28C26.5978 28 27.393 28.2562 27.942 28.8601C28.4251 29.3915 28.8466 30.3315 28.9661 32Z" fill="white" stroke="white" stroke-width="2"/>
</svg>
